<?xml version="1.0" encoding="utf-8"?>
<!-- Generator: Adobe Illustrator 24.2.3, SVG Export Plug-In . SVG Version: 6.00 Build 0)  -->
<svg version="1.1" id="Layer_1" xmlns="http://www.w3.org/2000/svg" xmlns:xlink="http://www.w3.org/1999/xlink" x="0px" y="0px"
	 viewBox="0 0 58 58" style="enable-background:new 0 0 58 58;" xml:space="preserve">
<g>
	<path d="M48.68,18.83c1,8,1.02,16.01-0.63,23.95c-0.77,3.7-0.84,3.69-4.67,3.69c-1.61,0-3.22-0.07-4.82,0.02
		c-1.03,0.06-1.67-0.31-1.85-1.26c-0.63-3.32-1.28-6.64-1.76-9.99c-0.26-1.81-0.12-1.83-1.97-1.83c-3.21,0-6.42,0-9.57,0
		c-0.47,3.29-0.81,6.35-1.38,9.37c-0.7,3.7-0.79,3.68-4.54,3.68c-1.7,0-3.4-0.05-5.09,0.02c-0.93,0.04-1.48-0.3-1.65-1.14
		C10.12,42.34,9.31,39.34,9,36.3c-0.68-6.69-0.5-13.39,0.7-20.03c0.22-1.21,0.63-2.38,0.98-3.56c0.26-0.86,0.78-1.23,1.77-1.2
		c2.36,0.08,4.74,0.07,7.1,0c0.92-0.03,1.48,0.28,1.67,1.12c0.56,2.44,1.12,4.88,1.58,7.34c0.22,1.21,0.17,2.46,0.35,3.68
		c0.05,0.33,0.51,0.86,0.8,0.87c3.57,0.06,7.13,0.04,10.7,0.04c0.35-2.72,0.62-5.34,1.05-7.94c0.23-1.38,0.7-2.72,1.1-4.07
		c0.22-0.77,0.72-1.08,1.59-1.06c2.41,0.06,4.82,0.06,7.24,0c0.85-0.02,1.4,0.26,1.6,1.04C47.75,14.63,48.41,16.71,48.68,18.83z
		 M57.78,24.84c-0.2-2.39-0.73-4.77-1.22-7.13c-0.11-0.52-0.67-1.3-1.07-1.34c-1.74-0.15-3.5-0.06-5.29-0.06
		c1.28,8.54,1.28,16.87,0,25.4c1.25,0,2.4,0,3.56,0c2.41,0,2.56-0.07,3.15-2.44C58.08,34.52,58.19,29.67,57.78,24.84z M7.78,16.29
		c-1.22,0-2.37,0-3.53,0c-2.42,0-2.57,0.07-3.16,2.43c-1.18,4.76-1.28,9.61-0.87,14.46c0.2,2.36,0.71,4.69,1.19,7.02
		c0.11,0.53,0.64,1.36,1.03,1.4c1.77,0.15,3.56,0.07,5.35,0.07C6.49,33.09,6.51,24.75,7.78,16.29z"/>
</g>
</svg>
