<svg width="58" height="58" viewBox="0 0 58 58" fill="none" xmlns="http://www.w3.org/2000/svg">
<g clip-path="url(#clip0_435_2556)">
<path d="M40.75 34.7099C40.81 35.5399 40.89 36.4999 40.95 37.4699C40.95 37.9299 41.17 38.1499 41.65 37.9199C43.035 37.3266 44.3869 36.6589 45.7 35.9199C51.5 32.3299 55.31 27.0899 57.95 20.9199C58.0298 20.6016 57.9832 20.2647 57.82 19.9799C56.28 17.1795 54.4136 14.5713 52.26 12.2099C48.4892 7.88724 43.8252 4.43444 38.59 2.08992C35.4382 0.672744 32.0155 -0.0404742 28.56 -8.45115e-05C24.7966 0.0996763 21.1071 1.06823 17.78 2.82992C10.3089 6.73051 4.15771 12.7529 0.1 20.1399C-0.0395183 20.4829 -0.0395183 20.8669 0.1 21.2099C1.43514 24.3946 3.24575 27.3584 5.47 29.9999C8.27404 33.5422 11.9856 36.2585 16.21 37.8599C16.85 38.0899 17.01 38.0299 17.02 37.3799C17.1242 35.5879 17.1175 33.7911 17 31.9999C16.4741 26.9284 14.1423 22.215 10.43 18.7199C9.34 17.6599 9.29 17.6499 10.36 16.5099C16.52 9.99992 24 6.93992 33 8.38992C38.9588 9.37909 44.3505 12.5124 48.16 17.1999C48.52 17.6199 48.51 17.8799 48.08 18.2799C45.766 20.3445 43.9161 22.8765 42.6526 25.7086C41.3891 28.5408 40.7406 31.6087 40.75 34.7099Z" fill="white"/>
<path d="M16.7 58L16.23 57.74C16.0722 57.6598 15.9338 57.5462 15.8243 57.4071C15.7148 57.268 15.6369 57.1068 15.596 56.9346C15.5551 56.7624 15.5522 56.5833 15.5874 56.4098C15.6226 56.2364 15.6951 56.0727 15.8 55.93C15.9605 55.6714 16.1594 55.4388 16.39 55.24C18.9945 53.0235 20.9359 50.1304 22 46.88C23.2001 43.5606 23.9109 40.0842 24.11 36.56C24.3916 32.7332 24.0093 28.8866 22.98 25.19C22.4518 23.2182 21.5966 21.3489 20.45 19.66C20.3794 19.5925 20.3256 19.5094 20.2927 19.4174C20.2597 19.3254 20.2487 19.2271 20.2603 19.1301C20.2719 19.0331 20.306 18.9401 20.3597 18.8586C20.4135 18.777 20.4854 18.709 20.57 18.66C23.2366 16.2867 25.9033 13.9034 28.57 11.51C28.6212 11.4417 28.6876 11.3863 28.764 11.3481C28.8404 11.3099 28.9246 11.29 29.01 11.29C29.0954 11.29 29.1796 11.3099 29.2559 11.3481C29.3323 11.3863 29.3987 11.4417 29.45 11.51C29.89 11.93 30.34 12.33 30.82 12.71C31.3 13.09 31.13 13.24 30.82 13.56C30.24 14.27 29.67 14.97 29.16 15.72C28.8473 16.1904 28.6016 16.702 28.43 17.24C28.2896 17.601 28.2622 17.996 28.3515 18.3729C28.4408 18.7497 28.6425 19.0905 28.93 19.35C29.1971 19.6487 29.5532 19.8537 29.9457 19.9347C30.3382 20.0158 30.7463 19.9685 31.11 19.8C32.5173 19.1269 33.7728 18.1742 34.8 17C35.06 16.74 35.26 16.65 35.56 16.95C36.2 17.56 36.86 18.16 37.56 18.76C37.81 18.98 37.89 19.18 37.68 19.48C35.4004 23.0806 34.1167 27.2214 33.96 31.48C33.5407 36.8448 34.309 42.2359 36.21 47.27C36.9342 49.2898 37.9885 51.1754 39.33 52.85C39.93 53.57 40.65 54.2 41.33 54.85C41.5618 55.0437 41.7822 55.2508 41.99 55.47C42.1758 55.6237 42.3163 55.8251 42.3965 56.0525C42.4767 56.2799 42.4935 56.5248 42.4453 56.7611C42.397 56.9974 42.2854 57.216 42.1224 57.3938C41.9594 57.5715 41.7512 57.7015 41.52 57.77L41.32 57.91L16.7 58Z" fill="white"/>
<path d="M40.75 34.7101C40.7406 31.6089 41.3891 28.5409 42.6526 25.7088C43.9161 22.8767 45.766 20.3447 48.08 18.2801C48.51 17.8801 48.52 17.6201 48.16 17.2001C44.3505 12.5125 38.9588 9.37925 33 8.39007C24 6.94007 16.52 10.0001 10.37 16.5501C9.30001 17.6901 9.37001 17.7001 10.44 18.7601C14.1401 22.2466 16.4675 26.9441 17 32.0001C17.11 33.785 17.11 35.5751 17 37.3601C17 38.0101 16.83 38.0701 16.19 37.8401C11.9752 36.241 8.27114 33.5321 5.47001 30.0001C3.24929 27.3579 1.44208 24.3942 0.11001 21.2101C-0.0295085 20.867 -0.0295085 20.4831 0.11001 20.1401C4.16505 12.7545 10.3126 6.73225 17.78 2.83007C21.1072 1.06839 24.7966 0.0998335 28.56 7.27274e-05C32.0047 -0.0390985 35.4167 0.670604 38.56 2.08007C43.8117 4.43833 48.4867 7.91218 52.26 12.2601C54.4117 14.6121 56.278 17.2101 57.82 20.0001C57.9172 20.1454 57.9834 20.3092 58.0144 20.4813C58.0453 20.6534 58.0405 20.83 58 21.0001C55.31 27.1401 51.5 32.3801 45.7 36.0001C44.387 36.7391 43.035 37.4067 41.65 38.0001C41.17 38.2301 40.99 38.0001 40.95 37.5501C40.89 36.5001 40.81 35.5401 40.75 34.7101Z" fill="white"/>
</g>
<defs>
<clipPath id="clip0_435_2556">
<rect width="58" height="58" fill="white"/>
</clipPath>
</defs>
</svg>
