<svg width="58" height="58" viewBox="0 0 58 58" fill="none" xmlns="http://www.w3.org/2000/svg">
<g clip-path="url(#clip0_435_2567)">
<path d="M45.0699 8.70988C44.4399 7.88988 43.8599 7.14988 43.2699 6.40988C41.9999 4.79988 40.7399 3.19988 39.4799 1.59988C39.3899 1.48988 39.2999 1.37988 39.2199 1.25988C38.8799 0.669879 39.1499 0.0498787 39.8299 -0.000121258C41.4299 -0.000121258 43.0299 -0.000121258 44.6199 -0.000121258C45.0034 0.0370135 45.373 0.162988 45.6993 0.367812C46.0256 0.572635 46.2997 0.850674 46.4999 1.17988C48.9866 4.51321 51.4699 7.84655 53.9499 11.1799C54.1142 11.3504 54.2318 11.5604 54.2915 11.7896C54.3512 12.0188 54.3509 12.2595 54.2906 12.4885C54.2303 12.7175 54.1121 12.9272 53.9474 13.0973C53.7826 13.2674 53.5769 13.3923 53.3499 13.4599C49.6166 15.1799 45.8899 16.8932 42.1699 18.5999C41.9626 18.6736 41.7781 18.8 41.6344 18.9665C41.4906 19.1331 41.3926 19.3341 41.3499 19.5499C41.1299 20.4999 40.8599 21.4299 40.6099 22.3699C40.2099 23.8799 39.3299 24.1899 38.0799 23.2599C35.2799 21.1699 32.4599 19.0999 29.6799 16.9799C29.495 16.8084 29.2521 16.7131 28.9999 16.7131C28.7477 16.7131 28.5048 16.8084 28.3199 16.9799C25.5299 19.0999 22.7199 21.1699 19.9099 23.2499C19.6765 23.4444 19.4131 23.5997 19.1299 23.7099C18.962 23.7692 18.7833 23.7917 18.606 23.7758C18.4286 23.7599 18.2568 23.706 18.1021 23.6178C17.9475 23.5296 17.8136 23.409 17.7097 23.2645C17.6058 23.1199 17.5342 22.9546 17.4999 22.7799C17.1799 21.6899 16.8899 20.5999 16.6199 19.4999C16.5794 19.3044 16.4904 19.1223 16.3611 18.9703C16.2318 18.8183 16.0663 18.7012 15.8799 18.6299L4.8099 13.5599C3.5399 12.9999 3.3299 12.1499 4.1799 10.9999C6.5199 7.84988 8.8699 4.71988 11.1799 1.54988C11.5108 1.04033 11.9716 0.628141 12.5146 0.355717C13.0577 0.0832929 13.6636 -0.0395314 14.2699 -0.000121258C15.4799 0.0498787 16.6999 -0.000121258 17.9099 -0.000121258C18.2299 -0.000121258 18.7099 0.199879 18.7999 0.429879C18.8353 0.602676 18.834 0.780974 18.7961 0.953233C18.7582 1.12549 18.6845 1.28788 18.5799 1.42988C16.8699 3.64988 15.1099 5.84988 13.3699 8.05988C13.2399 8.22988 13.1199 8.40988 12.9199 8.68988C13.3199 8.78988 13.6399 8.88988 13.9199 8.94988C16.5299 9.46988 19.1499 9.94988 21.7599 10.4999C21.9812 10.5604 22.2146 10.5607 22.4361 10.501C22.6575 10.4412 22.8591 10.3235 23.0199 10.1599C24.4999 8.78988 26.0199 7.43988 27.5199 6.09988C27.6982 5.89604 27.9181 5.73267 28.1647 5.62075C28.4114 5.50882 28.6791 5.45092 28.9499 5.45092C29.2207 5.45092 29.4885 5.50882 29.7351 5.62075C29.9817 5.73267 30.2016 5.89604 30.3799 6.09988C31.9999 7.51988 33.4799 8.91988 34.9999 10.2699C35.1368 10.3863 35.2963 10.473 35.4685 10.5247C35.6406 10.5763 35.8215 10.5917 35.9999 10.5699C38.8699 10.0399 41.7399 9.45988 44.6099 8.88988C44.7687 8.84503 44.9228 8.78474 45.0699 8.70988Z" fill="#a0a0a0"/>
<path d="M36.6401 29.1799L35.8501 32.5399C33.9501 40.6533 32.0168 48.7633 30.0501 56.8699C30.0501 56.9899 29.9801 57.0999 29.9501 57.2199C29.9225 57.4472 29.8083 57.655 29.6314 57.8003C29.4545 57.9455 29.2284 58.017 29.0001 57.9999C28.7622 58.0226 28.5247 57.9518 28.3381 57.8025C28.1514 57.6532 28.0302 57.4371 28.0001 57.1999L26.5001 50.8399C24.8334 43.9266 23.1868 37.0133 21.5601 30.0999C21.3001 28.9899 21.3401 28.8699 22.2901 28.1799C24.3401 26.6999 26.3901 25.2299 28.4201 23.7299C28.4956 23.6525 28.5858 23.591 28.6854 23.549C28.785 23.507 28.892 23.4854 29.0001 23.4854C29.1082 23.4854 29.2152 23.507 29.3148 23.549C29.4144 23.591 29.5046 23.6525 29.5801 23.7299C31.6801 25.2799 33.8101 26.7799 35.9101 28.3299C36.187 28.5826 36.4322 28.868 36.6401 29.1799Z" fill="#a0a0a0"/>
<path d="M18.49 29.7701L17.83 43.2701C17.71 45.8167 17.5933 48.3601 17.48 50.9001C17.48 51.4501 17.3 51.9001 16.69 52.0301C16.08 52.1601 15.76 51.8801 15.49 51.1701C13.49 45.9201 11.4 40.6601 9.37998 35.4001C9.27838 35.0967 9.10548 34.8221 8.8758 34.5994C8.64611 34.3767 8.36634 34.2123 8.05998 34.1201C5.71998 33.2801 3.39998 32.4001 1.05998 31.5401C-0.170018 31.0801 -0.340018 30.3501 0.569982 29.4201L7.77998 22.0001C7.93998 21.8401 8.08998 21.6801 8.25998 21.5301C8.35385 21.422 8.46983 21.3353 8.60009 21.2759C8.73034 21.2165 8.87183 21.1858 9.01498 21.1858C9.15814 21.1858 9.29962 21.2165 9.42988 21.2759C9.56013 21.3353 9.67611 21.422 9.76998 21.5301C12.55 23.9834 15.3166 26.4434 18.07 28.9101C18.2859 29.1833 18.4611 29.4865 18.59 29.8101L18.49 29.7701Z" fill="#a0a0a0"/>
<path d="M39.49 29.5201C39.6061 29.2499 39.7648 29 39.96 28.7801C42.6867 26.3401 45.4233 23.9101 48.17 21.4901C48.2631 21.3659 48.3839 21.2651 48.5228 21.1957C48.6616 21.1262 48.8147 21.0901 48.97 21.0901C49.1252 21.0901 49.2783 21.1262 49.4172 21.1957C49.5561 21.2651 49.6768 21.3659 49.77 21.4901C52.39 24.1568 55.0067 26.8568 57.62 29.5901C57.7853 29.7068 57.9112 29.8709 57.9813 30.0607C58.0513 30.2505 58.0622 30.4572 58.0123 30.6533C57.9625 30.8494 57.8543 31.0257 57.7022 31.1591C57.55 31.2924 57.3609 31.3764 57.16 31.4001C54.77 32.3001 52.39 33.2001 50 34.0501C49.6664 34.154 49.3626 34.3362 49.1138 34.5815C48.8651 34.8268 48.6786 35.128 48.57 35.4601C46.57 40.6401 44.57 45.7901 42.57 50.9501C42.57 51.0901 42.47 51.2201 42.41 51.3501C42.3423 51.5766 42.1909 51.7688 41.9866 51.8877C41.7823 52.0066 41.5403 52.0432 41.31 51.9901C41.0865 51.9581 40.883 51.8441 40.7388 51.6704C40.5947 51.4967 40.5203 51.2756 40.53 51.0501C40.46 49.9001 40.38 48.7501 40.33 47.6001C40.15 43.6601 39.99 39.7301 39.81 35.7901C39.72 33.7901 39.61 31.7601 39.49 29.5201Z" fill="#a0a0a0"/>
</g>
<defs>
<clipPath id="clip0_435_2567">
<rect width="58" height="58" fill="white"/>
</clipPath>
</defs>
</svg>
