<?xml version="1.0" encoding="utf-8"?>
<!-- Generator: Adobe Illustrator 24.2.3, SVG Export Plug-In . SVG Version: 6.00 Build 0)  -->
<svg version="1.1" id="Layer_1" xmlns="http://www.w3.org/2000/svg" xmlns:xlink="http://www.w3.org/1999/xlink" x="0px" y="0px"
	 viewBox="0 0 58 58" style="enable-background:new 0 0 58 58;" xml:space="preserve">
    <g fill="#fff">
<path d="M7.4,45.3c5.2-2.3,6.8-2.2,7-9c0.2-6.9-0.9-9,2-13.5S24.9,4.4,30.7,2.1c5.8-2.4,2.2,3.4,1.4,7.3c-0.8,3.8-1.9,14.1,0.3,17.1
	c2.2,2.9,7.6,8.8,9.1,10c1.5,1.1,0.7,5-9.4,6.8c-10.2,1.8-15,0-15,0s11.4,4.9,21.5,1.7s7.4-6.6,7.4-6.6s13.1-1.8,10.7,4.9
	c-2.4,6.7-13.8,12.3-24.5,13.1C21.6,57.1,1.5,56.1,1,50.7C1,50.7,0.1,48.5,7.4,45.3z"/>
    </g>
</svg>
