<?xml version="1.0" encoding="utf-8"?>
<!-- Generator: Adobe Illustrator 25.2.0, SVG Export Plug-In . SVG Version: 6.00 Build 0)  -->
<svg version="1.1" id="Layer_1" xmlns="http://www.w3.org/2000/svg" xmlns:xlink="http://www.w3.org/1999/xlink" x="0px" y="0px"
	 viewBox="0 0 58 58" style="enable-background:new 0 0 58 58;" xml:space="preserve">
    <g fill="#fff">
	<path d="M26.8,34.4l-8.4,17.5h20.7l-8.4-17.1L26.8,34.4z"/>
	<path d="M57.1,18.3c-0.9-0.8-2.1-1-3.2-0.5c-5.5,2.3-10.8,3.6-15.8,4.2L32,7.2c-0.4-1-1.5-1.7-2.7-1.7c-1.2,0-2.3,0.6-2.7,1.6
		L20.3,21c-3.1-0.7-5.9-1.5-8.2-2.4c-2.4-0.9-4.3-1.8-5.6-2.5c-0.7-0.3-1.1-0.6-1.5-0.8c-0.2-0.1-0.3-0.2-0.3-0.2l-0.1,0h0
		c-1-0.7-2.4-0.6-3.4,0.1c-1,0.7-1.4,1.9-1,3l8.3,24.1l0.1,0.3l1.1,3.2c0.1,0.2,0.1,0.3,0.2,0.4l2.3,6.3l2.8-6.1
		c0.1-0.1,0.2-0.2,0.2-0.4l8.7-18.9c2.6,0.3,5.3,0.6,8.2,0.6c0.7,0,1.5,0,2.2,0l7.6,18.3c0.1,0.2,0.2,0.3,0.3,0.5l2.5,6.1l2.7-6.6
		c0,0,0,0,0-0.1c0,0,0-0.1,0.1-0.3l1.3-3.3h0c1.7-4.3,5-12.1,9.1-21C58.2,20.3,58,19.1,57.1,18.3z M12.8,37.2l-5-14.3
		c0.6,0.3,1.3,0.5,2,0.8c2.3,0.9,5,1.7,8,2.4L12.8,37.2z M32,22.3c-2,0-4-0.1-5.8-0.3l3-6.6L32,22.3z M49.7,25.1
		c-2.1,4.8-3.9,9-5.3,12.3l-4.2-10.2C43.3,26.7,46.5,26,49.7,25.1z"/>
</g>
</svg>
