<svg width="58" height="58" viewBox="0 0 58 58" fill="none" xmlns="http://www.w3.org/2000/svg">
<path d="M15.72 41C17.16 41.06 18.48 41.16 19.79 41.16C20.4279 41.1214 21.059 41.0073 21.67 40.82C21.9992 40.7316 22.3015 40.5633 22.55 40.33C22.8003 40.0218 23.015 39.6864 23.19 39.33C22.9056 39.2086 22.6153 39.1018 22.32 39.01C20.3267 38.5871 18.4283 37.8007 16.72 36.69C15.1433 35.561 13.883 34.046 13.06 32.29C12.49 31.21 12 30 11.4 28.88C9.87132 25.5829 7.13181 23.0009 3.75 21.67C3.48548 21.5701 3.23372 21.4392 3 21.28C7.10089 19.7928 11.6124 19.9107 15.63 21.61C15.52 21.3 15.48 21.12 15.4 20.96C14.0421 18.1184 13.1378 15.0816 12.72 11.96C12.1963 9.02069 12.6457 5.99077 14 3.33C14.6955 2.12542 15.6316 1.07698 16.75 0.25C16.86 0.17 16.98 0.11 17.15 0C17.1198 0.592948 17.1198 1.18705 17.15 1.78C17.5255 4.78069 18.9409 7.55484 21.15 9.62C22.9726 11.3615 25.1247 12.7214 27.48 13.62C29.7437 14.4531 31.8705 15.6193 33.79 17.08C35.2209 18.2172 36.4095 19.6296 37.2854 21.2338C38.1614 22.838 38.707 24.6014 38.89 26.42C38.98 27.11 39.03 27.8 39.09 28.5C39.1012 28.6865 39.1012 28.8735 39.09 29.06C33.9785 25.4859 27.6813 24.0308 21.52 25L21.41 25.21C21.6674 25.4623 21.945 25.693 22.24 25.9C23.41 26.58 24.59 27.26 25.79 27.9C29.1904 29.5626 32.4481 31.5025 35.53 33.7C37.3248 34.9687 38.9658 36.4419 40.42 38.09C40.56 38.27 40.69 38.46 40.83 38.65C40.97 38.84 40.83 38.78 40.92 38.91C40.358 39.1396 39.7361 39.1783 39.15 39.02C36.84 38.62 34.53 38.17 32.22 37.75C31.47 37.61 30.71 37.49 29.96 37.39C29.627 37.3678 29.293 37.3678 28.96 37.39C29.0787 37.5971 29.2089 37.7975 29.35 37.99C32.452 41.4812 36.7163 43.7271 41.35 44.31C43.4368 44.5869 45.5531 44.5532 47.63 44.21C48.34 44.1 48.35 44.1 48.48 44.84C49.2015 49.0995 48.9589 53.4666 47.77 57.62C47.7265 57.7506 47.673 57.8776 47.61 58L47.23 57.36C45.7801 54.6864 43.7254 52.3887 41.23 50.65C38.1578 48.5977 34.4408 47.7405 30.78 48.24C27.8061 48.6694 24.7772 48.52 21.86 47.8C20.7163 47.4939 19.6549 46.9377 18.7522 46.1716C17.8495 45.4055 17.1281 44.4487 16.64 43.37C16.35 42.61 16.05 41.81 15.72 41Z" fill="white"/>
<path d="M38.6899 7.42993C40.2586 8.31028 41.7072 9.38917 42.9999 10.6399C46.0678 13.6665 48.1578 17.5435 48.9999 21.7699C49.6899 24.7699 50.1499 27.8299 50.6099 30.8799C51.1499 34.4099 51.6099 37.9599 52.8899 41.3099C52.8955 41.3765 52.8955 41.4434 52.8899 41.5099C52.8299 41.5099 52.7899 41.5099 52.7599 41.5099C49.7599 40.1799 46.9899 38.4599 45.2199 35.5099C44.1917 33.7647 43.5729 31.809 43.4099 29.7899C43.1599 27.1999 43.0299 24.5899 42.8499 21.9999C42.6529 17.043 41.282 12.2037 38.8499 7.87993L38.7199 7.63993C38.7057 7.57061 38.6957 7.50048 38.6899 7.42993Z" fill="white"/>
</svg>
