<svg width="58" height="58" viewBox="0 0 58 58" fill="none" xmlns="http://www.w3.org/2000/svg">
<g clip-path="url(#clip0_435_2560)">
<path d="M10.15 41.15C9.93003 41.01 9.72003 40.89 9.54003 40.75C6.07806 38.1954 3.27407 34.8533 1.36003 31C0.563818 29.4461 0.100613 27.7431 2.91103e-05 26C-0.0638979 24.522 0.220456 23.0496 0.830155 21.7017C1.43985 20.3537 2.35783 19.168 3.51003 18.24C6.14673 16.0398 9.35493 14.6352 12.76 14.19C13.2 14.11 13.64 14.06 14.08 13.99C14.08 13.99 14.14 13.94 14.29 13.83L3.29003 7.08V6.9C8.86003 5.42 14.43 4.37 20.24 5C18.7935 3.24112 17.1829 1.62384 15.43 0.17V0C16.34 0.11 17.25 0.17 18.15 0.34C22.2015 1.21373 25.9488 3.14605 29.01 5.94C31.9079 8.46584 34.5445 11.2766 36.88 14.33C36.96 14.44 37.02 14.56 37.17 14.8C36.68 14.87 36.27 14.9 35.87 14.97C34.95 15.13 34.04 15.33 33.12 15.46C32.9797 15.4757 32.8376 15.4634 32.702 15.424C32.5664 15.3845 32.44 15.3186 32.33 15.23C28.8343 11.4892 24.0955 9.15008 19 8.65C17.69 8.49 16.36 8.54 15 8.5C14.8134 8.51733 14.629 8.5542 14.45 8.61L14.4 8.8L26.53 16.16C26.16 16.16 25.96 16.16 25.76 16.16C21.6518 16.1374 17.5622 16.7135 13.62 17.87C11.1954 18.5279 8.98754 19.8146 7.22003 21.6C6.64969 22.3063 6.14431 23.0627 5.71003 23.86C5.60196 24.1159 5.528 24.3848 5.49003 24.66C10.81 21.78 16.15 20.21 22.08 22.66L21.75 23.25C20.96 24.67 20.14 26.07 19.39 27.51C19.16 27.95 18.98 28.04 18.52 27.84C16.6678 26.9607 14.5657 26.759 12.58 27.27C11.3352 27.6076 10.228 28.328 9.41507 29.3294C8.60214 30.3307 8.12461 31.5624 8.05003 32.85C7.96173 35.4383 8.56585 38.0032 9.80003 40.28C9.91003 40.52 10.03 40.75 10.14 40.99C10.19 41 10.17 41 10.15 41.15Z" fill="#a0a0a0"/>
<path d="M50.7801 32.0601C42.7801 32.7601 36.9301 36.5901 33.2101 43.7401L31.8201 42.0001C28.9534 38.3601 26.0834 34.7267 23.2101 31.1001C23.0466 30.9287 22.939 30.7116 22.9015 30.4777C22.864 30.2438 22.8984 30.004 23.0001 29.7901C24.2683 26.1031 26.7781 22.9712 30.1001 20.9301C32.3221 19.6383 34.8227 18.9008 37.3901 18.7801C38.0401 18.7801 38.6901 18.7001 39.3901 18.6801C39.6117 18.6709 39.8322 18.7174 40.0313 18.8152C40.2304 18.913 40.4019 19.0591 40.5301 19.2401C43.8634 23.3601 47.1968 27.4701 50.5301 31.5701C50.5601 31.7101 50.6501 31.8601 50.7801 32.0601Z" fill="#a0a0a0"/>
<path d="M57.8601 39.5299C57.8601 45.0099 57.8601 50.4866 57.8601 55.9599C57.8601 56.4299 57.8101 56.8899 57.7901 57.3599C57.7901 58.0399 57.6901 58.1099 57.0301 57.8899L48.0301 54.8899C44.1801 53.5999 40.3401 52.2999 36.4901 51.0199C36.0601 50.8699 35.8201 50.6999 35.9501 50.1999C37.1501 45.6199 39.3001 41.6999 43.3401 38.9999C45.5967 37.5675 48.174 36.7187 50.8401 36.5299C52.9661 36.373 55.103 36.4568 57.2101 36.7799C57.7801 36.8599 58.0401 37.0799 58.0001 37.6799C57.9601 38.2799 58.0001 38.8999 58.0001 39.4999L57.8601 39.5299Z" fill="#a0a0a0"/>
</g>
<defs>
<clipPath id="clip0_435_2560">
<rect width="58" height="58" fill="white"/>
</clipPath>
</defs>
</svg>
