<svg width="58" height="58" viewBox="0 0 58 58" fill="none" xmlns="http://www.w3.org/2000/svg">
<path d="M25.43 58H23.84C23.63 58 23.41 57.9 23.19 57.88C21.1 57.66 19.02 57.48 16.94 57.22C15.94 57.1 15 56.85 14.04 56.66L14 56.44C14.1607 56.3517 14.3144 56.2514 14.46 56.14C17.8304 53.0414 20.4149 49.1852 22 44.89C23.3249 41.374 23.3249 37.496 22 33.98C21.9 33.73 21.77 33.49 21.61 33.15C21.4 33.37 21.26 33.5 21.14 33.65C18.3512 37.0825 15.345 40.3325 12.14 43.38C9.07644 46.4013 5.65034 49.0313 1.94 51.21C1.7 51.34 1.44 51.43 1.11 51.58C1 51.3 1 51.13 1 51C1 44.4667 1 37.9467 1 31.44C1 30.92 1.18 30.79 1.68 30.82C3.46898 30.9766 5.27153 30.8072 7 30.32C8.20416 29.9591 9.35694 29.4449 10.43 28.79C11.6409 27.9315 12.5255 26.6882 12.9395 25.2628C13.3535 23.8373 13.2726 22.3136 12.71 20.94C11.65 18.73 10.55 16.52 9.71 14.22C8.79323 11.9877 8.47341 9.55525 8.78201 7.16188C9.09061 4.76851 10.017 2.49671 11.47 0.57C11.6362 0.370492 11.8131 0.180208 12 0C12.7869 4.33386 14.7917 8.35399 17.78 11.59C19.72 8.36 21.5 5.2 24.35 2.69C24.55 3.69 24.68 4.55 24.89 5.39C26.53 11.76 30.1 16.97 34.73 21.54C37.2701 24.0477 40.1478 26.1883 43.28 27.9C43.62 28.09 43.75 28.28 43.59 28.67C41.7492 33.3899 39.5007 37.9404 36.87 42.27C36.77 42.43 36.68 42.6 36.59 42.77L36.7 42.91C37.24 42.62 37.8 42.35 38.32 42.03C42.4777 39.3704 45.9869 35.8133 48.59 31.62C49.4 30.38 49.03 30.55 50.43 30.92C52.5539 31.5839 54.7768 31.8748 57 31.78V31.91C56.91 32.13 56.8 32.34 56.73 32.57C55.0582 38.2266 52.1362 43.435 48.18 47.81C43.0622 53.5436 35.9391 57.0944 28.28 57.73L25.43 58Z" fill="white"/>
</svg>
