<svg width="58" height="58" viewBox="0 0 58 58" fill="none" xmlns="http://www.w3.org/2000/svg">
<g clip-path="url(#clip0_435_2569)">
<path d="M47.3499 50.1501H48.5099C50.6899 50.1501 52.8699 50.1501 55.0399 50.1501C55.4407 50.1766 55.8426 50.1172 56.2186 49.9758C56.5946 49.8344 56.936 49.6143 57.2201 49.3303C57.5041 49.0463 57.7242 48.7048 57.8656 48.3288C58.007 47.9528 58.0664 47.5509 58.0399 47.1501C58.0399 46.4201 58.0399 45.6901 58.0399 44.9601C57.9799 41.7401 58.6099 41.9601 55.6399 38.8801C53.4399 36.5801 51.2599 34.2601 49.0699 31.9501C48.3299 31.1801 47.9399 31.1501 47.0699 31.7701C46.5399 32.1401 46.0699 32.5201 45.4999 32.9001C44.4999 33.6501 44.4099 34.1901 45.2799 35.1501C46.3499 36.3301 47.4299 37.5001 48.4699 38.7101C48.5673 38.8246 48.6377 38.9595 48.6758 39.105C48.7139 39.2504 48.7187 39.4026 48.6899 39.5501C48.5699 39.8001 48.1899 39.9501 47.8899 40.0601C47.6545 40.0955 47.4152 40.0955 47.1799 40.0601C43.8899 40.0601 40.5899 40.0601 37.2999 40.0601C36.8693 40.0266 36.4382 40.1183 36.0586 40.3241C35.6789 40.5299 35.3668 40.841 35.1599 41.2201C34.7399 41.9701 34.4399 42.7801 34.0799 43.5601C33.6685 44.5916 33.1874 45.5939 32.6399 46.5601C32.2577 47.1761 31.7247 47.6844 31.0912 48.0369C30.4578 48.3894 29.7448 48.5744 29.0199 48.5744C28.2949 48.5744 27.582 48.3894 26.9485 48.0369C26.3151 47.6844 25.782 47.1761 25.3999 46.5601C24.9824 45.8634 24.6212 45.1344 24.3199 44.3801C23.8999 43.4401 23.5599 42.4601 23.1099 41.5401C22.9136 41.047 22.5631 40.6306 22.1108 40.3531C21.6584 40.0755 21.1284 39.9517 20.5999 40.0001C17.1999 40.0501 13.7999 40.0001 10.3899 40.0001C10.0117 39.9734 9.65625 39.8099 9.38988 39.5401C9.06988 39.1501 9.45988 38.7901 9.72988 38.4801C10.7999 37.3101 11.8799 36.1401 12.9399 34.9501C13.6199 34.2001 13.5599 33.6201 12.7499 33.0101C12.1599 32.5501 11.5399 32.1101 10.9199 31.6801C10.7982 31.5344 10.643 31.4205 10.4675 31.3482C10.292 31.2759 10.1015 31.2473 9.91253 31.265C9.72355 31.2828 9.54171 31.3462 9.38271 31.4499C9.22371 31.5535 9.09232 31.6943 8.99988 31.8601C8.24988 32.6301 7.51988 33.4101 6.77988 34.2001C4.77988 36.2901 2.82988 38.3801 0.869879 40.5001C0.314113 41.0741 0.00229966 41.8411 -0.000121456 42.6401V47.5401C-0.018733 47.9173 0.0642398 48.2926 0.240137 48.6268C0.416035 48.961 0.67841 49.2419 0.999879 49.4401C1.61473 49.7974 2.29464 50.0286 2.99988 50.1201C4.16988 50.2301 5.35988 50.1201 6.54988 50.1201H18.0499C18.8401 50.0268 19.6376 50.2196 20.298 50.6635C20.9583 51.1074 21.4379 51.7732 21.6499 52.5401C21.8699 53.0501 22.1099 53.5401 22.3799 54.0501C23.2287 55.646 24.6301 56.8778 26.3218 57.5147C28.0135 58.1516 29.8793 58.15 31.5699 57.5101C32.6612 57.101 33.6481 56.4546 34.4592 55.6175C35.2703 54.7805 35.8853 53.7738 36.2599 52.6701C37.0899 50.6701 37.9699 50.1201 40.1099 50.1201L47.3499 50.1501ZM21.9999 19.9101C22.0599 20.1501 22.1099 20.3801 22.1799 20.6001C24.1799 26.7068 26.1799 32.8201 28.1799 38.9401C28.2242 39.1259 28.2949 39.3044 28.3899 39.4701C28.4482 39.5858 28.5376 39.683 28.6479 39.751C28.7583 39.8189 28.8853 39.8549 29.0149 39.8549C29.1445 39.8549 29.2715 39.8189 29.3818 39.751C29.4922 39.683 29.5815 39.5858 29.6399 39.4701C29.7213 39.2959 29.7882 39.1153 29.8399 38.9301C31.8399 32.9301 33.8132 26.9001 35.7599 20.8401C35.9802 20.2397 35.9802 19.5805 35.7599 18.9801C34.1599 14.1301 32.5899 9.28011 30.9999 4.43011C30.5999 3.19011 30.2099 1.94011 29.7599 0.720108C29.6922 0.552634 29.5893 0.401666 29.4582 0.277439C29.3271 0.153213 29.1708 0.0586319 28.9999 0.000108086C28.5299 -0.119892 28.3499 0.300108 28.2299 0.690108L28.0999 1.05011L22.1699 19.1601C22.0899 19.4101 21.9999 19.6601 21.9999 19.9101ZM20.7999 31.7201C20.7999 31.5801 20.7199 31.3501 20.6499 31.1301C19.4299 27.4434 18.2132 23.7534 16.9999 20.0601C16.8857 19.7223 16.6733 19.4264 16.3899 19.2101C13.1899 16.8701 9.98988 14.5501 6.75988 12.2101C6.49988 12.0201 6.05988 12.0801 5.75988 12.0201C5.67276 12.3458 5.64232 12.6841 5.66988 13.0201C6.84988 16.7201 8.05321 20.4101 9.27988 24.0901C9.44449 24.5457 9.73595 24.9447 10.1199 25.2401C12.5499 27.0501 15.0199 28.8101 17.4799 30.5901C18.2399 31.1401 18.9999 31.7101 19.7799 32.2401C20.2799 32.6601 20.7499 32.4201 20.7699 31.7201H20.7999ZM37.1199 31.8901C37.2199 32.0301 37.3199 32.3301 37.4799 32.3701C37.7611 32.4264 38.0533 32.3765 38.2999 32.2301C41.5665 29.8901 44.8265 27.5368 48.0799 25.1701C48.3505 24.9606 48.5524 24.6751 48.6599 24.3501C49.8932 20.5901 51.1099 16.8068 52.3099 13.0001C52.3999 12.7101 52.2199 12.3401 52.1699 12.0001C51.8266 11.9996 51.4866 12.0676 51.1699 12.2001C47.9365 14.5001 44.7299 16.8334 41.5499 19.2001C41.2502 19.4367 41.0275 19.7569 40.9099 20.1201C39.6699 23.8201 38.4699 27.5301 37.2699 31.2401C37.2099 31.4201 37.1599 31.6101 37.0899 31.8901H37.1199Z" fill="white"/>
<path d="M47.3499 50.1501H40.1099C37.9699 50.1501 37.1099 50.7401 36.2599 52.7001C35.8854 53.8038 35.2703 54.8105 34.4592 55.6475C33.6482 56.4846 32.6613 57.131 31.5699 57.5401C29.8794 58.18 28.0135 58.1816 26.3219 57.5447C24.6302 56.9078 23.2287 55.676 22.3799 54.0801C22.1099 53.5901 21.8699 53.0801 21.6499 52.5701C21.438 51.8032 20.9584 51.1374 20.298 50.6935C19.6377 50.2496 18.8402 50.0568 18.0499 50.1501H6.60994C5.41994 50.1501 4.22994 50.2301 3.05994 50.1501C2.3547 50.0586 1.67478 49.8274 1.05994 49.4701C0.738468 49.2719 0.476094 48.991 0.300196 48.6568C0.124298 48.3226 0.0413256 47.9473 0.0599371 47.5701V42.6701C0.0464851 41.865 0.347878 41.0864 0.899937 40.5001C2.89994 38.3801 4.83994 36.2901 6.80994 34.2001C7.54994 33.4101 8.27994 32.6301 9.02994 31.8601C9.12539 31.7063 9.25524 31.5767 9.40927 31.4816C9.5633 31.3864 9.73731 31.3283 9.9176 31.3119C10.0979 31.2954 10.2795 31.321 10.4483 31.3866C10.617 31.4522 10.7682 31.5561 10.8899 31.6901C11.5099 32.1201 12.1299 32.5601 12.7199 33.0201C13.5299 33.6301 13.5899 34.2101 12.9099 34.9601C11.8499 36.1501 10.7699 37.3201 9.69994 38.4901C9.42994 38.8001 9.03994 39.1601 9.35994 39.5501C9.6263 39.8199 9.98178 39.9834 10.3599 40.0101C13.7699 40.0101 17.1699 40.0601 20.5699 40.0101C21.0761 39.9731 21.5813 40.0935 22.0164 40.3549C22.4514 40.6163 22.795 41.0058 22.9999 41.4701C23.4499 42.3901 23.7899 43.3701 24.2099 44.3101C24.5113 45.0644 24.8724 45.7934 25.2899 46.4901C25.6721 47.1061 26.2051 47.6144 26.8386 47.9669C27.4721 48.3194 28.185 48.5044 28.9099 48.5044C29.6349 48.5044 30.3478 48.3194 30.9813 47.9669C31.6147 47.6144 32.1478 47.1061 32.5299 46.4901C33.0774 45.5239 33.5585 44.5216 33.9699 43.4901C34.3299 42.7101 34.6299 41.9001 35.0499 41.1501C35.261 40.7663 35.5801 40.4527 35.9675 40.2483C36.355 40.0439 36.7939 39.9576 37.2299 40.0001C40.5199 40.0001 43.8199 40.0001 47.1099 40.0001C47.3453 40.0355 47.5846 40.0355 47.8199 40.0001C48.1199 39.8901 48.4999 39.7401 48.6199 39.4901C48.6488 39.3426 48.644 39.1904 48.6059 39.045C48.5678 38.8996 48.4974 38.7646 48.3999 38.6501C47.3999 37.4401 46.2799 36.2701 45.2099 35.0901C44.3399 34.0901 44.3899 33.5901 45.4299 32.8401C45.9499 32.4601 46.4299 32.0801 46.9999 31.7101C47.8799 31.0901 48.2699 31.1201 48.9999 31.8901C51.1899 34.2001 53.3699 36.5201 55.5699 38.8201C58.5699 41.9101 57.9099 41.6801 57.9699 44.9001C57.9699 45.6301 57.9699 46.3601 57.9699 47.0901C57.9965 47.4909 57.937 47.8928 57.7956 48.2688C57.6543 48.6448 57.4342 48.9863 57.1501 49.2703C56.8661 49.5543 56.5246 49.7744 56.1486 49.9158C55.7726 50.0572 55.3708 50.1166 54.9699 50.0901C52.7999 50.0901 50.6199 50.0901 48.4399 50.0901L47.3499 50.1501Z" fill="white"/>
<path d="M22 19.9099C22.07 19.6599 22.12 19.4099 22.2 19.1599L28.08 1.06988L28.21 0.709883C28.33 0.319883 28.51 -0.100117 28.98 0.0198835C29.1397 0.0787196 29.2859 0.169307 29.4096 0.286179C29.5334 0.403051 29.6321 0.543783 29.7 0.699883C30.15 1.91988 30.54 3.16988 30.94 4.40988C32.53 9.25988 34.1 14.1099 35.7 18.9999C35.9203 19.6003 35.9203 20.2595 35.7 20.8599C33.7 26.8599 31.7267 32.8899 29.78 38.9499C29.7283 39.1351 29.6614 39.3157 29.58 39.4899C29.5216 39.6056 29.4323 39.7028 29.322 39.7707C29.2116 39.8387 29.0846 39.8746 28.955 39.8746C28.8254 39.8746 28.6984 39.8387 28.588 39.7707C28.4777 39.7028 28.3884 39.6056 28.33 39.4899C28.2351 39.3242 28.1643 39.1457 28.12 38.9599C26.12 32.8532 24.12 26.7399 22.12 20.6199C22.08 20.3799 22 20.1499 22 19.9099Z" fill="white"/>
<path d="M20.7699 31.7201C20.7699 32.4201 20.2799 32.6601 19.7699 32.2901C18.9899 31.7601 18.2299 31.1901 17.4699 30.6401C14.9999 28.8601 12.4999 27.1001 10.0699 25.2901C9.68601 24.9947 9.39456 24.5957 9.22995 24.1401C8.00328 20.4601 6.79995 16.7701 5.61995 13.0701C5.59239 12.734 5.62283 12.3958 5.70995 12.0701C6.05995 12.1301 6.49995 12.0701 6.70995 12.2601C9.93995 14.5501 13.1399 16.8701 16.3399 19.2601C16.6234 19.4763 16.8358 19.7723 16.9499 20.1101C18.1699 23.8034 19.3766 27.4934 20.5699 31.1801C20.6899 31.3501 20.7399 31.5801 20.7699 31.7201Z" fill="white"/>
<path d="M37.0901 31.8901C37.1601 31.6101 37.2101 31.4201 37.2701 31.2401C38.4701 27.5301 39.6701 23.8201 40.9101 20.1201C41.0277 19.7568 41.2505 19.4367 41.5501 19.2001C44.7434 16.8601 47.9501 14.5434 51.1701 12.2501C51.4868 12.1175 51.8268 12.0495 52.1701 12.0501C52.1701 12.3801 52.4001 12.7501 52.3101 13.0501C51.1101 16.8301 49.8834 20.6001 48.6301 24.3601C48.5226 24.685 48.3207 24.9705 48.0501 25.1801C44.8034 27.5467 41.5434 29.9001 38.2701 32.2401C38.0235 32.3865 37.7313 32.4364 37.4501 32.3801C37.2901 32.3301 37.1901 32.0001 37.0901 31.8901Z" fill="white"/>
</g>
<defs>
<clipPath id="clip0_435_2569">
<rect width="58" height="58" fill="white"/>
</clipPath>
</defs>
</svg>
