<svg width="58" height="58" viewBox="0 0 58 58" fill="none" xmlns="http://www.w3.org/2000/svg">
<g clip-path="url(#clip0_435_2553)">
<path d="M41.8699 10.69C41.8699 10.94 41.8699 11.14 41.8699 11.33C41.8699 11.92 41.8699 12.52 41.8099 13.11C41.4999 15.74 41.1099 18.3601 40.8099 21C40.4644 23.2324 41.0142 25.511 42.3399 27.34C42.7675 27.7443 43.018 28.3013 43.0367 28.8895C43.0554 29.4776 42.8409 30.0494 42.4399 30.48C41.7594 31.5444 41.0146 32.5663 40.2099 33.5401C39.8851 33.9079 39.475 34.1904 39.0156 34.3629C38.5562 34.5354 38.0615 34.5925 37.5749 34.5294C37.0883 34.4662 36.6246 34.2846 36.2245 34.0006C35.8243 33.7165 35.5 33.3386 35.2799 32.9001C34.8826 32.2103 34.5894 31.4655 34.4099 30.6901C33.8603 27.9225 33.6488 25.0985 33.7799 22.2801C33.7799 20.67 33.9099 19.0601 33.8699 17.4501C33.7861 15.1948 32.8582 13.0533 31.2699 11.45C29.0952 9.24877 26.5496 7.4479 23.7499 6.13005C18.8403 3.72443 13.7436 1.72119 8.50989 0.140049C7.70989 -0.109951 7.66989 -0.079951 7.66989 0.740049C7.59475 4.94639 7.76504 9.15354 8.17989 13.34C8.40518 15.9268 8.93553 18.4778 9.75989 20.9401C10.6252 23.602 12.5091 25.8131 14.9999 27.09C15.7399 27.48 16.4699 27.9 17.1999 28.31C19.7412 29.6325 22.1261 31.2359 24.3099 33.09C25.4954 34.0729 26.4195 35.3337 26.9999 36.76C27.7799 38.85 27.1299 40.34 25.0699 41.21C23.5133 41.7976 21.8511 42.0531 20.1899 41.96C19.6599 41.96 19.4099 41.8 19.3699 41.19C19.3244 40.1132 19.044 39.0593 18.5482 38.1023C18.0524 37.1453 17.3533 36.3083 16.4999 35.6501C15.3941 34.8011 14.1488 34.1514 12.8199 33.73C9.70989 32.73 6.49989 31.9001 3.55989 30.3601C3.10989 30.1201 3.02989 30.3601 3.01989 30.7701C2.89577 33.4249 3.23414 36.0811 4.01989 38.62C5.87989 44.34 9.80989 47.62 15.7799 48.41C17.582 48.6234 19.3713 48.9338 21.1399 49.34C24.7054 50.4168 28.1555 51.8437 31.4399 53.6C34.5694 55.2542 37.8686 56.5652 41.2799 57.51C43.2226 58.0359 45.2521 58.1608 47.2446 57.8771C49.2371 57.5934 51.1511 56.9071 52.8699 55.8601C53.5294 55.4818 54.0751 54.9333 54.4499 54.2718C54.8246 53.6103 55.0146 52.8602 54.9999 52.1C54.9216 50.0099 54.4923 47.9478 53.7299 46C52.6499 42.7001 51.3599 39.44 50.9999 35.93C50.6741 33.7512 51.023 31.5248 51.9999 29.55C53.0395 27.6501 53.3927 25.4499 52.9999 23.32C51.9999 17 48.3299 13 42.3999 10.82C42.2599 10.77 42.0999 10.75 41.8699 10.69Z" fill="white"/>
<path d="M41.8699 10.69C42.0999 10.75 42.2599 10.77 42.3999 10.82C48.3299 13 51.9999 17 52.9999 23.32C53.3927 25.4499 53.0395 27.6501 51.9999 29.55C51.023 31.5248 50.6741 33.7512 50.9999 35.93C51.3499 39.44 52.6399 42.7001 53.7199 46.0201C54.4835 47.9609 54.9162 50.0161 54.9999 52.1C55.0156 52.8592 54.8271 53.6086 54.4542 54.27C54.0813 54.9314 53.5376 55.4806 52.8799 55.8601C51.1611 56.9071 49.2471 57.5934 47.2546 57.8771C45.2621 58.1608 43.2326 58.0359 41.2899 57.51C37.8786 56.5652 34.5794 55.2542 31.4499 53.6C28.1655 51.8437 24.7154 50.4168 21.1499 49.34C19.3813 48.9338 17.592 48.6234 15.7899 48.41C9.7899 47.59 5.8899 44.34 4.0299 38.62C3.24415 36.0811 2.90578 33.4249 3.0299 30.7701C3.0299 30.4 3.1199 30.1201 3.5699 30.3601C6.5099 31.9001 9.7199 32.69 12.8299 33.73C14.1588 34.1514 15.4041 34.8011 16.5099 35.6501C17.3633 36.3083 18.0625 37.1453 18.5582 38.1023C19.054 39.0593 19.3345 40.1132 19.3799 41.19C19.3799 41.8 19.6699 41.9501 20.1999 41.96C21.8611 42.0531 23.5233 41.7976 25.0799 41.21C27.1399 40.34 27.7899 38.85 27.0099 36.76C26.4267 35.3326 25.4991 34.0717 24.3099 33.09C22.1261 31.2359 19.7412 29.6325 17.1999 28.31C16.4699 27.9 15.7399 27.48 14.9999 27.09C12.5167 25.809 10.6404 23.5984 9.7799 20.9401C8.95554 18.4778 8.42519 15.9268 8.1999 13.34C7.77837 9.15393 7.6014 4.94678 7.6699 0.740049C7.6699 -0.079951 7.6699 -0.109951 8.5099 0.140049C13.737 1.72544 18.8271 3.73202 23.7299 6.14005C26.5296 7.4579 29.0752 9.25877 31.2499 11.46C32.8382 13.0633 33.7662 15.2048 33.8499 17.46C33.8499 19.07 33.7799 20.68 33.7599 22.2901C33.6288 25.1085 33.8403 27.9325 34.3899 30.7001C34.5695 31.4755 34.8626 32.2203 35.2599 32.91C35.48 33.3486 35.8044 33.7265 36.2045 34.0106C36.6046 34.2946 37.0683 34.4762 37.5549 34.5394C38.0415 34.6025 38.5362 34.5454 38.9956 34.3729C39.455 34.2004 39.8651 33.9179 40.1899 33.55C40.9947 32.5763 41.7394 31.5544 42.4199 30.49C42.8209 30.0594 43.0354 29.4876 43.0167 28.8995C42.998 28.3113 42.7475 27.7543 42.3199 27.35C40.9916 25.5183 40.4417 23.2357 40.7899 21C41.0599 18.3601 41.4499 15.74 41.7899 13.11C41.8599 12.52 41.7899 11.92 41.8499 11.33C41.8299 11.14 41.8499 10.94 41.8699 10.69Z" fill="#a0a0a0"/>
</g>
<defs>
<clipPath id="clip0_435_2553">
<rect width="58" height="58" fill="white"/>
</clipPath>
</defs>
</svg>
