<svg width="58" height="58" viewBox="0 0 58 58" fill="none" xmlns="http://www.w3.org/2000/svg">
<g clip-path="url(#clip0_435_2551)">
<path d="M14.44 8.78C14.38 7.94 13.92 7.55 13.09 7.71C12.1475 7.90886 11.2745 8.35397 10.56 9C9.56079 9.90317 8.72516 10.9722 8.09002 12.16C6.43948 15.0908 5.3317 18.2955 4.82002 21.62C4.31641 25.3218 2.78905 28.8095 0.410018 31.69C0.258212 31.858 0.144289 32.0567 0.0759654 32.2725C0.00764227 32.4884 -0.0134844 32.7164 0.0140167 32.9412C0.0415178 33.166 0.117004 33.3822 0.235362 33.5752C0.35372 33.7682 0.512183 33.9336 0.700018 34.06C1.1694 34.4089 1.68852 34.6853 2.24002 34.88C3.86002 35.48 5.49002 36.04 7.11002 36.62C8.27193 36.9916 9.33004 37.6315 10.1987 38.488C11.0673 39.3445 11.7221 40.3934 12.11 41.55C12.7 43.22 13.29 44.9 13.92 46.55C14.1153 47.1255 14.3842 47.6734 14.72 48.18C14.8712 48.4261 15.083 48.6294 15.3351 48.7704C15.5871 48.9114 15.8712 48.9854 16.16 48.9854C16.4489 48.9854 16.7329 48.9114 16.985 48.7704C17.2371 48.6294 17.4488 48.4261 17.6 48.18C17.9098 47.7439 18.1556 47.2657 18.33 46.76C19.03 44.9 19.67 43.01 20.33 41.16C20.6825 40.1788 21.247 39.2875 21.9833 38.5494C22.7196 37.8113 23.6097 37.2448 24.59 36.89C26.43 36.18 28.3 35.53 30.14 34.83C30.61 34.6653 31.0519 34.4292 31.45 34.13C31.6789 33.9752 31.8664 33.7666 31.996 33.5226C32.1256 33.2785 32.1934 33.0063 32.1934 32.73C32.1934 32.4536 32.1256 32.1815 31.996 31.9374C31.8664 31.6934 31.6789 31.4848 31.45 31.33C30.9945 30.9848 30.4886 30.7116 29.95 30.52C27.5873 29.6624 25.6603 27.9043 24.59 25.63C23.4051 23.141 22.9475 20.3678 23.27 17.63C23.5909 13.8934 25.0144 10.3363 27.36 7.41C27.91 6.73 28.56 6.13 29.16 5.5C29.44 5.21 29.76 4.86 29.55 4.5C29.3627 4.20918 29.0679 4.00428 28.73 3.93C28.1699 3.84512 27.6002 3.84512 27.04 3.93C24.2647 4.41875 21.7623 5.90103 20 8.1C18.3058 10.2236 17.0698 12.6751 16.37 15.3C15.67 17.58 15.03 19.87 14.37 22.16C14.0691 23.2563 13.4198 24.225 12.52 24.92C12.2644 25.1974 11.9313 25.3916 11.5639 25.4772C11.1965 25.5628 10.8119 25.5359 10.46 25.4C10.1131 25.2041 9.83257 24.9091 9.6544 24.5528C9.47624 24.1965 9.40855 23.7951 9.46002 23.4C9.43778 22.1408 9.64098 20.8877 10.06 19.7C11.1439 16.4503 12.4435 13.2766 13.95 10.2C14.13 9.77 14.26 9.27 14.44 8.78ZM31.92 56C32.58 55.92 33.86 55.84 35.12 55.6C38.9381 54.8648 42.4886 53.1172 45.4 50.54C47.04 49.12 48.55 47.54 50.17 46.07C52.0137 44.2456 54.2078 42.8135 56.62 41.86C56.9311 41.7303 57.2132 41.5399 57.45 41.3C57.5823 41.1955 57.6903 41.0635 57.7663 40.913C57.8424 40.7626 57.8848 40.5974 57.8905 40.4289C57.8962 40.2604 57.8651 40.0927 57.7994 39.9375C57.7337 39.7822 57.6349 39.6432 57.51 39.53C57.1533 39.1845 56.7319 38.9126 56.27 38.73C54.95 38.2 53.61 37.73 52.27 37.25C51.405 36.9494 50.622 36.4512 49.9832 35.795C49.3443 35.1389 48.8673 34.3428 48.59 33.47C48.15 32.18 47.71 30.89 47.24 29.61C47.1109 29.2516 46.9289 28.9145 46.7 28.61C46.5957 28.4382 46.4489 28.2962 46.2737 28.1977C46.0986 28.0991 45.901 28.0474 45.7 28.0474C45.4991 28.0474 45.3015 28.0991 45.1263 28.1977C44.9512 28.2962 44.8043 28.4382 44.7 28.61C44.4328 29.0096 44.2209 29.4436 44.07 29.9C43.55 31.28 43.07 32.67 42.57 34.04C42.3135 34.7511 41.9051 35.3977 41.3732 35.9349C40.8412 36.472 40.1986 36.8866 39.49 37.15C38.08 37.7 36.65 38.15 35.24 38.73C34.8227 38.8803 34.4287 39.089 34.07 39.35C33.905 39.4595 33.7696 39.6081 33.676 39.7825C33.5823 39.957 33.5333 40.152 33.5333 40.35C33.5333 40.548 33.5823 40.743 33.676 40.9175C33.7696 41.0919 33.905 41.2405 34.07 41.35C34.3806 41.5885 34.7158 41.793 35.07 41.96C35.5369 42.1809 35.991 42.4279 36.43 42.7C37.2648 43.2493 37.8481 44.1068 38.0524 45.085C38.2566 46.0632 38.0652 47.0825 37.52 47.92C36.6701 49.3737 35.2784 50.431 33.65 50.86C31.0045 51.5107 28.2519 51.5993 25.57 51.12C24.42 50.98 23.29 50.76 22.14 50.64C21.7639 50.5859 21.3812 50.6767 21.0694 50.8938C20.7575 51.111 20.5398 51.4384 20.46 51.81C20.3633 52.1778 20.4008 52.568 20.5657 52.9107C20.7306 53.2534 21.0122 53.5261 21.36 53.68C24.6634 55.2297 28.2712 56.0224 31.92 56ZM58 29.72C57.93 28.72 57.87 27.72 57.76 26.62C57.4675 23.428 56.3849 20.3591 54.61 17.69C52.5928 14.8283 49.9088 12.5012 46.79 10.91C43.6316 9.32227 41.2016 6.58457 40 3.26C39.81 2.63 39.48 2 38.74 2C38 2 37.61 2.62 37.38 3.26C37.05 4.15 36.71 5.04 36.47 5.96C36.2052 7.19529 35.5945 8.32978 34.7091 9.23105C33.8238 10.1323 32.7004 10.7632 31.47 11.05C30.6179 11.3031 29.7829 11.6104 28.97 11.97C28.7104 12.0491 28.4829 12.2092 28.321 12.427C28.159 12.6447 28.0711 12.9086 28.07 13.18C28.0827 13.4507 28.1748 13.7118 28.3348 13.9305C28.4949 14.1493 28.7158 14.316 28.97 14.41C29.2105 14.5245 29.4576 14.6247 29.71 14.71C30.58 15.03 31.44 15.37 32.32 15.65C33.2901 15.9277 34.1702 16.4554 34.8722 17.1802C35.5742 17.905 36.0734 18.8016 36.32 19.78C36.45 20.21 36.61 20.62 36.76 21.05C37.04 21.86 37.27 22.69 37.6 23.48C37.93 24.27 38.6 24.48 39.29 23.85C39.6989 23.4505 40.083 23.0264 40.44 22.58C40.9876 21.862 41.6788 21.266 42.4696 20.83C43.2603 20.394 44.1332 20.1275 45.0326 20.0475C45.9321 19.9675 46.8383 20.0758 47.6936 20.3655C48.5488 20.6552 49.3343 21.1199 50 21.73C51.2854 22.7964 52.3315 24.1219 53.07 25.62C53.9421 27.3326 54.5394 29.1718 54.84 31.07C54.8527 31.3026 54.9116 31.5304 55.0135 31.74C55.1153 31.9495 55.258 32.1366 55.4331 32.2903C55.6082 32.444 55.8122 32.5612 56.0332 32.6349C56.2542 32.7087 56.4877 32.7377 56.72 32.72C56.8684 32.7227 57.0159 32.696 57.154 32.6417C57.2921 32.5873 57.4182 32.5063 57.525 32.4032C57.6318 32.3001 57.7172 32.177 57.7764 32.0409C57.8356 31.9048 57.8674 31.7584 57.87 31.61C57.92 31 58 30.43 58 29.72Z" fill="white"/>
<path d="M14.44 8.78004C14.26 9.27004 14.13 9.78004 13.91 10.23C12.3967 13.3061 11.0904 16.4799 10 19.73C9.58098 20.9177 9.37778 22.1708 9.40002 23.43C9.34855 23.8251 9.41624 24.2265 9.5944 24.5828C9.77257 24.9392 10.0531 25.2342 10.4 25.43C10.7519 25.5659 11.1365 25.5928 11.5039 25.5072C11.8713 25.4216 12.2044 25.2275 12.46 24.95C13.3598 24.2551 14.0091 23.2864 14.31 22.19C15 19.9 15.64 17.61 16.31 15.33C17.024 12.6897 18.2807 10.2273 20 8.10004C21.7391 5.87947 24.2276 4.36858 27 3.85004C27.5602 3.76516 28.1299 3.76516 28.69 3.85004C29.0279 3.92431 29.3227 4.12922 29.51 4.42004C29.72 4.81004 29.4 5.16004 29.12 5.42004C28.52 6.05004 27.87 6.65004 27.32 7.33004C24.9647 10.3038 23.5572 13.9167 23.28 17.7C22.9575 20.4378 23.4151 23.211 24.6 25.7C25.688 27.967 27.6296 29.7109 30 30.55C30.5386 30.7416 31.0445 31.0148 31.5 31.36C31.7289 31.5148 31.9164 31.7234 32.046 31.9675C32.1756 32.2116 32.2434 32.4837 32.2434 32.76C32.2434 33.0364 32.1756 33.3085 32.046 33.5526C31.9164 33.7967 31.7289 34.0052 31.5 34.16C31.1019 34.4592 30.66 34.6953 30.19 34.86C28.35 35.56 26.48 36.21 24.64 36.92C23.6597 37.2748 22.7696 37.8414 22.0333 38.5794C21.297 39.3175 20.7325 40.2089 20.38 41.19C19.67 43.04 19.03 44.93 18.38 46.79C18.2056 47.2958 17.9598 47.7739 17.65 48.21C17.4988 48.4562 17.2871 48.6594 17.035 48.8004C16.7829 48.9414 16.4989 49.0154 16.21 49.0154C15.9212 49.0154 15.6371 48.9414 15.3851 48.8004C15.133 48.6594 14.9212 48.4562 14.77 48.21C14.4342 47.7035 14.1653 47.1556 13.97 46.58C13.34 44.92 12.75 43.24 12.16 41.58C11.7771 40.4289 11.1299 39.3834 10.2703 38.5273C9.41078 37.6712 8.36269 37.0283 7.21002 36.65C5.49002 36 3.86002 35.48 2.24002 34.88C1.68852 34.6854 1.1694 34.4089 0.700018 34.06C0.512183 33.9336 0.35372 33.7683 0.235362 33.5752C0.117004 33.3822 0.0415178 33.166 0.0140167 32.9412C-0.0134844 32.7165 0.00764227 32.4884 0.0759654 32.2726C0.144289 32.0567 0.258212 31.858 0.410018 31.69C2.77723 28.8291 4.3039 25.3673 4.82002 21.69C5.3317 18.3656 6.43948 15.1608 8.09002 12.23C8.71834 11.0173 9.55432 9.92414 10.56 9.00004C11.2723 8.34676 12.1454 7.89465 13.09 7.69004C13.92 7.55004 14.38 7.94004 14.44 8.78004Z" fill="white"/>
<path d="M31.92 56C28.2524 56.0064 24.63 55.1897 21.32 53.61C20.9722 53.4561 20.6906 53.1833 20.5257 52.8407C20.3608 52.498 20.3233 52.1078 20.42 51.74C20.4998 51.3684 20.7175 51.041 21.0294 50.8238C21.3412 50.6066 21.7239 50.5159 22.1 50.57C23.25 50.69 24.38 50.91 25.53 51.05C28.2119 51.5293 30.9645 51.4407 33.61 50.79C35.2384 50.3609 36.6301 49.3036 37.48 47.85C38.0252 47.0125 38.2166 45.9932 38.0124 45.015C37.8081 44.0368 37.2248 43.1793 36.39 42.63C35.9412 42.3569 35.4771 42.1098 35 41.89C34.6458 41.723 34.3106 41.5185 34 41.28C33.835 41.1705 33.6996 41.0219 33.606 40.8474C33.5124 40.6729 33.4633 40.478 33.4633 40.28C33.4633 40.0819 33.5124 39.887 33.606 39.7125C33.6996 39.538 33.835 39.3894 34 39.28C34.3587 39.019 34.7527 38.8102 35.17 38.66C36.58 38.12 38.01 37.66 39.42 37.08C40.1404 36.8297 40.7968 36.424 41.3429 35.8918C41.889 35.3595 42.3114 34.7136 42.58 34C43.1 32.63 43.58 31.24 44.08 29.86C44.2309 29.4035 44.4428 28.9696 44.71 28.57C44.8143 28.3982 44.9612 28.2562 45.1363 28.1576C45.3115 28.0591 45.509 28.0073 45.71 28.0073C45.911 28.0073 46.1086 28.0591 46.2837 28.1576C46.4589 28.2562 46.6057 28.3982 46.71 28.57C46.9389 28.8745 47.1209 29.2116 47.25 29.57C47.72 30.85 48.16 32.14 48.6 33.43C48.8773 34.3027 49.3543 35.0988 49.9932 35.755C50.632 36.4112 51.415 36.9093 52.28 37.21C53.62 37.7 54.96 38.21 56.28 38.69C56.7419 38.8726 57.1633 39.1444 57.52 39.49C57.6449 39.6031 57.7437 39.7422 57.8094 39.8974C57.8751 40.0527 57.9062 40.2204 57.9005 40.3889C57.8948 40.5573 57.8524 40.7226 57.7763 40.873C57.7003 41.0234 57.5923 41.1555 57.46 41.26C57.2232 41.4998 56.9411 41.6902 56.63 41.82C54.2178 42.7734 52.0238 44.2056 50.18 46.03C48.56 47.49 47.05 49.03 45.41 50.5C42.5003 53.0932 38.9458 54.8549 35.12 55.6C33.86 55.84 32.58 55.92 31.92 56Z" fill="white"/>
<path d="M58 29.72C58 30.43 57.92 31.02 57.87 31.61C57.8674 31.7584 57.8356 31.9048 57.7764 32.0409C57.7172 32.177 57.6318 32.3001 57.525 32.4032C57.4182 32.5063 57.2921 32.5873 57.154 32.6417C57.0159 32.696 56.8684 32.7227 56.72 32.72C56.4877 32.7377 56.2542 32.7087 56.0332 32.6349C55.8122 32.5612 55.6082 32.444 55.4331 32.2903C55.258 32.1366 55.1153 31.9495 55.0135 31.74C54.9116 31.5304 54.8527 31.3026 54.84 31.07C54.5394 29.1718 53.9421 27.3326 53.07 25.62C52.3315 24.1219 51.2854 22.7964 50 21.73C49.3335 21.1116 48.5447 20.6398 47.6845 20.3453C46.8243 20.0508 45.9119 19.94 45.0062 20.0201C44.1005 20.1002 43.2217 20.3694 42.4266 20.8104C41.6314 21.2513 40.9376 21.8542 40.39 22.58C40.033 23.0264 39.6489 23.4505 39.24 23.85C38.53 24.48 37.92 24.36 37.55 23.48C37.18 22.6 36.99 21.86 36.71 21.05C36.56 20.62 36.4 20.21 36.27 19.78C36.0234 18.8016 35.5242 17.905 34.8222 17.1802C34.1202 16.4554 33.2401 15.9277 32.27 15.65C31.39 15.37 30.53 15.03 29.66 14.71C29.4076 14.6247 29.1605 14.5245 28.92 14.41C28.6658 14.316 28.4449 14.1493 28.2848 13.9305C28.1248 13.7118 28.0327 13.4507 28.02 13.18C28.0211 12.9086 28.109 12.6447 28.271 12.427C28.433 12.2092 28.6604 12.0491 28.92 11.97C29.7329 11.6104 30.5679 11.3031 31.42 11.05C32.6504 10.7632 33.7738 10.1323 34.6591 9.23105C35.5445 8.32978 36.1552 7.19529 36.42 5.96C36.66 5.04 37 4.15 37.33 3.26C37.61 2.62 38 2 38.74 2C39.48 2 39.81 2.63 40.03 3.26C41.2244 6.57931 43.6429 9.31623 46.79 10.91C49.9088 12.5012 52.5928 14.8283 54.61 17.69C56.3849 20.3591 57.4675 23.428 57.76 26.62C57.87 27.69 57.93 28.76 58 29.72Z" fill="white"/>
</g>
<defs>
<clipPath id="clip0_435_2551">
<rect width="58" height="58" fill="white"/>
</clipPath>
</defs>
</svg>
