<?xml version="1.0" encoding="utf-8"?>
<!-- Generator: Adobe Illustrator 25.2.0, SVG Export Plug-In . SVG Version: 6.00 Build 0)  -->
<svg version="1.1" id="Layer_1" xmlns="http://www.w3.org/2000/svg" xmlns:xlink="http://www.w3.org/1999/xlink" x="0px" y="0px"
	 viewBox="0 0 58 58" style="enable-background:new 0 0 58 58;" xml:space="preserve">
<g fill="white">
	<path d="M22.4,48.5c-2,0.9-3.7,1.5-5.2,1.6c-5.8,0.2-7.5-2.4-7.9-3.1c-1,0.7-2.2,1.1-3.5,1.1c-3.2,0-5.9-2.6-5.9-5.7
		c0-2.3,1.4-4.2,3.4-5.2C3,36.5,0.2,30.5,8.1,24.6C16.6,18.2,49.6,6,49.6,6L58,20.1L44.9,32.3c0,0-0.1,0.1-0.2,0.2
		c-3.4-5.5-11.3-7-17.8-3.3c-6.6,3.8-9.2,11.5-5.9,17.3C21.4,47.3,21.9,47.9,22.4,48.5z M44.4,41.3c0,5.9-4.8,10.6-10.6,10.6
		c-5.9,0-10.6-4.8-10.6-10.6c0-5.9,4.8-10.6,10.6-10.6C39.6,30.7,44.4,35.5,44.4,41.3z M36.5,41.3c0-1.5-1.2-2.8-2.8-2.8
		c-1.5,0-2.8,1.2-2.8,2.8c0,1.5,1.2,2.8,2.8,2.8C35.3,44.1,36.5,42.9,36.5,41.3z"/>
</g>
</svg>
