<?xml version="1.0" encoding="utf-8"?>
<!-- Generator: Adobe Illustrator 25.2.0, SVG Export Plug-In . SVG Version: 6.00 Build 0)  -->
<svg version="1.1" id="Layer_1" xmlns="http://www.w3.org/2000/svg" xmlns:xlink="http://www.w3.org/1999/xlink" x="0px" y="0px"
	 viewBox="0 0 58 58" style="enable-background:new 0 0 58 58;" xml:space="preserve">
<g fill="#a0a0a0">
	<path d="M54.6,26.6c-0.5-0.9-1.2-1.6-2-2.2c-1.2-1.3-2.4-2.6-3.5-3.9c-1.5-1.9-2.4-4-3.3-6.1c-0.1-0.2-0.3-0.4-0.4-0.6
		c-0.7-1.1-1.3-2.3-1.9-3.5c-0.9-1-1.8-2.1-2.7-3.2c1.2-1.6,2.6-3.4,4.5-5.9c0,0,0-0.1-0.1-0.1C45.1,0.9,45,0.7,45,0.5
		c0,0,0-0.1,0-0.1c0,0,0,0,0,0c0-0.1-0.1-0.2-0.1-0.3c-1.3-0.1-2.2-0.2-3,0.1c-3.6,1.1-7.2,2.2-10.8,3.4C29.6,3.7,28.3,3.8,27,4
		c-1.7,0.2-3.3,0.4-4.9,0.9v0C21.8,5,21.5,5,21.2,5.1c-0.2,0.1-0.5,0.1-0.7,0.2c-0.1,0-0.2,0-0.3,0h0c-1.4,0.3-2.7,0.7-4.1,1.2
		c-0.8,0.1-1.6,0.4-2.2,0.9c-0.5,0.2-1,0.4-1.5,0.7c-0.1,0-0.1,0.1-0.2,0.2c-1.3,0.6-2.5,1.3-3.6,2.2c-0.2,0.1-0.4,0.3-0.5,0.5
		c-0.6,0.7-1.2,1.4-1.7,2.2c0,0,0,0.1,0,0.1c0,0,0,0,0,0c0,0,0,0,0,0c0,0.1,0,0.1,0.1,0.2c0,0,0,0,0.1,0c0.4-0.1,0.9-0.1,1.3-0.2
		c0.2,0,0.3-0.1,0.5-0.1c0.8-0.2,1.7-0.2,2.5-0.3c0.3,0,0.6,0,0.8-0.1c0.1,0,0.2,0,0.3,0c0,0.1-0.1,0.2-0.2,0.2c-0.1,0-0.1,0-0.1,0
		c-3.3,2-6.1,4.6-8.4,7.6c-0.1,0-0.1,0.1-0.2,0.1C3,20.8,2.9,20.9,2.9,21c0,0,0,0.1-0.1,0.1c-0.1,0.1-0.2,0.3-0.3,0.4
		c-0.2,0.2,0.1,0.5,0.4,0.5c1.3-0.4,2.6-0.7,3.8-1c0.2,0,0.4-0.1,0.6-0.1c-0.4,0.8-0.7,1.7-1,2.6c-0.1,0.3-0.3,0.7-0.4,1
		c-0.4,0.7-0.7,1.5-0.9,2.3c-0.4,1.2-0.7,2.3-1,3.5c-0.1,0.6-0.2,1.3-0.2,1.9c-0.2,0.8-0.3,1.7-0.4,2.5c0,0,0,0.1,0,0.1c0,0,0,0,0,0
		c0,0.2,0,0.5,0,0.7c0,0.2,0.3,0.4,0.5,0.3c0.5-0.4,1-0.8,1.5-1.2c0.1-0.1,0.2-0.1,0.3-0.2c0,0.3,0,0.5-0.1,0.8
		c0,1.3,0.1,2.6,0.2,3.7c0.2,2.6,0.8,5.3,2.5,7.4c0.1,0,0.1,0,0.1,0c2,0.7,3.9,1.6,5.8,2.5l0,0c0,0,0,0,0,0c0.7,0.3,1.4,0.6,2,0.9
		c-0.2-0.3-0.3-0.6-0.5-0.8c-1.1-2.2-2.2-4.8-2.1-7.4c-0.8-4.7-0.7-9.5,0.4-14.1c0.6-2.6,1.4-5.1,2.4-7.5c0.7-1.7,1.7-3.5,3.2-4.7
		c0-0.1,0.1-0.1,0.1-0.2c0.3-0.5,0.7-0.9,1.1-1.4c0.6-0.3,1.2-0.7,1.8-1c-0.2,0.2-0.3,0.5-0.5,0.7c-0.7,1-1.3,2-1.8,3.1
		c-0.4,0.7-0.8,1.4-1.2,2.1c-0.1,0.3-0.2,0.6-0.3,0.9c-0.1,0.3-0.2,0.5-0.4,0.8c0,0.1,0,0.2-0.1,0.3c-1.4,3.3-2.4,6.8-2.7,10.3
		c-0.2,1.6-0.2,3.2-0.1,4.8c0.1,1.1,0.3,2.3,0.6,3.4c2.1,7.1,8.2,12.7,14.5,16.3c0.5,0.1,1.1,0.2,1.6,0.4c2.9,0.6,5.7,1.2,8.3,2.3
		c0.6-3,1-6.1,0.8-9.2c-0.2-2.8-0.9-5.3-2.4-7.7c-0.6-1-1.2-2-1.9-3c-0.7-1-1.5-2.1-2.2-3.1c-1.1-1.6-1.7-3.6-2.5-5.5
		c2-0.2,4.1-0.9,5.9-0.5c1.1,0.3,2.3,0.8,3.3,1.5c0.1,0,0.2,0.1,0.3,0.1c1.1,0.6,2.2,1,3.4,1.5c1,0.4,2,0.9,2.7,1.8
		c0.6,0.8,1.3,1.3,2.4,1.4c1.8,0.2,4.3-0.1,4.7-2.3C55.7,31,55.6,28.4,54.6,26.6z"/>
</g>
</svg>
