<?xml version="1.0" encoding="utf-8"?>
<!-- Generator: Adobe Illustrator 26.0.2, SVG Export Plug-In . SVG Version: 6.00 Build 0)  -->
<svg version="1.1" id="Layer_1" xmlns="http://www.w3.org/2000/svg" xmlns:xlink="http://www.w3.org/1999/xlink" x="0px" y="0px"
	 viewBox="0 0 144 144" style="enable-background:new 0 0 144 144;" xml:space="preserve">
<g fill="#a0a0a0">
	<g>
		<path d="M107,83.4c-9.1,2.3-17.3,1.4-25.1-2.8c7.6-8.1,15.8-16.1,19.8-17.2c11.3-2.9,16.8,0.6,24.3,9.2c0,0-6.7-35.8-36.5-45.1
			c0,0,6,14.5-0.4,24.5c-5.7,9-11.4,16.1-17.2,21.4c-5.8-5.3-11.5-12.5-17.2-21.4c-6.4-10-0.4-24.5-0.4-24.5
			C24.7,36.9,18,72.7,18,72.7c7.5-8.6,13.1-12.1,24.3-9.2c4,1,24.6,25.2,31.5,32.1c-10.2,0.2-17.6-7.8-22.4-11.3
			C46.8,85,42,84.7,37,83.4l35,33.1L107,83.4z"/>
	</g>
</g>
</svg>
