<svg width="58" height="58" viewBox="0 0 58 58" fill="none" xmlns="http://www.w3.org/2000/svg">
<g clip-path="url(#clip0_435_2558)">
<path d="M45.97 58C45.97 57.74 45.97 57.6 45.88 57.47C44.6399 53.62 43.42 49.75 42.15 45.91C41.8919 45.1172 41.4517 44.3959 40.8648 43.8037C40.2779 43.2116 39.5604 42.7651 38.77 42.5C37.7099 42.1 36.62 41.76 35.56 41.37C34.9235 41.1506 34.3727 40.7355 33.9865 40.184C33.6004 39.6326 33.3985 38.9731 33.41 38.3C33.41 37.82 33.41 37.3 33.41 36.86C33.3978 36.6945 33.4339 36.529 33.5137 36.3835C33.5936 36.238 33.7138 36.1187 33.86 36.04C34.599 35.5363 35.2888 34.9637 35.9199 34.33C37.0991 33.0111 37.8439 31.3612 38.0533 29.6045C38.2626 27.8477 37.9263 26.0691 37.09 24.51C36.258 22.9366 34.9541 21.6632 33.3615 20.8687C31.7688 20.0742 29.9674 19.7984 28.2099 20.08C26.5346 20.2849 24.9633 21.0019 23.7105 22.133C22.4577 23.2641 21.5844 24.7542 21.2099 26.4C20.7018 28.0309 20.7243 29.781 21.2742 31.3984C21.8241 33.0157 22.873 34.4168 24.2699 35.4C24.7358 35.6842 25.11 36.0965 25.3476 36.5878C25.5852 37.079 25.6763 37.6283 25.6099 38.17C25.6238 38.8823 25.4102 39.5805 25.0002 40.1632C24.5902 40.7458 24.0051 41.1826 23.3299 41.41L20.3999 42.41C19.5214 42.6919 18.7259 43.1862 18.0839 43.849C17.442 44.5119 16.9735 45.3228 16.7199 46.21C15.5599 49.86 14.3799 53.5 13.2099 57.15C12.9399 57.97 12.9399 57.97 13.8099 57.97H45.97V58ZM10.9699 28.35C10.9012 32.1422 12.0086 35.8627 14.1399 39C14.65 39.76 14.6599 39.76 15.4199 39.3L18.1399 37.68C18.8799 37.24 18.8799 37.25 18.3899 36.55C17.3352 35.103 16.5812 33.4593 16.1724 31.7159C15.7636 29.9726 15.7084 28.165 16.0099 26.4C16.3323 24.3499 17.1168 22.4001 18.3042 20.698C19.4915 18.996 21.0505 17.5864 22.8632 16.5759C24.6758 15.5655 26.6946 14.9807 28.7667 14.8659C30.8388 14.751 32.9099 15.1091 34.8231 15.9129C36.7363 16.7168 38.4416 17.9455 39.8098 19.5058C41.178 21.0662 42.1732 22.9174 42.7202 24.9193C43.2672 26.9212 43.3515 29.0213 42.9669 31.0606C42.5822 33.0999 41.7386 35.0249 40.5 36.69C40.2099 37.09 40.22 37.3 40.66 37.57C41.66 38.16 42.66 38.78 43.66 39.45C44.1699 39.8 44.43 39.67 44.75 39.2C46.4244 36.8185 47.5156 34.0767 47.9352 31.1959C48.3549 28.315 48.0914 25.3759 47.1659 22.6156C46.2404 19.8554 44.679 17.3514 42.6075 15.3058C40.5361 13.2602 38.0127 11.7303 35.2411 10.8395C32.4695 9.94877 29.5272 9.72213 26.6519 10.1779C23.7765 10.6337 21.0486 11.7591 18.6884 13.4634C16.3281 15.1676 14.4015 17.4029 13.0643 19.9888C11.727 22.5748 11.0164 25.4389 10.9899 28.35H10.9699ZM31.3699 0C24.8099 0 20.4999 1.05 16.3199 3.24C12.6277 5.18666 9.40584 7.91709 6.87995 11.24C6.58995 11.62 6.52995 11.84 7.01995 12.11C8.11995 12.7 9.19995 13.34 10.2699 13.99C10.33 14.0413 10.4007 14.0785 10.477 14.099C10.5532 14.1194 10.6331 14.1226 10.7107 14.1082C10.7884 14.0938 10.8618 14.0623 10.9257 14.0159C10.9896 13.9695 11.0423 13.9094 11.0799 13.84C11.5876 13.1989 12.1283 12.5848 12.6999 12C18.5799 6.24 25.59 3.92 33.7 5.3C39.2978 6.24095 44.3434 9.2362 47.8499 13.7C48.16 14.08 48.3999 14.18 48.8499 13.9C49.8499 13.27 50.85 12.66 51.95 12.1C52.4799 11.82 52.4599 11.59 52.1199 11.16C46.3099 3.89 38.77 0.19 31.3699 0ZM10.1099 49.65L10.3299 49.58C10.6382 48.4504 11.0087 47.3386 11.4399 46.25C11.6891 45.7343 11.7691 45.1531 11.6685 44.5893C11.5679 44.0255 11.292 43.5078 10.8799 43.11C7.5368 38.9193 5.76765 33.6897 5.87995 28.33C5.8867 25.4757 6.43648 22.6488 7.49995 20C7.54909 19.9266 7.58049 19.8428 7.59169 19.7552C7.60289 19.6676 7.59358 19.5786 7.56449 19.4952C7.5354 19.4118 7.48732 19.3363 7.42406 19.2746C7.3608 19.213 7.28407 19.1669 7.19995 19.14C6.19995 18.58 5.19995 17.97 4.13995 17.38C3.44995 16.98 3.43995 16.98 3.13995 17.73C1.18655 22.4995 0.554966 27.7073 1.31168 32.8055C2.0684 37.9036 4.18542 42.7035 7.43995 46.7C8.26995 47.73 9.20995 48.67 10.1099 49.65ZM48.72 49.65C48.8799 49.5351 49.0334 49.4116 49.18 49.28C50.18 48.21 51.18 47.2 52.0499 46.07C56.397 40.4971 58.492 33.4946 57.9199 26.45C57.6969 23.4207 57.0018 20.4448 55.86 17.63C55.6399 17.1 55.4199 17.04 54.9399 17.33C53.9399 17.97 52.9399 18.56 51.84 19.13C51.41 19.37 51.37 19.61 51.54 20.04C52.7442 23.1464 53.2759 26.473 53.0999 29.8C52.8685 34.9088 50.9641 39.7998 47.68 43.72C47.45 43.9456 47.295 44.2364 47.236 44.553C47.177 44.8696 47.2168 45.1967 47.3499 45.49C47.84 46.83 48.24 48.21 48.72 49.68V49.65Z" fill="white"/>
<path d="M45.9699 58H13.8299C12.9599 58 12.9599 58 13.2299 57.18C14.3999 53.53 15.5799 49.89 16.7399 46.24C16.9935 45.3528 17.462 44.5419 18.1039 43.8791C18.7458 43.2162 19.5413 42.7219 20.4199 42.44L23.3499 41.44C24.0251 41.2126 24.6102 40.7758 25.0202 40.1932C25.4302 39.6105 25.6438 38.9124 25.6299 38.2C25.6963 37.6584 25.6052 37.1091 25.3676 36.6178C25.1299 36.1266 24.7558 35.7142 24.2899 35.43C22.893 34.4468 21.844 33.0457 21.2941 31.4284C20.7442 29.8111 20.7218 28.061 21.2299 26.43C21.6044 24.7842 22.4776 23.2941 23.7304 22.163C24.9832 21.0319 26.5546 20.315 28.2299 20.11C29.9873 19.8284 31.7888 20.1042 33.3815 20.8987C34.9741 21.6933 36.2779 22.9666 37.1099 24.54C37.9462 26.0991 38.2825 27.8777 38.0732 29.6345C37.8639 31.3913 37.1191 33.0411 35.9399 34.36C35.2962 34.9709 34.5964 35.52 33.8499 36C33.7038 36.0787 33.5835 36.198 33.5037 36.3435C33.4239 36.489 33.3878 36.6545 33.3999 36.82C33.3999 37.3 33.3999 37.82 33.3999 38.26C33.3885 38.9332 33.5903 39.5926 33.9765 40.1441C34.3627 40.6955 34.9135 41.1106 35.5499 41.33C36.6099 41.72 37.6999 42.06 38.7599 42.46C39.5504 42.7251 40.2678 43.1716 40.8548 43.7637C41.4417 44.3559 41.8819 45.0772 42.1399 45.87C43.4099 49.71 44.6299 53.58 45.8699 57.43C45.9199 57.6 45.9199 57.74 45.9699 58Z" fill="white"/>
<path d="M10.99 28.35C11.0361 25.4547 11.7597 22.6106 13.1028 20.0454C14.446 17.4801 16.3713 15.2652 18.7245 13.5779C21.0777 11.8907 23.7934 10.7781 26.654 10.3293C29.5145 9.88048 32.4405 10.1079 35.1973 10.9934C37.9542 11.8789 40.4653 13.3978 42.5295 15.4285C44.5937 17.4591 46.1536 19.945 47.0841 22.6869C48.0147 25.4289 48.2901 28.3507 47.8882 31.2183C47.4864 34.0858 46.4184 36.8194 44.77 39.2C44.45 39.67 44.19 39.8 43.68 39.45C42.68 38.78 41.68 38.16 40.68 37.57C40.24 37.3 40.23 37.09 40.52 36.69C42.4803 34.0426 43.4114 30.7729 43.14 27.49C42.8625 24.165 41.3794 21.0561 38.9699 18.7482C36.5603 16.4404 33.3904 15.0927 30.0566 14.9587C26.7228 14.8248 23.4549 15.9138 20.868 18.021C18.281 20.1281 16.5533 23.108 16.01 26.4C15.7043 28.1697 15.7574 29.9828 16.1663 31.7316C16.5751 33.4804 17.3313 35.1292 18.39 36.58C18.88 37.28 18.88 37.27 18.14 37.71L15.42 39.33C14.66 39.79 14.65 39.79 14.14 39.03C12.0098 35.8819 10.9091 32.1502 10.99 28.35Z" fill="white"/>
<path d="M31.37 0C38.77 0.19 46.31 3.89 52.11 11.16C52.45 11.59 52.47 11.82 51.94 12.1C50.88 12.66 49.85 13.27 48.84 13.9C48.4 14.18 48.16 14.08 47.84 13.7C44.3361 9.22286 39.2859 6.2163 33.68 5.27C25.59 3.89 18.58 6.21 12.68 11.97C12.1086 12.5515 11.5679 13.1623 11.06 13.8C11.0223 13.8694 10.9696 13.9295 10.9057 13.9759C10.8418 14.0223 10.7684 14.0538 10.6908 14.0682C10.6131 14.0826 10.5333 14.0794 10.457 14.059C10.3808 14.0385 10.31 14.0013 10.25 13.95C9.17999 13.3 8.09999 12.66 6.99999 12.07C6.50999 11.8 6.56999 11.58 6.85999 11.2C9.38588 7.87709 12.6078 5.14666 16.3 3.2C20.5 1.05 24.81 0 31.37 0Z" fill="white"/>
<path d="M10.1099 49.65C9.2099 48.65 8.2699 47.73 7.4399 46.7C4.18922 42.7075 2.07359 37.9134 1.31521 32.8212C0.55682 27.7289 1.18366 22.5263 3.1299 17.76C3.4299 17.01 3.4399 17.01 4.1299 17.41C5.1299 18 6.1299 18.61 7.1899 19.17C7.27043 19.1969 7.34391 19.2415 7.40498 19.3005C7.46605 19.3596 7.51316 19.4315 7.54287 19.511C7.57258 19.5906 7.58414 19.6757 7.57671 19.7603C7.56928 19.8449 7.54303 19.9268 7.4999 20C6.44016 22.6394 5.89045 25.4558 5.8799 28.3C5.76761 33.6596 7.53676 38.8892 10.8799 43.08C11.2919 43.4777 11.5679 43.9954 11.6685 44.5593C11.769 45.1231 11.689 45.7043 11.4399 46.22C11.0087 47.3086 10.6381 48.4203 10.3299 49.5499L10.1099 49.65Z" fill="white"/>
<path d="M48.72 49.68C48.24 48.21 47.84 46.83 47.35 45.49C47.2168 45.1967 47.177 44.8696 47.2361 44.553C47.2951 44.2363 47.4501 43.9455 47.68 43.72C50.9641 39.7998 52.8685 34.9088 53.1 29.8C53.259 26.4801 52.7137 23.1641 51.5 20.07C51.33 19.64 51.37 19.4 51.8 19.16C52.8 18.59 53.89 18 54.9 17.36C55.38 17.07 55.6 17.13 55.82 17.66C56.9619 20.4747 57.6569 23.4506 57.88 26.48C58.4634 33.5194 56.3828 40.5214 52.05 46.1C51.18 47.23 50.15 48.24 49.18 49.31C49.0335 49.4415 48.8799 49.565 48.72 49.68Z" fill="white"/>
</g>
<defs>
<clipPath id="clip0_435_2558">
<rect width="58" height="58" fill="white"/>
</clipPath>
</defs>
</svg>
