<?xml version="1.0" encoding="utf-8"?>
<!-- Generator: Adobe Illustrator 26.0.2, SVG Export Plug-In . SVG Version: 6.00 Build 0)  -->
<svg version="1.1" id="Layer_1" xmlns="http://www.w3.org/2000/svg" xmlns:xlink="http://www.w3.org/1999/xlink" x="0px" y="0px"
	 viewBox="0 0 144 144" style="enable-background:new 0 0 144 144;" xml:space="preserve">
<style type="text/css">
	.st0{fill:#a0a0a0;}
</style>
<path class="st0" d="M115.7,55c-1.2,32.1-21.2,35.4-21.2,35.4C100,85.1,107,77.4,109.4,61c2.1-14.2,0.1-24.9-14.9-30.4
	c2.8,42.4-12.2,52.1-12.2,52.1C87,63.6,90.8,18,72,18S57,63.6,61.7,82.8c0,0-15-9.8-12.2-52.1c-15,5.4-16.9,16.2-14.9,30.4
	c2.4,16.4,9.4,24,14.9,29.3c0,0-20-3.2-21.2-35.4c-10.7,10-13.4,32.8,16.2,50.8c0,3.5,0.7,6.1,2.1,8.1c1.4,2,3.4,3.3,5.7,3.7
	c0.6,0.1,1.2,0.2,1.7,0.2c2,0,3.9-0.6,5.6-1.8c0.8,2.2,1.8,4,3,5.4c2.5,3,5.7,4.6,9.4,4.6s7-1.6,9.4-4.6c1.2-1.5,2.2-3.3,3-5.4
	c1.6,1.2,3.5,1.8,5.6,1.8c0.6,0,1.2-0.1,1.7-0.2c2.3-0.4,4.4-1.7,5.7-3.7c1.4-2,2.1-4.6,2.1-8.1C129.2,87.7,126.4,64.9,115.7,55z"/>
</svg>
