<svg width="58" height="58" viewBox="0 0 58 58" fill="none" xmlns="http://www.w3.org/2000/svg">
<g clip-path="url(#clip0_435_2568)">
<path d="M16.31 22.8499L15.56 23.9199C13.9157 26.0682 12.8176 28.5835 12.36 31.2499C11.61 36.5299 14.85 40.3299 19.24 41.0599C23.44 41.7599 27.82 38.0599 27.65 34.0099C27.6747 33.472 27.5056 32.943 27.1735 32.5192C26.8413 32.0953 26.3682 31.8046 25.84 31.6999C25.4063 31.6418 24.9649 31.7044 24.5645 31.8808C24.164 32.0572 23.8199 32.3406 23.57 32.6999C23.2 33.1299 22.94 33.6999 22.57 34.0599C21.9847 34.6793 21.3107 35.2084 20.57 35.6299C20.258 35.8108 19.9028 35.9039 19.5422 35.8994C19.1815 35.8949 18.8288 35.793 18.5214 35.6044C18.2139 35.4159 17.9632 35.1477 17.7957 34.8282C17.6282 34.5088 17.5503 34.15 17.57 33.7899C17.5628 33.0386 17.6672 32.2904 17.88 31.5699C18.8991 28.4288 20.5764 25.5412 22.8 23.0999C25.945 19.3637 29.7393 16.2266 34 13.8399C34.8 13.3999 35.65 13.0699 36.62 12.6299C36.6059 12.8413 36.5792 13.0517 36.54 13.2599C35.5264 16.8083 34.7842 20.4288 34.32 24.0899C34.17 25.4399 34.13 26.8099 34.02 28.1699C33.9952 28.3685 34.0306 28.5699 34.1215 28.7482C34.2124 28.9265 34.3547 29.0734 34.53 29.1699C38.9903 32.5041 42.8836 36.5359 46.06 41.1099C46.15 41.2399 46.22 41.3899 46.35 41.6099C46.11 41.6899 45.92 41.7799 45.72 41.8399C42.1128 42.7997 38.4343 43.4685 34.72 43.8399C32.88 44.0099 31.04 44.1099 29.19 44.2099C29.0185 44.2057 28.8495 44.2518 28.7038 44.3424C28.5581 44.433 28.4421 44.5642 28.37 44.7199C25.22 50.1599 20.67 54.2499 15.56 57.8199C15.14 58.1099 14.95 58.0299 14.73 57.5899C12.6391 53.4739 11.3335 49.0042 10.88 44.4099C10.78 43.2499 10.8 42.0899 10.72 40.9299C10.706 40.6184 10.5778 40.323 10.36 40.0999C5.88409 36.2918 2.40078 31.4529 0.210033 25.9999C-0.129967 25.2299 -0.109967 25.1999 0.700033 24.9999C4.75493 23.8046 8.93769 23.0963 13.16 22.8899C14.16 22.8199 15.16 22.8499 16.31 22.8499Z" fill="white"/>
<path d="M44.1599 29.6701C43.8199 29.2801 43.5599 28.9501 43.2599 28.6701C41.9999 27.4701 40.7499 26.2701 39.4699 25.0901C39.334 24.9912 39.2251 24.8597 39.1535 24.7076C39.0818 24.5556 39.0497 24.3879 39.0599 24.2201C39.1332 18.314 40.5453 12.5015 43.1899 7.2201C43.2599 7.0801 43.3099 6.9301 43.4499 6.5701C42.6095 6.61485 41.7717 6.70162 40.9399 6.8301C35.6901 7.9419 30.7222 10.1128 26.3399 13.2101C24.7599 14.3501 23.2299 15.5501 21.6899 16.7401C21.5078 16.8989 21.2897 17.0111 21.0545 17.0668C20.8193 17.1226 20.574 17.1203 20.3399 17.0601C17.0828 16.4858 13.7641 16.3446 10.4699 16.6401L8.68994 16.7301C12.9599 12.5501 17.8807 9.09174 23.2599 6.4901C28.5936 3.84992 34.2833 2.00052 40.1499 1.0001C46.0424 -0.0273287 52.0464 -0.256053 57.9999 0.320104C57.8799 0.460104 57.8499 0.530104 57.7899 0.560104C53.6857 3.2023 50.4619 7.00753 48.5299 11.4901C46.6863 15.5415 45.4432 19.84 44.8399 24.2501C44.5999 25.8701 44.4599 27.5201 44.2699 29.1601C44.2599 29.2901 44.2099 29.4201 44.1599 29.6701Z" fill="white"/>
</g>
<defs>
<clipPath id="clip0_435_2568">
<rect width="58" height="58" fill="white"/>
</clipPath>
</defs>
</svg>
