<svg width="58" height="58" viewBox="0 0 58 58" fill="none" xmlns="http://www.w3.org/2000/svg">
<path d="M48.6592 13.2568C48.6474 13.174 48.5828 13.1084 48.4986 13.095C38.7816 11.4688 30.0827 6.89864 29.0509 6.34375H28.9491C27.9173 6.89864 19.2184 11.4688 9.50135 13.093C9.41716 13.1065 9.35255 13.172 9.34081 13.2549C9.05495 15.4147 6.06329 42.119 29 51.6563C51.9367 42.119 48.945 15.4147 48.6592 13.2568V13.2568ZM25.3799 41.0593C25.3799 41.0593 23.7607 34.3447 16.4734 31.9537C23.7607 29.5626 25.3799 22.848 25.3799 22.848C25.3799 22.848 26.999 29.5626 34.2863 31.9537C26.999 34.3447 25.3799 41.0593 25.3799 41.0593ZM36.1365 24.7998C36.1365 24.7998 35.3064 21.3548 31.5688 20.1294C35.3064 18.904 36.1365 15.459 36.1365 15.459C36.1365 15.459 36.9667 18.904 40.7043 20.1294C36.9667 21.3548 36.1365 24.7998 36.1365 24.7998V24.7998Z" fill="#A0A0A0"/>
</svg>
