<svg width="64" height="64" viewBox="0 0 64 64" fill="none" xmlns="http://www.w3.org/2000/svg">
<path d="M49.9543 42.7055C49.4261 39.2073 44.5494 36.0951 44.5494 36.0951C44.5494 36.0951 57.6714 27.0248 56.5006 15.2314C56.5006 15.2314 55.9372 8.03019 52.0728 6.10265C51.6063 5.86865 51.037 6.04707 50.8052 6.51214C49.2325 9.65062 42.7624 22.0817 34.5319 31.2982L22.8125 14.1609C22.6628 13.9415 22.4017 13.8216 22.1346 13.8567C19.8195 14.158 8.95985 16.1206 6.06081 26.6358C6.06081 26.6358 5.2803 30.2657 9.31196 29.6163C9.31196 29.6163 18.4727 24.9978 25.823 27.1535L19.6376 30.0609C19.2943 30.2218 19.2151 30.6722 19.485 30.9413L24.6552 36.0951C24.6552 36.0951 19.8459 39.2043 19.3266 42.7055L11.3953 40.6317C11.3953 40.6317 18.0267 58.2545 34.5348 57.9971C51.2776 58.2575 58 40.6317 58 40.6317L49.9572 42.7055H49.9543Z" fill="#a0a0a0"/>
</svg>
