<svg width="64" height="64" viewBox="0 0 64 64" fill="none" xmlns="http://www.w3.org/2000/svg">
<path fill-rule="evenodd" clip-rule="evenodd" d="M24.542 47.5322C24.542 47.5322 25.4402 9.14295 32.2872 6C39.1343 9.14295 40.0325 47.5322 40.0325 47.5322H24.542ZM24.542 57.9995V52.1621H40.0325V57.9995H24.542ZM46.0917 46.9928L45.1543 51.0889L56.0237 53.5763L56.9611 49.4802L46.0917 46.9928ZM46.6689 44.4721C46.6689 44.4721 53.4628 17.6792 58.772 16.5732C63.0728 19.8783 57.5381 46.9601 57.5381 46.9601L52.1035 45.7161L46.6689 44.4721ZM18.3157 46.9921L7.44629 49.4795L8.38367 53.5756L19.2531 51.0882L18.3157 46.9921ZM17.739 44.4722C17.7392 44.473 17.7393 44.4734 17.7393 44.4734V44.4721L17.739 44.4722ZM5.63623 16.5732C10.9249 17.6749 17.6868 44.2667 17.739 44.4722L12.3047 45.7161L6.8701 46.9601C6.8701 46.9601 1.33669 19.8783 5.63623 16.5732Z" fill="white"/>
</svg>
