<svg width="64" height="64" viewBox="0 0 64 64" fill="none" xmlns="http://www.w3.org/2000/svg">
<path fill-rule="evenodd" clip-rule="evenodd" d="M51.8882 9.91385L55.6466 26.0268L55.6578 26.038C57.0616 29.5895 54.9139 33.8848 54.9139 33.8848L45.4956 51.3121L48.717 57.0112H19.3938L20.4676 51.8881C20.9598 46.6812 26.7428 45.3613 26.7428 45.3613C27.4642 44.9306 27.509 44.1588 27.4251 43.5939C22.7998 42.3411 19.3882 38.1297 19.3882 33.1074C19.3882 27.1007 24.254 22.2349 30.2607 22.2349C36.2674 22.2349 41.1331 27.1007 41.1331 33.1074C41.1331 35.3054 40.4788 37.3467 39.3546 39.0581L46.9833 29.5839C47.151 29.3769 47.2237 29.1029 47.179 28.84L45.4508 18.415C42.8613 18.1801 41.8211 17.0559 41.4072 16.245C41.1723 15.7919 41.2338 15.2494 41.547 14.8523L41.8602 14.4608C42.056 14.2092 42.1455 13.896 42.1175 13.5828L42.0783 13.1521C42.0672 13.0067 41.9889 12.8837 41.8882 12.7774C41.2059 12.0727 41.3177 10.6633 41.5694 10.0201C41.6701 9.76285 41.8378 9.53913 42.0504 9.36576C46.8546 5.54025 49.8021 7.2237 51.0437 8.42057C51.4631 8.82884 51.754 9.34338 51.8882 9.91385ZM21.5302 21.9385C18.6555 24.1532 16.6477 27.425 16.0716 31.1723L16.066 31.1667C15.641 36.9049 18.2305 41.4687 18.2305 41.4687H7.41391C7.16223 34.2819 12.2853 33.2919 12.2853 33.2919C12.5537 33.0738 12.6712 32.7606 12.7103 32.425C12.7271 32.2908 12.6432 32.1678 12.5146 32.1286C9.08058 31.1667 6.6365 27.8501 7.04478 24.0246C7.40832 20.6521 10.0761 17.8669 13.4374 17.3859C17.0448 16.8658 20.2551 18.896 21.5302 21.9385Z" fill="white"/>
</svg>
