<svg width="58" height="58" viewBox="0 0 58 58" fill="none" xmlns="http://www.w3.org/2000/svg">
<path fill-rule="evenodd" clip-rule="evenodd" d="M30.7195 34.6076C30.1885 35.2228 29.2343 35.2228 28.7033 34.6076V34.6058L25.4442 30.839C24.8272 30.1251 24.4864 29.2121 24.4864 28.2687V11.329C24.4864 10.3855 24.8272 9.47249 25.4442 8.75859L28.7033 4.99182C29.2343 4.37659 30.1885 4.37659 30.7195 4.99182L33.9786 8.75859C34.5956 9.47249 34.9365 10.3855 34.9365 11.329V28.2705C34.9365 29.2139 34.5956 30.1269 33.9786 30.8408L30.7195 34.6076ZM51.0059 24.8987C52.5951 34.4932 46.5593 36.6061 43.8221 37.0725L43.8311 37.0743C43.0813 37.2016 42.5289 37.8492 42.5055 38.6097L42.3943 42.285C42.3907 42.3783 42.4607 42.4572 42.554 42.4679L45.1602 42.7478C45.2643 42.7585 45.3378 42.8572 45.3181 42.9612C43.4706 52.3207 29.7201 53.4705 29.7201 53.4705C29.7201 53.4705 15.9696 52.3207 14.122 42.9612C14.1005 42.859 14.1759 42.7585 14.2799 42.7478L16.8861 42.4679C16.9794 42.459 17.0494 42.3783 17.0458 42.285L16.9346 38.6097C16.913 37.8492 16.3606 37.2016 15.609 37.0743C12.8718 36.6079 6.83424 34.495 8.42525 24.9005C8.45036 24.7516 8.56875 24.6332 8.71762 24.6063L12.9974 23.8547L10.8432 19.4853C10.6961 19.1857 10.7266 18.8324 10.9203 18.5633C11.8781 17.236 15.0781 13.3921 20.5489 12.4952C20.6565 12.4773 20.7569 12.5616 20.7569 12.6728V29.9407C20.7569 30.9578 21.1695 31.9335 21.8995 32.6421L28.0142 38.5792C28.0483 38.6133 28.0681 38.6599 28.0681 38.7084V49.3342H31.3631V38.7084C31.3631 38.6599 31.3828 38.6133 31.4169 38.5792L37.5316 32.6421C38.2617 31.9335 38.6742 30.9578 38.6742 29.9407V12.671C38.6742 12.5616 38.7729 12.4755 38.8823 12.4934C44.3531 13.3903 47.553 17.2342 48.5108 18.5615C48.7064 18.8324 48.7351 19.1857 48.588 19.4835L46.4337 23.8529L50.7135 24.6045C50.8624 24.6296 50.9808 24.748 51.0059 24.8987Z" fill="#A0A0A0"/>
</svg>
