<svg width="58" height="58" viewBox="0 0 58 58" fill="none" xmlns="http://www.w3.org/2000/svg">
<path d="M54.3536 52.4322C53.1326 53.7471 51.0663 53.7471 49.8453 52.4322L44.3038 46.7967C40.1711 49.9902 35.381 50.5537 32.6572 47.8299L37.1656 43.2276C34.9114 40.9735 31.9998 38.0618 28.9942 34.9623C25.9886 38.0618 22.9831 40.9735 20.8228 43.2276L25.3312 47.8299C22.7013 50.4598 17.7233 49.9902 13.6846 46.7967L8.1431 52.4322C6.92209 53.7471 4.85576 53.7471 3.63475 52.4322C2.41374 51.1172 2.41374 49.1448 3.63475 47.8299L9.55196 41.9127C7.7674 38.4375 7.7674 34.6806 9.83373 32.4264L14.3421 37.0287L22.5135 28.7634C18.9443 25.1943 15.8449 22.0948 14.436 20.592C9.55196 15.7079 11.5244 4.62493 11.5244 4.62493L28.9003 22.2826L46.558 4.53101C46.558 4.53101 48.4364 15.614 43.6463 20.4981C42.1435 22.0008 39.0441 25.1943 35.5689 28.6694L43.7402 36.9347L48.2486 32.3325C50.5028 34.5866 50.5028 38.2497 48.5304 41.8188L54.4476 47.736C55.5747 49.1448 55.5747 51.1172 54.3536 52.4322Z" fill="#A0A0A0"/>
</svg>
