<svg width="64" height="64" viewBox="0 0 64 64" fill="none" xmlns="http://www.w3.org/2000/svg">
<g clip-path="url(#clip0_1121_8212)">
<path d="M42.8817 42.5157L52.7502 48.5037C58.1679 41.696 57.1877 25.3985 46.9042 16.7011C36.6251 7.9991 20.9371 10.1985 15.5238 17.0062L23.1183 25.781C25.4011 23.1627 31.097 17.6892 37.804 19.1464C37.5744 19.242 29.918 22.4341 25.4496 28.4768L30.6333 32.862L19.1533 47.2924C18.4865 48.1303 17.4577 48.5948 16.4069 48.531C14.6539 48.4217 13.2984 46.9373 13.3028 45.1295L13.6781 38.9411C13.7709 37.4338 12.6582 36.136 11.2011 36.0449C9.73958 35.9493 8.48119 37.0968 8.39288 38.5995L8.00432 44.8608V44.9883C7.95576 47.807 9.17883 50.3388 11.1393 51.9963C12.4948 53.1439 14.2036 53.8724 16.089 53.9863C18.8265 54.1548 21.5023 52.9481 23.2463 50.7578L34.7264 36.3273L39.8704 40.6806C44.745 34.9794 46.2816 26.6098 46.3257 26.3594C49.0236 32.862 44.9216 39.7015 42.8817 42.5202V42.5157Z" fill="white"/>
</g>
<defs>
<clipPath id="clip0_1121_8212">
<rect width="48" height="43" fill="white" transform="translate(8 11)"/>
</clipPath>
</defs>
</svg>
