<svg width="64" height="64" viewBox="0 0 64 64" fill="none" xmlns="http://www.w3.org/2000/svg">
<g clip-path="url(#clip0_1106_16248)">
<path d="M54.114 31.8666C54.114 29.6077 53.7649 27.4308 53.1157 25.3842L58 22.6008L53.2596 14.4538L48.3723 17.2402C45.3407 13.9626 41.3046 11.6098 36.748 10.6608V5H27.252V10.7638C22.8025 11.7887 18.8737 14.1536 15.9247 17.41L10.7404 14.4508L6 22.6008L11.2701 25.6055C10.6669 27.5884 10.3392 29.6896 10.3392 31.8666C10.3392 34.0436 10.6914 36.3085 11.3406 38.3581L6 41.4022L10.7404 49.5492L16.087 46.5021C19.0176 49.6675 22.8852 51.9627 27.252 52.9693V59H36.748V53.0724C41.225 52.1416 45.1937 49.8555 48.2069 46.6688L53.2596 49.5523L58 41.4053L53.0392 38.5764C53.7343 36.4631 54.114 34.2103 54.114 31.8696V31.8666ZM32.2251 44.316C25.283 44.316 19.6515 38.7432 19.6515 31.8666C19.6515 24.99 25.2799 19.4172 32.2251 19.4172C35.1434 19.4172 37.829 20.4056 39.9634 22.0581L32.2251 26.4939V37.2393L44.6792 30.1717C44.7558 30.7266 44.7987 31.2905 44.7987 31.8666C44.7987 38.7401 39.1703 44.316 32.2251 44.316Z" fill="#a0a0a0"/>
</g>
<defs>
<clipPath id="clip0_1106_16248">
<rect width="52" height="54" fill="white" transform="translate(6 5)"/>
</clipPath>
</defs>
</svg>
