<svg width="58" height="58" viewBox="0 0 58 58" fill="none" xmlns="http://www.w3.org/2000/svg">
<path d="M40.0793 18.6298L48.8568 8.15625H29.1122C15.2657 9.46425 10.0529 19.8803 8.19866 25.7735C7.55664 27.8193 7.25 29.9514 7.25 32.0931V50.75H20.215V32.922L25.1691 27.6852L25.2505 27.7666C25.102 27.4264 25.0206 27.0527 25.0206 26.6599C25.0206 25.1171 26.2711 23.8666 27.8138 23.8666C29.3566 23.8666 30.6071 25.1171 30.6071 26.6599C30.6071 28.2026 29.3566 29.4531 27.8138 29.4531C27.4209 29.4531 27.0472 29.3717 26.7071 29.2231L26.8652 29.3813L22.6202 33.9089V50.75H26.7071V41.3497C25.9069 40.8562 25.3751 39.9794 25.3751 38.9684C25.3751 37.4257 26.6256 36.1752 28.1684 36.1752C29.7111 36.1752 30.9616 37.4257 30.9616 38.9684C30.9616 40.1806 30.1903 41.2107 29.1122 41.594V50.7452H33.7118V33.9137L44.6788 38.2306L50.9745 32.002C50.8307 26.909 40.0793 18.6298 40.0793 18.6298V18.6298ZM35.8343 17.1445C28.8775 16.675 24.23 19.0371 21.1732 21.9597C17.6373 25.3423 15.74 30.0904 15.74 34.9822V46.7206H10.8578V32.9938C10.8578 30.3539 11.2746 27.7139 12.2089 25.2465C13.445 21.9884 15.28 19.497 17.2636 17.5997C21.2307 13.8147 26.5825 11.8359 32.0636 11.8359H39.9356L35.8295 17.1445H35.8343Z" fill="#A0A0A0"/>
</svg>
