<svg width="58" height="58" viewBox="0 0 58 58" fill="none" xmlns="http://www.w3.org/2000/svg">
<path fill-rule="evenodd" clip-rule="evenodd" d="M45.2018 9.4168C48.6544 11.0989 50.8833 13.9257 51.4929 17.6716H51.4882C52.3421 22.9111 49.6851 27.0827 49.371 27.3851C49.3584 27.3586 49.3352 27.2829 49.2992 27.1653C48.8967 25.8519 46.8928 19.3128 40.1554 17.6855C36.4468 16.7898 32.9592 16.9992 29.6833 19.1257C29.5205 19.2304 29.2529 19.2839 28.9993 19.2793C28.7457 19.2839 28.4781 19.2327 28.3153 19.1257C25.0394 16.9992 21.5518 16.7898 17.8432 17.6855C11.1058 19.3128 9.10192 25.8519 8.69941 27.1653C8.66339 27.2829 8.64019 27.3586 8.62757 27.3851C8.31348 27.0804 5.65883 22.9088 6.51037 17.6716C7.11994 13.9257 9.34882 11.0989 12.8015 9.41447C14.1277 8.77 15.5608 8.10925 16.9964 7.96732C21.3657 7.53458 25.1371 8.98172 28.0849 12.2878C28.4432 12.688 28.7155 12.909 28.9993 12.902C29.2831 12.909 29.5577 12.688 29.9137 12.2878C32.8661 8.98405 36.6375 7.5369 41.0069 7.96965C42.4424 8.11157 43.8756 8.77 45.2018 9.4168ZM30.0213 23.7797C33.346 20.3666 38.1132 19.9664 42.1033 22.8746H42.0987C46.4983 26.0807 46.4331 33.356 42.6012 36.8343C40.5069 38.7349 38.5277 40.7613 36.5482 42.788C35.7701 43.5847 34.992 44.3814 34.2069 45.1705C33.0595 46.3232 31.9242 47.4893 30.7887 48.6556C30.4299 49.0241 30.0711 49.3927 29.7119 49.7609C29.4699 50.0075 29.2349 50.1192 28.9999 50.1098C28.7649 50.1192 28.5276 50.0075 28.288 49.7609C27.9287 49.3926 27.5698 49.024 27.211 48.6554C26.0756 47.4892 24.9403 46.3231 23.793 45.1705C22.9966 44.3708 22.2075 43.5629 21.4184 42.755C19.45 40.7398 17.4812 38.7242 15.3986 36.8343C11.569 33.356 11.5039 26.0807 15.9012 22.8746C19.8913 19.9664 24.6585 20.3666 27.9832 23.7797C28.4113 24.2194 28.7044 24.4451 29.0022 24.4404C29.3024 24.4451 29.5932 24.2194 30.0213 23.7797ZM34.1552 35.6596C34.9968 34.7875 35.8383 33.9154 36.6754 33.0396L36.6707 33.0372C37.5246 32.1438 37.7037 30.5408 37.0872 29.6474C36.2496 28.4375 34.9421 27.9257 33.6671 28.6027C32.3456 29.3054 31.1218 30.2174 29.9468 31.1527C29.5955 31.4319 29.2954 31.6203 28.9999 31.632C28.7021 31.6227 28.402 31.4342 28.053 31.155C26.8781 30.2197 25.6543 29.3077 24.3328 28.6051C23.0555 27.928 21.7502 28.4399 20.9127 29.6497C20.2938 30.5431 20.4753 32.1462 21.3291 33.0396C22.1374 33.8845 22.9493 34.7259 23.7611 35.5671C25.3232 37.1861 26.885 38.8047 28.4206 40.4475C28.6533 40.6964 28.8371 40.7918 29.0022 40.7872C29.1674 40.7918 29.3512 40.6964 29.5839 40.4475C31.0903 38.836 32.6228 37.2477 34.1552 35.6596Z" fill="#A0A0A0"/>
</svg>
