<svg width="64" height="64" viewBox="0 0 64 64" fill="none" xmlns="http://www.w3.org/2000/svg">
<path d="M60.7039 20.7155C60.5221 20.2807 60.1014 20 59.6347 20H43.4366C42.9698 20 42.5492 20.2835 42.3674 20.7155C41.9766 21.6485 41.9739 22.6997 42.3565 23.6354L42.9128 24.9867C43.2195 25.7325 43.9359 26.2168 44.7337 26.2168H48.1883L47.8626 32.5493L43.4474 32.5658L38.3891 27.4745H25.5641L20.5058 32.5658L16.0906 32.5493L15.7649 26.2168H19.2602C20.0553 26.2168 20.7744 25.7325 21.0811 24.9867L21.6374 23.6354C22.0227 22.6997 22.0173 21.6485 21.6265 20.7155C21.4447 20.2807 21.0241 20 20.5573 20H4.36468C3.89792 20 3.4773 20.2835 3.29548 20.7155C2.9047 21.6485 2.90199 22.6997 3.28462 23.6354L3.84093 24.9867C4.14758 25.7325 4.864 26.2168 5.66183 26.2168H9.03767L10.5411 41.6805H21.9278C21.9278 41.6805 25.2276 50.0935 31.982 50.033C38.7337 50.0935 42.0363 41.6805 42.0363 41.6805H53.423L54.9264 26.2168H58.3402C59.1354 26.2168 59.8545 25.7325 60.1611 24.9867L60.7175 23.6354C61.1028 22.6997 61.0974 21.6485 60.7066 20.7155H60.7039ZM31.9793 43.8161C29.4719 43.8161 27.442 41.7548 27.442 39.2147C27.442 36.6746 29.4746 34.6133 31.9793 34.6133C34.4841 34.6133 36.5166 36.6746 36.5166 39.2147C36.5166 41.7548 34.4841 43.8161 31.9793 43.8161Z" fill="white"/>
</svg>
