<svg width="58" height="58" viewBox="0 0 58 58" fill="none" xmlns="http://www.w3.org/2000/svg">
<path fill-rule="evenodd" clip-rule="evenodd" d="M29.2413 21.3095C29.2413 21.3095 45.0998 8.01624 38.1925 4.92032C38.1925 4.92032 33.8714 2.37234 30.7485 14.0218C30.7485 14.0218 29.7293 3.11208 25.4624 4.6847C25.4624 4.6847 22.0033 5.84087 25.9449 13.2985C25.9449 13.2985 22.822 9.59434 21.2009 10.9313C21.2009 10.9313 18.7828 12.5094 29.2413 21.3095Z" fill="white"/>
<path fill-rule="evenodd" clip-rule="evenodd" d="M44.3299 16.9807C35.7636 15.1999 28.9973 25.0137 28.9973 25.0137C28.9973 25.0137 22.231 15.1999 13.6648 16.9807C13.6648 16.9807 3.57496 19.4903 10.7045 32.3562C10.7045 32.3562 10.3846 38.9919 12.1467 41.8248C12.1467 41.8248 17.0316 34.5425 22.3178 34.948C22.3178 34.948 25.9232 27.2603 29.0028 27.5836C32.0877 27.2603 35.6877 34.948 35.6877 34.948C40.9739 34.5425 45.8588 41.8248 45.8588 41.8248C47.6209 38.9919 47.301 32.3562 47.301 32.3562C54.4251 19.4903 44.3408 16.9807 44.3408 16.9807H44.3299ZM12.7919 30.2904C12.7919 30.2904 9.60932 26.0438 11.29 22.5205C11.29 22.5205 13.5129 25.8575 16.934 23.8575C16.934 23.8575 19.4551 22.0712 18.1377 18.6848C18.1377 18.6848 21.1413 19.9123 22.5238 21.3095C22.5238 21.3095 22.5835 30.7178 12.7973 30.2904H12.7919ZM44.9914 22.8383C43.0829 22.8383 41.5377 24.4 41.5377 26.3288C41.5377 28.0548 42.7739 29.4795 44.4004 29.7644C44.0155 29.8028 43.5926 29.8192 43.1209 29.7973C43.1209 29.7973 37.1733 30.6466 36.0347 21.2986C36.0347 21.2986 45.2245 14.1971 47.7456 23.3643C47.7456 23.3643 47.9191 23.8904 48.0167 24.6356C47.4257 23.5616 46.2926 22.8328 44.9914 22.8328V22.8383Z" fill="white"/>
<path fill-rule="evenodd" clip-rule="evenodd" d="M35.9751 37.9398C33.1504 37.9398 31.0522 40.7947 29.3714 42.6139C27.6907 40.7947 25.5871 37.9398 22.7678 37.9398C18.6853 37.9398 13.8816 44.4331 13.8816 44.4331C19.3467 54.751 29.3769 53.414 29.3769 53.414C29.3769 53.414 39.407 54.751 44.8721 44.4331C44.8721 44.4331 40.0685 37.9398 35.9859 37.9398H35.9751ZM26.8287 47.8304C25.1262 46.1207 23.1039 46.192 23.1039 46.192C23.1039 46.192 21.0816 46.1207 19.3792 47.8304C19.2925 47.918 19.1786 42.9646 23.1039 42.7947C27.0293 42.9646 26.9154 47.918 26.8287 47.8304ZM39.3582 47.8304C37.6558 46.1207 35.6335 46.192 35.6335 46.192C35.6335 46.192 33.6112 46.1207 31.9088 47.8304C31.822 47.918 31.7082 42.9646 35.6335 42.7947C39.5588 42.9646 39.445 47.918 39.3582 47.8304Z" fill="white"/>
</svg>
