<svg width="64" height="64" viewBox="0 0 64 64" fill="none" xmlns="http://www.w3.org/2000/svg">
<path fill-rule="evenodd" clip-rule="evenodd" d="M53.0681 30.786L51.2882 18.4793C51.1143 17.2873 50.0868 16.4004 48.876 16.4004H44.0231L38.01 9H25.99L19.9801 16.4004H15.1272C13.9163 16.4004 12.8889 17.2873 12.715 18.4793L10.9351 30.786H7.71984V38.8877H13.9195L28.4212 55H35.5788L50.0805 38.8877H56.2801V30.786H53.0681ZM27.9723 20.9891L30.7797 17.8345C31.4309 17.1049 32.5754 17.1049 33.2267 17.8345L36.034 20.9891C36.5241 21.5394 36.581 22.3477 36.1731 22.961L33.3658 27.1912C32.7208 28.1661 31.2855 28.1661 30.6374 27.1912L27.83 22.961C27.4222 22.3477 27.4822 21.5394 27.9691 20.9891H27.9723ZM31.9846 35.0352L19.6892 27.6629L19.0695 31.9497L19.0189 32.2956L32 46.719L32.0015 46.7172L32.0032 46.719L44.9842 32.2956L44.9336 31.9528L44.9242 31.9069L44.3107 27.6629L32.0014 35.0436L31.9846 35.0352Z" fill="#a0a0a0"/>
<path d="M42.3602 55L52.0185 44.269H58V47.1845L52.2303 55H42.3602Z" fill="#a0a0a0"/>
<path d="M6 47.1845L11.7729 55H21.6398L11.9815 44.269H6V47.1845Z" fill="#a0a0a0"/>
</svg>
