<svg width="58" height="58" viewBox="0 0 58 58" fill="none" xmlns="http://www.w3.org/2000/svg">
<path fill-rule="evenodd" clip-rule="evenodd" d="M52.4694 28.9606L52.4714 28.9572L52.4717 28.963L52.4694 28.9606ZM52.4714 28.9572C52.6016 28.7339 58.9206 17.7471 45.7733 11.4842C34.3435 6.03934 28.9391 17.0171 28.9391 17.0171C28.9391 17.0171 23.5347 6.03934 12.1049 11.4842C-1.1802 17.8116 5.40646 28.9606 5.40646 28.9606C5.40646 28.9606 5.92502 20.0547 10.9941 19.6194C15.6492 19.2198 16.3224 24.1747 16.3224 24.1747V35.7828H41.5558V24.177C41.5558 24.177 42.2266 19.2222 46.8841 19.6218C51.8778 20.0483 52.4553 28.7001 52.4714 28.9572ZM26.3106 30.9017H21.3153V23.4159C20.9823 17.7759 15.654 16.5818 15.654 16.5818C19.5598 15.6755 22.0932 16.4272 23.7035 17.5547C25.3615 18.7155 26.3106 20.6137 26.3106 22.6071V30.9017ZM10.5875 34.7477C10.5875 36.8706 8.82605 38.5917 6.65315 38.5917C4.48024 38.5917 2.71875 36.8706 2.71875 34.7477C2.71875 32.6247 4.48024 30.9037 6.65315 30.9037C8.82605 30.9037 10.5875 32.6247 10.5875 34.7477ZM55.2814 34.7477C55.2814 36.8706 53.5199 38.5917 51.347 38.5917C49.1741 38.5917 47.4126 36.8706 47.4126 34.7477C47.4126 32.6247 49.1741 30.9037 51.347 30.9037C53.5199 30.9037 55.2814 32.6247 55.2814 34.7477ZM16.3222 38.9059H41.5557V47.7524H16.3222V38.9059Z" fill="white"/>
</svg>
