<svg width="58" height="58" viewBox="0 0 58 58" fill="none" xmlns="http://www.w3.org/2000/svg">
<path d="M53.8069 34.8469C52.4455 27.9364 49.3819 18.1822 48.3368 14.9358C48.2405 14.5602 48.1219 14.1946 47.9786 13.8388C46.6617 10.5108 43.4152 8.15625 39.6178 8.15625C35.351 8.15625 31.7809 11.126 30.8568 15.1112C30.805 15.336 30.6098 15.4991 30.3775 15.4991H27.6203C27.388 15.4991 27.1953 15.336 27.1409 15.1112C26.2194 11.126 22.6493 8.15625 18.3824 8.15625C14.585 8.15625 11.3386 10.5108 10.0192 13.8388C9.87839 14.1946 9.75733 14.5602 9.66097 14.9358C8.61588 18.1822 5.55225 27.9364 4.19338 34.8469C3.73384 36.2601 3.53372 37.7895 3.66466 39.383C4.13409 45.152 8.89507 49.7401 14.6789 49.9995C20.9643 50.2787 26.207 45.5473 26.7456 39.4621C26.7679 39.2126 26.9804 39.0248 27.2324 39.0248H30.7704C31.0199 39.0248 31.2348 39.215 31.2571 39.4621C31.7957 45.5473 37.0384 50.2787 43.3238 49.9995C49.1077 49.7425 53.8686 45.1545 54.3381 39.383C54.4665 37.7895 54.2689 36.2601 53.8093 34.8469H53.8069ZM15.5486 43.9142C11.4349 44.2379 8.03033 40.8333 8.35399 36.7197C8.60847 33.4855 11.2298 30.8642 14.4664 30.6072C18.5801 30.2836 21.9847 33.6881 21.661 37.8018C21.4065 41.0359 18.7852 43.6573 15.5486 43.9142V43.9142ZM30.8914 29.3941L31.057 33.3126C31.0743 33.7326 30.7382 34.0859 30.3158 34.0859H27.682C27.2595 34.0859 26.9235 33.7351 26.9408 33.3126L27.1064 29.3719C27.1187 29.0655 27.3114 28.7937 27.5956 28.6776C27.6894 28.6406 27.7883 28.6208 27.8896 28.6208H30.044C30.1354 28.6208 30.2243 28.6356 30.3083 28.6677L30.3701 28.69C30.6691 28.7987 30.8741 29.0754 30.889 29.3941H30.8914ZM43.5338 43.9142C39.4202 44.2379 36.0156 40.8333 36.3393 36.7197C36.5937 33.4855 39.2151 30.8642 42.4517 30.6072C46.5653 30.2836 49.9699 33.6881 49.6463 37.8018C49.3918 41.0359 46.7704 43.6573 43.5338 43.9142Z" fill="white"/>
</svg>
