<svg width="58" height="58" viewBox="0 0 58 58" fill="none" xmlns="http://www.w3.org/2000/svg">
<path d="M41.9254 36.9844C41.13 38.9602 39.6417 40.8077 36.9474 41.2696C36.9474 41.2696 29.8908 40.9617 30.9429 28.7475C26.5807 26.1301 21.346 23.6154 15.1619 21.7423C15.1619 21.7423 12.5189 24.3853 12.3137 30.6463C12.3137 30.6463 8.1054 29.6969 8.15672 34.0591C8.20804 38.4213 12.6986 40.6794 12.6986 40.6794C12.6986 40.6794 17.7793 52.5087 27.5044 57.3328C29.0184 58.077 30.7376 58.1796 32.3285 57.5638C35.7413 56.2551 42.0024 52.6884 47.5706 43.1171C47.5706 43.1171 45.7231 40.4741 41.9511 36.933L41.9254 36.9844ZM21.269 38.2417C21.269 38.2417 15.8804 37.2923 18.2411 29.7226C18.2411 29.7226 20.8585 33.392 25.6313 35.4191C25.6313 35.4191 24.3996 38.6523 21.269 38.2674V38.2417Z" fill="white"/>
<path d="M37.7172 16.8155C37.7172 16.8155 42.8235 6.01261 49.6491 4.31905C49.6491 4.31905 40.2575 4.60131 35.1512 8.57862C35.1512 8.57862 34.8689 4.03678 37.1526 0.90625C37.1526 0.90625 28.3512 1.47077 27.4788 11.1446C27.4788 11.1446 24.6305 10.2979 24.6305 4.31905C24.6305 4.31905 20.0887 7.73184 20.6532 16.8155C20.6532 16.8155 18.0102 17.5853 16.5732 19.2789C16.5732 19.2789 27.1452 21.9219 36.896 28.3369C38.8462 28.8245 41.0017 29.6199 42.8748 30.9542C42.8748 30.9542 42.9262 31.7754 42.8492 32.9301C45.1843 35.0342 47.2884 37.3949 48.982 40.0636C48.982 40.0636 52.1895 21.6909 37.6915 16.8412L37.7172 16.8155Z" fill="white"/>
</svg>
