<svg width="58" height="58" viewBox="0 0 58 58" fill="none" xmlns="http://www.w3.org/2000/svg">
<path d="M48.7164 11.0591C47.6479 9.89359 46.3204 8.98954 44.8617 8.37957C43.3008 7.72604 41.616 7.40653 39.9275 7.31939C38.3484 7.23952 36.7693 7.23226 35.1865 7.28309C33.6038 7.33392 31.9955 7.44647 30.4055 7.62438C28.5382 7.83133 26.682 8.12542 24.8513 8.54296C23.8301 8.77532 22.8163 9.044 21.8207 9.35987L24.771 11.64C22.4005 13.0233 20.0629 14.7225 17.8492 16.7303C6.956 26.6059 3.12313 40.0651 9.28272 46.8002C15.4423 53.5352 38.9647 52.4169 43.5415 37.5018C43.0054 38.1009 42.4256 38.6818 41.8056 39.2409C37.9071 42.7737 33.3448 44.7088 29.439 44.8396C26.9555 45.1373 24.4902 44.3676 22.8054 42.5268C22.7798 42.4977 22.7506 42.4687 22.7288 42.436C19.8696 39.2046 20.4568 33.98 24.0672 30.705C25.9964 28.9587 28.3997 28.1163 30.6753 28.1926V36.5433C30.6753 36.5433 33.932 36.3 37.8816 35.091C41.4044 34.0127 45.478 32.1646 48.2752 29.0313C49.4057 27.7678 50.3247 26.2973 50.9192 24.5836C52.3524 19.2718 51.7361 14.3594 48.7164 11.0591V11.0591ZM37.4038 27.5899V20.4155C19.556 22.1909 13.4475 37.8431 13.4475 37.8431C13.4475 14.5373 43.392 9.12025 45.4342 16.5197C47.699 24.7216 37.4038 27.5899 37.4038 27.5899V27.5899Z" fill="white"/>
</svg>
