<svg width="64" height="64" viewBox="0 0 64 64" fill="none" xmlns="http://www.w3.org/2000/svg">
<path fill-rule="evenodd" clip-rule="evenodd" d="M42.8627 26.0972C42.8933 26.2214 43.0099 26.307 43.1376 26.3043C46.0788 26.2601 48.1867 27.3674 48.7393 27.6905C48.8282 27.743 48.9421 27.7457 49.0282 27.6905C53.1913 25.0423 54.2161 15.3606 54.391 13.3006C54.4077 13.11 54.2272 12.9609 54.0439 13.0106C47.4396 14.8028 42.36 21.1542 41.3685 22.4631C41.2797 22.5791 41.3019 22.7392 41.413 22.8331C42.1378 23.4241 42.6961 25.4344 42.8627 26.0972ZM14.9792 27.7492C15.0653 27.8045 15.1792 27.8045 15.2681 27.7492C15.8208 27.4261 17.9259 26.3188 20.8698 26.363C21.0003 26.363 21.1142 26.2801 21.1447 26.1559C21.3114 25.4931 21.8696 23.4828 22.5945 22.8918C22.7083 22.8007 22.7278 22.6378 22.6389 22.5218C21.6474 21.2129 16.5678 14.8643 9.96354 13.0721C9.77747 13.0224 9.59972 13.1715 9.61639 13.3621C9.78858 15.4221 10.8134 25.101 14.9792 27.752V27.7492ZM48.961 31.8771C46.5004 29.309 39.1795 29.1847 39.1795 29.1847C38.563 24.0456 32.042 20.1299 32.042 20.1299C32.042 20.1299 25.5211 24.0456 24.9045 29.1847C24.9045 29.1847 17.5837 29.3062 15.123 31.8771C15.123 31.8771 16.7838 38.546 21.2746 40.1974C21.2746 40.1974 19.3667 47.4766 19.9832 51.5746C19.9832 51.5746 27.7345 50.6577 32.042 46.1925C36.3495 50.6577 44.1008 51.5746 44.1008 51.5746C44.7174 47.4766 42.8094 40.1974 42.8094 40.1974C47.3002 38.546 48.961 31.8771 48.961 31.8771ZM10.1271 30.3979C10.2437 30.4062 10.3465 30.4891 10.3771 30.6023L10.3743 30.605C12.3489 37.7489 16.1482 41.1483 16.9425 41.7972C17.0341 41.8718 17.0647 41.9905 17.0286 42.0982L16.2704 44.3239C16.212 44.4952 16.0038 44.567 15.851 44.4648C7.74423 39.0551 3.15899 32.1736 2.04254 30.3703C1.92312 30.1798 2.07031 29.9368 2.29527 29.9506L10.1271 30.3979ZM53.8775 30.3342L61.7093 29.8869L61.7065 29.8841C61.9287 29.8731 62.0759 30.1133 61.9593 30.3038C60.8428 32.1071 56.2576 38.9914 48.1508 44.3983C48.0008 44.5005 47.7898 44.4287 47.7314 44.2575L46.9732 42.0317C46.9371 41.9213 46.9705 41.8025 47.0593 41.7307C47.8536 41.0818 51.6529 37.6825 53.6275 30.5386C53.6581 30.4226 53.758 30.3397 53.8775 30.3342Z" fill="white"/>
</svg>
