<svg width="64" height="64" viewBox="0 0 64 64" fill="none" xmlns="http://www.w3.org/2000/svg">
<g clip-path="url(#clip0_1121_8127)">
<path d="M53.6069 8L48.5045 19.1658C54.406 27.1406 50.8532 33.8088 50.8532 33.8088C47.8242 13.5559 32.393 8 32.393 8C32.393 8 16.9671 13.5559 13.9381 33.8088C13.9381 33.8088 10.3853 27.1406 16.2868 19.1658L11.1844 8C11.1844 8 -4.28466 38.7762 24.2616 56L21.5511 48.6623L24.4236 48.5003L32.3984 55.9946L40.3732 48.5003L43.2456 48.6623L40.5351 56C69.076 38.7762 53.6069 8 53.6069 8ZM42.5221 42.9228H38.3754L32.393 48.9053L26.4105 42.9228H22.2638C16.4434 38.2956 17.561 29.6891 17.561 29.6891C21.5457 34.7914 27.6901 36.3087 27.6901 36.3087L32.393 41.0115L37.0958 36.3087C37.0958 36.3087 43.2348 34.7914 47.2249 29.6891C47.2249 29.6891 48.3426 38.301 42.5221 42.9228Z" fill="#a0a0a0"/>
</g>
<defs>
<clipPath id="clip0_1121_8127">
<rect width="50.7915" height="48" fill="white" transform="translate(7 8)"/>
</clipPath>
</defs>
</svg>
