<svg width="58" height="58" viewBox="0 0 58 58" fill="none" xmlns="http://www.w3.org/2000/svg">
<g clip-path="url(#clip0_1106_19351)">
<path d="M28.7134 26.6142C28.6641 26.7497 28.4732 26.7497 28.4239 26.6142L23.1441 12.0943C23.1241 12.0389 23.138 11.9773 23.178 11.9357L28.4578 6.3911C28.5194 6.32797 28.621 6.32797 28.6811 6.3911L33.9593 11.9357C34.0009 11.9773 34.0132 12.0389 33.9932 12.0943L28.7134 26.6142Z" fill="white"/>
<path d="M45.4705 32.3189H42.605V32.3174C39.9459 19.4251 34.1133 19.4589 34.1133 19.4589L34.352 15.0599C39.1298 17.0862 44.0616 18.4088 45.8216 18.8523C46.188 18.9431 46.4067 19.3142 46.3158 19.6807C44.967 25.0729 45.4705 32.3189 45.4705 32.3189Z" fill="white"/>
<path d="M14.5339 32.3189H11.6669C11.6669 32.3189 12.1519 25.3393 10.8954 19.9825C10.7707 19.4466 11.0971 18.9108 11.6299 18.7738C13.6085 18.2657 18.2662 16.9784 22.7869 15.0614L23.0256 19.4605C23.0256 19.4605 17.1946 19.4266 14.5339 32.3189Z" fill="white"/>
<path d="M28.918 43.6161C24.0662 43.67 22.6065 41.3665 22.6065 41.3665L19.0312 43.9425C23.147 46.7541 26.7931 50.0368 28.2482 51.3918C28.6254 51.7444 29.2105 51.7444 29.5893 51.3918C31.0428 50.0368 34.6905 46.7556 38.8062 43.9425L35.2309 41.3665C35.2309 41.3665 33.7713 43.67 28.9195 43.6161H28.918Z" fill="white"/>
<path d="M24.6206 31.3058L9.72664 35.4169C9.66966 35.4323 9.62809 35.4785 9.61577 35.5355L8.15917 43.0525C8.14223 43.1388 8.20074 43.2219 8.28851 43.2342L15.8672 44.3244C15.9257 44.3321 15.9826 44.3074 16.0165 44.2597L24.79 31.5414C24.8716 31.4228 24.7607 31.2673 24.6222 31.3058H24.6206Z" fill="white"/>
<path d="M48.0343 35.406C48.0912 35.4214 48.1344 35.4676 48.1451 35.5245H48.1467L49.6048 43.04C49.6217 43.1263 49.5632 43.2094 49.4755 43.2217L41.8968 44.3119C41.8383 44.3211 41.7814 44.2949 41.7475 44.2472L32.974 31.5289C32.8924 31.4103 33.0032 31.2548 33.1418 31.2933L48.0343 35.406Z" fill="white"/>
</g>
<defs>
<clipPath id="clip0_1106_19351">
<rect width="58" height="58" fill="white"/>
</clipPath>
</defs>
</svg>
