<svg width="64" height="64" viewBox="0 0 64 64" fill="none" xmlns="http://www.w3.org/2000/svg">
<path fill-rule="evenodd" clip-rule="evenodd" d="M27.7375 6.96387C38.5485 6.96387 47.449 15.1676 48.3902 25.5931V25.5903C54.0684 28.2301 58 33.9195 58 40.5232C58 49.6412 50.5043 57.0338 41.2591 57.0338C34.6679 57.0338 28.967 53.2734 26.2395 47.8098C15.5019 47.0488 7 38.6917 7 27.4161C7 16.1405 16.3046 6.96387 27.7375 6.96387ZM11.5223 27.4189C11.5223 36.2331 18.7551 43.3832 27.6866 43.4111L27.6838 43.4083C36.6153 43.3804 43.8481 36.2303 43.8481 27.4161C43.8481 26.3039 43.7322 25.2167 43.5117 24.1686L43.622 24.1853C42.107 16.9015 35.5723 11.4239 27.7375 11.4239C18.7834 11.4239 11.5223 18.6047 11.5223 27.4189ZM22.7835 16.9182C24.307 16.2353 25.9972 15.8506 27.7806 15.8506H27.7835C34.4538 15.8506 39.858 21.1832 39.858 27.759C39.858 29.4622 39.4905 31.0817 38.8376 32.548C38.1875 32.1996 37.4442 32.0016 36.6528 32.0016C34.1288 32.0016 32.0825 34.0198 32.0825 36.5091C32.0825 37.2896 32.2831 38.0227 32.6364 38.6611C31.1497 39.305 29.5104 39.6646 27.7835 39.6646C21.1131 39.6646 15.709 34.332 15.709 27.7562C15.709 26.1004 16.051 24.5254 16.67 23.0926C17.3031 23.4216 18.0238 23.6083 18.787 23.6083C21.311 23.6083 23.3573 21.5901 23.3573 19.1009C23.3573 18.3092 23.1481 17.5649 22.7835 16.9182ZM21.3731 31.7898L23.8039 34.0449H23.801C23.9141 34.1508 24.0893 34.1453 24.1967 34.0393L33.8999 24.3916C34.0129 24.2801 34.0101 24.1017 33.8942 23.993L31.3024 21.579C31.1893 21.4731 31.0112 21.4759 30.9038 21.5874L21.3618 31.394C21.2544 31.5055 21.2601 31.6839 21.3731 31.7898Z" fill="white"/>
</svg>
