<svg width="58" height="58" viewBox="0 0 58 58" fill="none" xmlns="http://www.w3.org/2000/svg">
<g clip-path="url(#clip0_435_2552)">
<path d="M52.96 13.27C52.96 13.07 52.96 13.01 52.96 12.95C52.9647 12.8634 52.9647 12.7766 52.96 12.69C51.3 7.52002 48.18 3.77002 42.93 2.00002C38.96 0.720019 34.84 0.620019 30.72 0.690019C26.16 0.770019 21.6 1.00002 17.04 1.00002C15.5212 0.995934 14.0044 0.889022 12.5 0.680019C11.35 0.540019 10.27 0.270019 9.19001 0.0500193C8.11001 -0.169981 7.19001 0.410019 7.29001 1.43002C7.35594 1.93555 7.5601 2.41308 7.88001 2.81002C13.88 11.21 20.1567 19.4 26.71 27.38C28.4849 29.3727 29.9329 31.6341 31 34.08C32.0899 36.6017 32.332 39.409 31.69 42.08C31.2161 44.1851 29.954 46.0286 28.1629 47.232C26.3719 48.4353 24.188 48.9069 22.06 48.55C16.06 47.55 15.11 39.89 17.54 36.75C17.9282 36.2691 18.4397 35.9027 19.02 35.69C19.3009 35.5573 19.6127 35.5036 19.9219 35.5348C20.231 35.5659 20.5259 35.6807 20.7747 35.8668C21.0235 36.0529 21.2169 36.3033 21.3341 36.591C21.4514 36.8788 21.488 37.193 21.44 37.5C21.351 38.1858 21.1763 38.8577 20.92 39.5C20.6957 40.1804 20.7181 40.9181 20.9832 41.5836C21.2483 42.2492 21.7393 42.8002 22.37 43.14C22.9454 43.4055 23.5918 43.476 24.2109 43.3406C24.83 43.2052 25.3879 42.8715 25.8 42.39C26.8796 40.988 27.4397 39.255 27.385 37.4864C27.3303 35.7177 26.6642 34.0227 25.5 32.69C24.3541 31.3912 22.8781 30.4266 21.2285 29.8984C19.5789 29.3703 17.8172 29.2983 16.13 29.69C13.0549 30.2236 10.3 31.9126 8.42977 34.4113C6.55949 36.91 5.71527 40.0291 6.07001 43.13C6.60001 48.21 8.80001 52.34 13.13 55.13C15.3012 56.5091 17.7336 57.4251 20.2751 57.8209C22.8165 58.2167 25.4123 58.0836 27.9 57.43C34.96 55.81 41.5 50 41.77 41.05C42.0765 35.8363 40.3568 30.7058 36.97 26.73L23.26 10.78C23.07 10.56 22.92 10.32 22.63 9.92002C22.9331 9.90358 23.2369 9.90358 23.54 9.92002C25.11 10.07 26.69 10.17 28.24 10.41C31.7551 10.8564 35.1012 12.1804 37.97 14.26C40.1839 16.0584 42.0569 18.2397 43.5 20.7C43.62 20.89 43.75 21.07 43.9 21.28C44 21.17 44.06 21.13 44.08 21.08C45.08 18.22 45.78 15.34 45.08 12.3C44.95 11.75 45.08 11.56 45.64 11.65C46.56 11.81 47.49 11.97 48.4 12.17C49.85 12.51 51.37 12.89 52.96 13.27Z" fill="white"/>
<path d="M52.9599 13.27C51.3699 12.89 49.8499 12.51 48.3099 12.17C47.3999 11.97 46.4699 11.81 45.5499 11.65C45.0299 11.56 44.8599 11.75 44.9899 12.3C45.7299 15.3 44.9899 18.22 43.9899 21.08C43.9899 21.13 43.9099 21.17 43.8099 21.28C43.6599 21.07 43.5299 20.89 43.4099 20.7C41.9808 18.2474 40.125 16.0698 37.9299 14.27C35.0611 12.1904 31.715 10.8664 28.1999 10.42C26.6499 10.18 25.0699 10.08 23.4999 9.93C23.1968 9.91355 22.893 9.91355 22.5899 9.93C22.8799 10.33 23.0299 10.57 23.2199 10.79L36.9299 26.79C40.3167 30.7657 42.0364 35.8963 41.7299 41.11C41.4999 50 34.9599 55.81 27.8999 57.42C25.4122 58.0736 22.8164 58.2066 20.275 57.8109C17.7335 57.4151 15.3011 56.4991 13.1299 55.12C8.79992 52.34 6.59992 48.21 6.06992 43.12C5.71599 40.0147 6.56433 36.8918 8.44074 34.3924C10.3172 31.893 13.0793 30.2068 16.1599 29.68C17.8471 29.2882 19.6089 29.3603 21.2584 29.8884C22.908 30.4166 24.384 31.3812 25.5299 32.68C26.7051 34.0205 27.3751 35.7293 27.4244 37.5113C27.4737 39.2933 26.8991 41.0366 25.7999 42.44C25.3878 42.9214 24.8299 43.2552 24.2108 43.3906C23.5917 43.5259 22.9453 43.4555 22.3699 43.19C21.7392 42.8502 21.2482 42.2992 20.9831 41.6336C20.718 40.9681 20.6956 40.2304 20.9199 39.55C21.1762 38.9077 21.3509 38.2358 21.4399 37.55C21.4879 37.243 21.4513 36.9287 21.334 36.641C21.2168 36.3532 21.0234 36.1029 20.7746 35.9168C20.5258 35.7307 20.2309 35.6159 19.9218 35.5847C19.6126 35.5536 19.3009 35.6073 19.0199 35.74C18.4286 35.9379 17.9029 36.2941 17.4999 36.77C15.0699 39.91 16.0199 47.58 22.0199 48.57C24.1479 48.9269 26.3318 48.4553 28.1228 47.2519C29.9139 46.0486 31.176 44.205 31.6499 42.1C32.2919 39.4289 32.0498 36.6217 30.9599 34.1C29.8928 31.6541 28.4448 29.3927 26.6699 27.4C20.1366 19.4 13.8599 11.21 7.83992 2.83C7.52001 2.43305 7.31585 1.95553 7.24992 1.45C7.18992 0.449997 8.06992 -0.150003 9.14992 0.0699965C10.2299 0.289997 11.3499 0.539997 12.4999 0.679997C14.0043 0.889 15.5211 0.995911 17.0399 0.999997C21.5999 0.999997 26.1599 0.769997 30.7199 0.689997C34.8399 0.619997 38.9599 0.719997 42.9299 2C48.1799 3.74 51.2999 7.49 52.9299 12.66C52.9347 12.7466 52.9347 12.8334 52.9299 12.92C52.9999 13 52.9799 13.07 52.9599 13.27Z" fill="white"/>
</g>
<defs>
<clipPath id="clip0_435_2552">
<rect width="58" height="58" fill="white"/>
</clipPath>
</defs>
</svg>
