<svg width="58" height="58" viewBox="0 0 58 58" fill="none" xmlns="http://www.w3.org/2000/svg">
<g clip-path="url(#clip0_435_2555)">
<path d="M35.66 0C39.0841 0.154053 42.4609 0.859796 45.66 2.09C45.7966 2.13971 45.9109 2.23653 45.9824 2.36303C46.0539 2.48952 46.0779 2.63739 46.05 2.78C46.05 4.48 45.98 6.17 45.98 7.86C45.98 12.77 45.98 17.67 45.98 22.57C46.0358 22.9631 45.9497 23.3633 45.7371 23.6987C45.5245 24.034 45.1994 24.2827 44.82 24.4C40.3104 26.489 36.2331 29.4062 32.8 33C29.6472 36.2211 27.6379 40.3874 27.08 44.86C26.6889 48.3998 27.0711 51.9823 28.2 55.36C28.4051 55.8869 28.582 56.4243 28.73 56.97C28.7543 57.1222 28.7454 57.2778 28.704 57.4262C28.6626 57.5747 28.5896 57.7124 28.49 57.83C28.3602 57.9312 28.2073 57.9987 28.0451 58.0266C27.8829 58.0545 27.7162 58.0419 27.56 57.99C22.79 55.66 18.49 52.75 15.56 48.17C13.714 45.2503 12.5643 41.9451 12.2 38.51C11.7175 33.3441 12.3729 28.1353 14.12 23.25C15.12 20.11 16.17 16.99 17.12 13.83C17.8502 11.6312 18.149 9.31208 18 7C18 6.83 18.27 6.55 18.47 6.46C20.52 5.55 22.59 4.67 24.65 3.78C26.71 2.89 28.93 1.91 31.06 1C32.5098 0.358459 34.0748 0.0182403 35.66 0V0ZM36.66 7.92C36.4473 7.79315 36.2268 7.6796 36 7.58C35.3655 7.30995 34.6809 7.17745 33.9915 7.19124C33.302 7.20503 32.6233 7.36479 32 7.66C30.4 8.39 28.82 9.14 27.24 9.91C25.237 10.8526 23.6599 12.5117 22.82 14.56C22.51 15.3 22.32 16.08 22.05 16.83C20.93 19.93 19.73 23.01 18.68 26.13C17.337 29.661 16.7115 33.4244 16.84 37.2C16.84 37.86 17.2 38.28 17.72 38.35C18.24 38.42 18.55 38.06 18.79 37.45C19.71 35.16 20.51 32.8 21.61 30.59C25.1595 23.7638 29.3411 17.2855 34.1 11.24C34.93 10.15 35.77 9.08 36.67 7.92H36.66Z" fill="white"/>
</g>
<defs>
<clipPath id="clip0_435_2555">
<rect width="58" height="58" fill="white"/>
</clipPath>
</defs>
</svg>
