<svg width="58" height="58" viewBox="0 0 58 58" fill="none" xmlns="http://www.w3.org/2000/svg">
<g clip-path="url(#clip0_435_2557)">
<path d="M0 21.81V19.86C0.0664798 19.5765 0.116563 19.2893 0.15 19C0.327619 16.875 0.893659 14.8007 1.82 12.88C2.01 12.51 2.26 12.18 2.55 11.72C2.68 12.05 2.75 12.23 2.84 12.41C3.27439 13.4139 3.77205 14.3892 4.33 15.33C6.33 18.38 8.97 19.17 12.38 17.89C15.1217 16.7527 17.6457 15.1489 19.84 13.15C21.49 11.77 23.12 10.36 24.84 9.15C26.2093 8.15834 27.7937 7.5046 29.4639 7.24217C31.134 6.97974 32.8426 7.11606 34.45 7.64C36.3192 8.22396 38.1171 9.01556 39.81 10C40.0921 10.1789 40.432 10.2433 40.76 10.18C46.46 8.35 51.38 5.37 54.9 0.38C55.0102 0.244425 55.1306 0.117395 55.26 0C56.71 7.32 54.44 12.82 47.91 16.38C47.91 16.47 47.96 16.52 47.99 16.54L48.33 16.79C50.9553 18.4381 53.1548 20.6822 54.75 23.34C56.1993 25.6757 57.2945 28.2133 58 30.87C58.15 31.43 58 31.54 57.46 31.53C56.46 31.53 55.51 31.53 54.54 31.53L53.8 31.58C53.9 31.86 53.96 32.07 54.05 32.27C56.2212 36.8134 57.1493 41.8511 56.74 46.87C56.68 47.6 56.59 47.69 55.93 47.42C54.8 46.95 53.69 46.42 52.58 45.96C51.71 45.56 51.68 45.57 51.37 46.5C50.8429 48.1597 50.8674 49.9454 51.44 51.59C52.2305 53.9512 53.4851 56.1306 55.13 58H0.12C3 56.55 5.86 55.15 8.68 53.64C13.57 51.01 18.46 48.37 23.27 45.64C26.853 43.6228 30.1294 41.104 33 38.16C35.272 35.983 36.8247 33.1639 37.45 30.08C37.55 29.46 37.58 28.82 37.67 28.08C37.25 28.27 37.01 28.37 36.78 28.49L28.91 32.72C28.59 32.89 28.33 33 27.98 32.72C26.2181 31.1446 24.1127 30.0024 21.8315 29.3844C19.5502 28.7663 17.1562 28.6895 14.84 29.16C12.2931 29.4603 9.95902 30.7276 8.32 32.7C8.08 33 7.86 32.94 7.57 32.81C5.72574 32.0687 4.09968 30.8716 2.84397 29.3308C1.58825 27.7901 0.743929 25.9559 0.39 24C0.23 23.29 0.13 22.55 0 21.81ZM20.09 22.19L20.24 22.33C20.3163 22.3403 20.3937 22.3403 20.47 22.33L35.74 17.47C36.12 17.35 36.14 17.15 35.96 16.83C35.6558 16.2662 35.2429 15.7682 34.7451 15.3648C34.2474 14.9615 33.6746 14.6608 33.06 14.48C31.5988 14.1006 30.0536 14.2095 28.66 14.79C26.0104 15.8358 23.6826 17.5602 21.91 19.79C21.27 20.56 20.7 21.39 20.09 22.19Z" fill="white"/>
</g>
<defs>
<clipPath id="clip0_435_2557">
<rect width="58" height="58" fill="white"/>
</clipPath>
</defs>
</svg>
