<svg width="58" height="58" viewBox="0 0 58 58" fill="none" xmlns="http://www.w3.org/2000/svg">
<g clip-path="url(#clip0_435_2559)">
<path d="M26.4301 0H26.1601C26.0601 0.08 25.9501 0.15 25.8601 0.23L4.39009 18.34C4.21545 18.4749 4.09036 18.6638 4.03428 18.8772C3.97821 19.0907 3.99432 19.3167 4.08009 19.52C6.33009 27.23 8.55009 35 10.8101 42.66C10.9357 43.0684 11.175 43.4326 11.5001 43.71L28.4301 57.71C28.4967 57.7916 28.5806 57.8573 28.6757 57.9024C28.7708 57.9476 28.8748 57.971 28.9801 57.971C29.0854 57.971 29.1894 57.9476 29.2845 57.9024C29.3796 57.8573 29.4635 57.7916 29.5301 57.71C35.2034 53.0033 40.8701 48.3 46.5301 43.6C46.8016 43.3601 46.9993 43.048 47.1001 42.7C49.4001 34.94 51.7001 27.16 54.0001 19.36C54.079 19.1861 54.0932 18.9898 54.04 18.8064C53.9868 18.623 53.8698 18.4646 53.7101 18.36L32.2401 0.33C32.082 0.20747 31.9149 0.0971513 31.7401 0C31.6796 0.148774 31.6327 0.302741 31.6001 0.46C31.3585 3.66123 31.6217 6.88053 32.3801 10C33.0969 13.0935 34.8639 15.8429 37.3801 17.78C37.672 18.007 38.0155 18.1581 38.3801 18.22C41.9101 18.62 45.4401 18.99 48.9601 19.38C49.3414 19.4407 49.7187 19.5242 50.0901 19.63C49.7901 19.88 49.6301 20.04 49.4501 20.18C48.9001 20.61 48.3201 21 47.8001 21.45C44.2826 24.6143 41.166 28.1977 38.5201 32.12C35.7613 35.8566 33.5365 39.9594 31.9101 44.31C31.0401 46.82 30.2801 49.38 29.4601 51.91C29.3501 52.25 29.1901 52.56 29.0501 52.91H28.8601C28.7001 52.49 28.5201 52.09 28.3801 51.66C27.5301 49.03 26.7701 46.36 25.8201 43.76C23.9356 38.9707 21.3654 34.4805 18.1901 30.43C15.3001 26.57 12.1901 22.86 8.27009 20.03C8.16493 19.9112 8.0743 19.7803 8.00009 19.64C8.07863 19.5907 8.1625 19.5504 8.25009 19.52C11.5601 19.12 14.8601 18.64 18.1701 18.36C19.531 18.3459 20.8344 17.8088 21.8101 16.86C23.2187 15.4309 24.3212 13.7296 25.0501 11.86C25.9034 9.55853 26.3762 7.13346 26.4501 4.68C26.4901 3.11 26.4301 1.57 26.4301 0ZM23.6301 26.65C23.6301 26.91 23.6301 27.17 23.6801 27.42C23.7319 27.7422 23.8088 28.0598 23.9101 28.37C24.9853 31.3306 26.5992 34.0667 28.6701 36.44C28.9701 36.81 29.1701 36.62 29.3801 36.35C31.1189 34.2677 32.5687 31.9602 33.6901 29.49C34.1073 28.5961 34.3236 27.6215 34.3236 26.635C34.3236 25.6485 34.1073 24.6739 33.6901 23.78C32.5406 21.3452 31.0856 19.0669 29.3601 17C29.0101 16.57 28.7801 16.75 28.5601 17.09C27.2801 19.04 25.9401 20.96 24.7401 22.96C24.0475 24.0836 23.6645 25.3705 23.6301 26.69V26.65Z" fill="white"/>
<path d="M26.4301 0C26.4301 1.53 26.4901 3.07 26.4301 4.59C26.351 7.05862 25.8679 9.49759 25.0001 11.81C24.2712 13.6796 23.1687 15.3809 21.7601 16.81C20.7844 17.7588 19.481 18.2959 18.1201 18.31C14.8101 18.59 11.5101 19.07 8.20009 19.47C8.11249 19.5004 8.02863 19.5407 7.95009 19.59C8.04431 19.7265 8.15517 19.8508 8.28009 19.96C12.2801 22.79 15.2801 26.5 18.2001 30.36C21.3754 34.4105 23.9456 38.9007 25.8301 43.69C26.7801 46.29 27.5401 48.96 28.3901 51.59C28.5301 52.02 28.7101 52.42 28.8701 52.84H29.0601C29.2001 52.51 29.3601 52.2 29.4701 51.84C30.2901 49.31 31.0501 46.75 31.9201 44.24C33.5465 39.8894 35.7713 35.7866 38.5301 32.05C41.176 28.1277 44.2926 24.5443 47.8101 21.38C48.3301 20.93 48.9101 20.54 49.4601 20.11C49.6401 19.97 49.8001 19.81 50.1001 19.56C49.7372 19.4789 49.3699 19.4188 49.0001 19.38C45.4801 18.99 42.0001 18.62 38.4201 18.22C38.0555 18.1581 37.712 18.007 37.4201 17.78C34.9039 15.8429 33.1369 13.0935 32.4201 10C31.6483 6.88265 31.3716 3.66332 31.6001 0.46C31.6327 0.302741 31.6796 0.148774 31.7401 0C31.9149 0.0971513 32.082 0.20747 32.2401 0.33L53.6601 18.4C53.8198 18.5046 53.9368 18.663 53.99 18.8464C54.0432 19.0298 54.029 19.2261 53.9501 19.4C51.6701 27.1333 49.3968 34.9133 47.1301 42.74C47.0293 43.088 46.8316 43.4001 46.5601 43.64C40.8868 48.3467 35.2201 53.05 29.5601 57.75C29.4935 57.8316 29.4096 57.8973 29.3145 57.9424C29.2194 57.9876 29.1154 58.011 29.0101 58.011C28.9048 58.011 28.8008 57.9876 28.7057 57.9424C28.6106 57.8973 28.5267 57.8316 28.4601 57.75L11.5301 43.75C11.205 43.4726 10.9657 43.1084 10.8401 42.7C8.55009 35 6.33009 27.23 4.08009 19.52C3.99432 19.3167 3.97821 19.0907 4.03428 18.8772C4.09036 18.6638 4.21545 18.4749 4.39009 18.34L25.8601 0.23C25.9501 0.15 26.0601 0.08 26.1601 0H26.4301Z" fill="white"/>
<path d="M23.6299 26.6901C23.6572 25.357 24.0405 24.0554 24.7399 22.9201C25.9399 20.9201 27.2799 19.0001 28.5599 17.0501C28.7799 16.7101 29.0099 16.5301 29.3599 16.9601C31.0841 19.053 32.5326 21.3585 33.6699 23.8201C34.0871 24.714 34.3034 25.6886 34.3034 26.6751C34.3034 27.6616 34.0871 28.6362 33.6699 29.5301C32.5485 32.0003 31.0987 34.3078 29.3599 36.3901C29.1499 36.6601 28.9499 36.8501 28.6499 36.4801C26.579 34.1068 24.9651 31.3707 23.8899 28.4101C23.7886 28.0999 23.7117 27.7823 23.6599 27.4601C23.6399 27.2101 23.6499 27.0001 23.6299 26.6901Z" fill="white"/>
</g>
<defs>
<clipPath id="clip0_435_2559">
<rect width="58" height="58" fill="white"/>
</clipPath>
</defs>
</svg>
