<svg width="58" height="58" viewBox="0 0 58 58" fill="none" xmlns="http://www.w3.org/2000/svg">
<g clip-path="url(#clip0_435_2561)">
<path d="M29.43 49.14C29.14 48.66 28.91 48.29 28.69 47.91C24.1966 40.11 19.71 32.31 15.23 24.51C15.1006 24.331 15.031 24.1158 15.031 23.895C15.031 23.6742 15.1006 23.459 15.23 23.28C19.8966 15.6667 24.53 8.05 29.13 0.43C29.2 0.31 29.29 0.2 29.43 0C29.58 0.22 29.72 0.38 29.83 0.56C34.4366 8.14 39.05 15.7233 43.67 23.31C43.7928 23.4803 43.8589 23.685 43.8589 23.895C43.8589 24.105 43.7928 24.3097 43.67 24.48C39.05 32.48 34.44 40.48 29.84 48.48C29.74 48.7 29.61 48.87 29.43 49.14ZM29.43 39.03C29.6 38.76 29.72 38.6 29.82 38.43C31.64 35.15 33.44 31.86 35.27 28.58C35.3928 28.4097 35.4589 28.205 35.4589 27.995C35.4589 27.785 35.3928 27.5803 35.27 27.41C33.47 24.47 31.69 21.53 29.89 18.58C29.78 18.4 29.65 18.23 29.48 17.98C29.31 18.21 29.18 18.36 29.08 18.53C27.2466 21.51 25.4233 24.4867 23.61 27.46C23.4982 27.6254 23.4385 27.8204 23.4385 28.02C23.4385 28.2196 23.4982 28.4146 23.61 28.58C25.45 31.87 27.27 35.18 29.1 38.48C29.17 38.63 29.28 38.78 29.44 39L29.43 39.03Z" fill="white"/>
<path d="M29.19 58C29.0969 58.0092 29.0031 58.0092 28.91 58C24.1893 55.7981 19.6075 53.3101 15.19 50.5499C11.4152 48.1381 8.19993 44.9467 5.76 41.1899C3.91691 38.1951 2.65172 34.8811 2.03 31.42C1.97109 31.1416 1.99902 30.8519 2.11 30.59C3.63 27.45 5.17 24.33 6.71 21.2C6.76166 21.1109 6.82195 21.0272 6.89 20.95C7.01 21.14 7.11 21.28 7.19 21.44C9.08 24.85 10.96 28.26 12.86 31.66C12.973 31.8378 13.0329 32.0442 13.0329 32.255C13.0329 32.4657 12.973 32.6721 12.86 32.8499C11.9757 34.4144 11.3923 36.1307 11.14 37.91C10.9921 38.8069 11.1542 39.7275 11.5996 40.5201C12.0449 41.3126 12.747 41.9298 13.59 42.27C15.1736 42.9324 16.8734 43.2723 18.59 43.27C18.811 43.2702 19.028 43.3285 19.2193 43.4391C19.4106 43.5496 19.5695 43.7086 19.68 43.9C22.76 48.48 25.85 53.06 28.95 57.6399C29.0352 57.7564 29.1152 57.8765 29.19 58Z" fill="white"/>
<path d="M52.18 20.8899C52.31 21.1399 52.42 21.3299 52.52 21.5299C53.95 24.4599 55.4 27.3799 56.81 30.3199C56.9799 30.6849 57.0357 31.0927 56.97 31.4899C56.3031 35.1518 54.9102 38.6432 52.8734 41.7586C50.8366 44.8739 48.1969 47.5502 45.11 49.6299C41.7224 51.963 38.1544 54.0229 34.44 55.7899L30.52 57.7899C30.3238 57.8993 30.1045 57.961 29.88 57.9699C29.98 57.7899 30.08 57.6099 30.19 57.4399C33.23 52.9399 36.2633 48.4399 39.29 43.9399C39.4248 43.7197 39.6126 43.5367 39.8361 43.4074C40.0596 43.2782 40.3119 43.2069 40.57 43.1999C41.9611 43.0767 43.3413 42.8528 44.7 42.5299C45.4679 42.3763 46.1738 42.0007 46.7302 41.4496C47.2866 40.8985 47.669 40.1963 47.83 39.4299C48.0437 38.3203 47.9397 37.173 47.53 36.1199C47.11 34.9499 46.53 33.8299 46.12 32.6699C46.01 32.4007 46.01 32.0991 46.12 31.8299C48.05 28.2799 50.01 24.7499 51.96 21.2199C52.0252 21.1047 52.0987 20.9944 52.18 20.8899Z" fill="white"/>
</g>
<defs>
<clipPath id="clip0_435_2561">
<rect width="58" height="58" fill="white"/>
</clipPath>
</defs>
</svg>
