<svg width="58" height="58" viewBox="0 0 58 58" fill="none" xmlns="http://www.w3.org/2000/svg">
<g clip-path="url(#clip0_435_2566)">
<path d="M27.6261 58.0001L25.1637 57.7301C17.3993 56.9976 10.0627 53.896 4.18193 48.8601C3.11351 48.0001 2.05527 47.0001 0.997022 46.1101C0.576499 45.8357 0.264325 45.428 0.112502 44.9549C-0.0393207 44.4819 -0.0216271 43.9719 0.162636 43.5101C0.349722 43.0553 0.684827 42.6742 1.1156 42.4263C1.54637 42.1785 2.04855 42.0778 2.54369 42.1401H12.5767V41.9801C12.3919 41.8762 12.215 41.7593 12.0475 41.6301C11.2783 41.0833 10.5568 40.4746 9.89036 39.8101C9.3491 39.2121 8.94307 38.508 8.69905 37.7444C8.45503 36.9808 8.37858 36.175 8.47474 35.3802C8.57091 34.5854 8.83749 33.8198 9.25691 33.1337C9.67633 32.4476 10.239 31.8567 10.9079 31.4001C12.5908 30.1579 14.6244 29.4591 16.7283 29.4001C21.4293 29.2701 26.1304 29.3001 30.8314 29.2501C33.1935 29.2583 35.5236 28.7133 37.6286 27.6601C38.7601 27.1324 39.7421 26.339 40.4879 25.3501C41.6581 23.7101 41.2205 22.1501 39.3075 21.5001C38.3694 21.2009 37.3933 21.0326 36.4075 21.0001C34.1588 20.9301 31.8998 21.0001 29.6612 21.0001C25.4141 21.0365 21.1748 20.6343 17.0132 19.8001C13.2615 19.0174 9.83028 17.159 7.15316 14.4601C6.08656 13.3543 5.37824 11.9621 5.11807 10.4601C4.9424 9.50735 4.98553 8.52806 5.24432 7.59379C5.50311 6.65952 5.97102 5.79388 6.61386 5.0601C8.20079 3.19377 10.3315 1.85013 12.7191 1.2101C18.1833 -0.419898 23.6577 -0.559898 28.9998 1.7501C30.4158 2.49017 31.776 3.32899 33.07 4.2601L33.4872 4.5201L33.3753 4.7201C32.5612 4.7201 31.7472 4.8401 30.9332 4.8401C28.2474 4.76021 25.5611 4.97826 22.9251 5.4901C21.8035 5.74056 20.7288 6.16235 19.7402 6.7401C19.1026 7.12105 18.602 7.68817 18.3083 8.36226C18.0146 9.03635 17.9425 9.78376 18.1019 10.5001C18.1822 10.9348 18.3494 11.3496 18.594 11.7204C18.8385 12.0912 19.1555 12.4106 19.5265 12.6601C21.221 13.937 23.243 14.7263 25.3672 14.9401C26.3805 15.0525 27.4003 15.0992 28.4198 15.0801C31.9202 15.0801 35.4205 15.0801 38.9209 15.0801C42.3229 15.0166 45.6991 15.6714 48.8216 17.0001C49.9613 17.5105 51.0176 18.1845 51.9556 19.0001C52.8665 19.8113 53.4762 20.8978 53.6881 22.0877C53.9001 23.2777 53.7022 24.5031 53.1258 25.5701C52.2286 27.3362 50.8561 28.8268 49.1574 29.8801C46.2138 31.8001 42.8551 33.019 39.3482 33.4401C37.0396 33.7337 34.7159 33.8973 32.3883 33.9301C28.6437 34.0101 24.8991 33.9301 21.1953 33.9301C20.0307 33.9616 18.8778 34.1673 17.7763 34.5401C15.7412 35.2601 15.2325 36.9401 16.5146 38.6801C17.8737 40.475 19.9003 41.6686 22.1518 42.0001C22.7233 42.0938 23.3022 42.1373 23.8816 42.1301H55.1202C55.3675 42.1151 55.6156 42.1151 55.863 42.1301C56.3119 42.1227 56.7515 42.2565 57.1176 42.512C57.4837 42.7674 57.7572 43.1312 57.8981 43.5501C58.0574 43.9329 58.0921 44.3548 57.9973 44.7577C57.9026 45.1607 57.683 45.5249 57.369 45.8001C54.1324 48.9387 50.4764 51.6301 46.5016 53.8001C42.2577 55.9581 37.6396 57.3149 32.8868 57.8001C32.0626 57.8701 31.2384 57.9701 30.4244 58.0601L27.6261 58.0001Z" fill="white"/>
</g>
<defs>
<clipPath id="clip0_435_2566">
<rect width="58" height="58" fill="white"/>
</clipPath>
</defs>
</svg>
