<?xml version="1.0" encoding="utf-8"?>
<!-- Generator: Adobe Illustrator 26.0.2, SVG Export Plug-In . SVG Version: 6.00 Build 0)  -->
<svg version="1.1" id="Layer_1" xmlns="http://www.w3.org/2000/svg" xmlns:xlink="http://www.w3.org/1999/xlink" x="0px" y="0px"
	 viewBox="0 0 144 144" style="enable-background:new 0 0 144 144;" xml:space="preserve">
<g fill="#a0a0a0">
	<g>
		<path d="M88.4,38L72,25.3L55.6,38l-9.2,65.8L72,118.7l25.6-14.9L88.4,38z M72,105.9V90.4L59.8,71.7l5.8-27.5l6.4-4.9l6.4,4.9
			l0.1,0.6l-3.2,15.4l9.5,14.6l4.4,21L72,105.9z"/>
	</g>
	<polygon points="38.7,53 31.3,46.3 23.9,53 18,87.3 30.7,94.7 31.3,95 32,94.7 44.7,87.3 	"/>
	<polygon points="105.3,53 112.7,46.3 120.1,53 126,87.3 113.3,94.7 112.7,95 112,94.7 99.3,87.3 	"/>
</g>
</svg>
