<?xml version="1.0" encoding="utf-8"?>
<!-- Generator: Adobe Illustrator 26.0.2, SVG Export Plug-In . SVG Version: 6.00 Build 0)  -->
<svg version="1.1" id="Layer_1" xmlns="http://www.w3.org/2000/svg" xmlns:xlink="http://www.w3.org/1999/xlink" x="0px" y="0px"
	 viewBox="0 0 144 144" style="enable-background:new 0 0 144 144;" xml:space="preserve">
<g fill="#fff">
	<g>
		<path d="M72,104.6c-22,0-45.9-20-49.2-26.4V86c0,11.6,6.5,22.2,16.9,27.4l18.6,9.3c8.7,4.3,18.8,4.3,27.5,0l18.6-9.3
			c10.4-5.2,16.9-15.8,16.9-27.4v-7.9C117.9,84.6,94,104.6,72,104.6z"/>
		<path d="M113.7,23.2c-8.3-7.6-21.8-4.7-21.8-4.7s10.9,15-6.7,22.1c-8.7-1.6-17.7-1.6-26.4,0c-17.6-7.1-6.7-22.1-6.7-22.1
			s-13.5-2.9-21.8,4.7C22,30.8,19,39.1,19,39.1c-0.3,0.8-0.6,1.6-0.9,2.4c1.4-0.9,3.2-2.2,5.6-4.2c7.3-6.3,17.1-8.5,14.1,3.5
			c5.6-3,8.6-0.3,10.2,2.7c-2.8,1-5.6,2.2-8.4,3.5h0c-10.4,5.2-16.9,15.8-16.9,27.4v3.7c2.9,0.3,6.2,1.7,10,3.5
			C35.6,72.1,45.9,70,45.9,70c-1.9,12.3,3.6,18.3,8.5,21.2c5.4,1.7,11.2,2.9,17.6,2.9c6.3,0,12.2-1.2,17.6-2.9
			c4.9-2.9,10.4-8.9,8.5-21.2c0,0,10.3,2.1,13.2,11.6c3.8-1.8,7.1-3.2,10-3.5v-3.7c0-11.6-6.5-22.2-16.9-27.4h0
			c-2.7-1.4-5.5-2.5-8.4-3.5c1.6-3,4.6-5.8,10.2-2.7c-3-12,6.8-9.8,14.1-3.5c2.3,2,4.1,3.4,5.6,4.2c-0.3-0.8-0.5-1.6-0.9-2.4
			C125,39.1,122,30.8,113.7,23.2z M52.7,64.1C49,61.3,47,57,47.2,52.7c4.1-1.3,8.8-0.7,12.6,2.1c3.7,2.8,5.7,7.1,5.5,11.5
			C61.1,67.6,56.4,67,52.7,64.1z M96.8,52.7C97,57,95,61.3,91.3,64.1c-3.7,2.8-8.4,3.4-12.6,2.1c-0.1-4.3,1.8-8.7,5.5-11.5
			C88,52,92.7,51.3,96.8,52.7z"/>
	</g>
</g>
</svg>
