<svg width="58" height="58" viewBox="0 0 58 58" fill="none" xmlns="http://www.w3.org/2000/svg">
<g clip-path="url(#clip0_476_2488)">
<path d="M28.186 4.16677V53.8333C28.186 54.4763 27.6643 55 27.0239 55H1.16171C0.443747 55 -0.103764 54.357 0.0150353 53.6466C0.825971 48.7826 4.66888 32.3499 19.9785 29.7519C19.9785 29.7519 10.1801 27.4911 12.0344 14.6C12.2979 13.0339 12.9332 10.7368 14.6016 8.55369C18.336 3.64822 24.4154 3.02597 27.0187 3.00004C27.6643 2.99485 28.186 3.51859 28.186 4.16677Z" fill="white"/>
<path d="M56.1923 54.8807C55.2987 54.8807 54.5239 54.217 54.4051 53.3043C51.8535 34.1595 34.7877 32.1113 34.0594 32.0335C33.1658 31.935 32.4788 31.1986 32.4427 30.2964C32.4065 29.3941 33.0367 28.6059 33.9199 28.44C43.6408 26.6406 43.1915 19.412 43.1088 18.5927C43.1088 18.5564 43.1037 18.5098 43.0985 18.4735C42.6801 8.34103 32.6441 6.78539 32.2154 6.72316C31.2289 6.58316 30.5419 5.66533 30.6762 4.6749C30.8157 3.68447 31.7247 2.9948 32.7113 3.12963C37.3548 3.76744 46.2338 7.74989 46.709 18.2609C47.0395 21.3462 45.8929 26.8169 40.3299 29.9956C46.6573 32.4172 56.0683 38.4065 57.9898 52.8273C58.124 53.8229 57.4267 54.7355 56.4402 54.8652C56.3576 54.8755 56.2801 54.8807 56.1974 54.8807H56.1923Z" fill="white"/>
</g>
<defs>
<clipPath id="clip0_476_2488">
<rect width="58" height="52" fill="white" transform="translate(0 3)"/>
</clipPath>
</defs>
</svg>
