<svg width="58" height="58" viewBox="0 0 58 58" fill="none" xmlns="http://www.w3.org/2000/svg">
<g clip-path="url(#clip0_435_2563)">
<path d="M28.6026 12.45C33.2326 12.63 37.0026 14.35 39.4126 18.45C40.0853 19.6557 40.5039 20.9864 40.6426 22.36C40.6579 22.4851 40.6478 22.612 40.613 22.7331C40.5782 22.8543 40.5194 22.9672 40.4401 23.0651C40.3608 23.1631 40.2627 23.2441 40.1514 23.3033C40.0402 23.3626 39.9182 23.3989 39.7926 23.41C38.8826 23.58 37.9426 23.65 37.0526 23.89C33.9113 24.6929 31.1809 26.6355 29.3926 29.34C28.9326 30.02 28.3926 30.2 27.8726 29.85C27.6926 29.7368 27.5418 29.5826 27.4326 29.4C26.4209 27.8918 25.1028 26.6136 23.5642 25.6487C22.0256 24.6839 20.3009 24.0539 18.5026 23.8C18.1126 23.73 17.7226 23.7 17.3226 23.66C16.3226 23.57 16.0526 23.23 16.2026 22.27C16.4515 20.4171 17.2018 18.6675 18.3726 17.21C20.4753 14.5954 23.5279 12.9199 26.8626 12.55C27.1442 12.5052 27.4279 12.4752 27.7126 12.46C28.0326 12.44 28.3126 12.45 28.6026 12.45Z" fill="white"/>
<path d="M40.7726 27.23C44.7726 27.38 47.9626 28.98 49.8626 32.63C50.6274 34.099 50.9174 35.7691 50.6926 37.41C50.6926 37.5584 50.6634 37.7053 50.6066 37.8424C50.5498 37.9795 50.4666 38.1041 50.3616 38.209C50.2567 38.3139 50.1321 38.3972 49.995 38.454C49.8579 38.5108 49.711 38.54 49.5626 38.54C47.7538 38.6947 46.0001 39.2397 44.4222 40.1374C42.8443 41.0351 41.4798 42.2642 40.4226 43.74L40.2226 43.99C39.6826 44.66 39.0826 44.57 38.7726 43.78C37.9333 41.4867 36.3349 39.5494 34.2426 38.29C33.3361 37.7929 32.3853 37.3811 31.4026 37.06C30.5426 36.76 30.2726 36.43 30.5026 35.56C30.946 33.4844 32.0097 31.5926 33.5527 30.1353C35.0957 28.6781 37.0451 27.7241 39.1426 27.4C39.6825 27.3142 40.2266 27.2574 40.7726 27.23Z" fill="white"/>
<path d="M6.00273 36.59C6.02723 34.9872 6.48315 33.4207 7.32254 32.0552C8.16193 30.6896 9.35377 29.5755 10.7727 28.83C12.1906 27.9874 13.7882 27.4934 15.4341 27.3887C17.0801 27.284 18.7274 27.5715 20.2406 28.2275C21.7538 28.8835 23.0897 29.8894 24.1384 31.1624C25.187 32.4354 25.9185 33.9391 26.2727 35.55C26.4627 36.37 26.2727 36.76 25.4227 36.98C23.7594 37.4019 22.2201 38.2132 20.9318 39.3467C19.6435 40.4803 18.643 41.9038 18.0127 43.5C17.8727 43.83 17.7727 44.19 17.3227 44.23C16.8727 44.27 16.6027 43.99 16.3227 43.66C14.6241 41.2869 12.147 39.5848 9.32273 38.85C8.67978 38.692 8.02885 38.5685 7.37273 38.48C6.30273 38.31 6.09273 38.1 6.01273 37C6.00032 36.8637 5.99698 36.7267 6.00273 36.59Z" fill="white"/>
<path d="M36.9127 49.76C36.9127 50.69 36.7527 50.92 35.9127 51.18C34.4468 51.6356 33.0943 52.3971 31.9445 53.4141C30.7947 54.4312 29.8738 55.6806 29.2427 57.08C29.1935 57.2132 29.1298 57.3407 29.0527 57.46C28.8527 57.67 28.6227 58.01 28.4127 58C28.2027 57.99 27.9027 57.69 27.7927 57.45C27.1176 55.9558 26.1716 54.5996 25.0027 53.45C23.8441 52.2932 22.4241 51.4322 20.8627 50.94C20.0027 50.68 19.7827 50.28 19.8627 49.39C19.9283 47.8613 20.3205 46.3644 21.0127 45C21.7092 43.6142 22.7844 42.4543 24.1136 41.6551C25.4428 40.8558 26.9714 40.4499 28.522 40.4845C30.0726 40.519 31.5816 40.9926 32.8738 41.8503C34.1661 42.708 35.1886 43.9145 35.8227 45.33C36.4916 46.7142 36.8629 48.2233 36.9127 49.76Z" fill="white"/>
<path d="M44.2726 0C44.487 0.105167 44.6856 0.239805 44.8626 0.4C45.0522 0.635416 45.1979 0.903011 45.2926 1.19C45.6226 2.07 45.9326 2.97 46.2926 3.86C46.4977 4.51215 46.8549 5.10618 47.3348 5.59304C47.8147 6.0799 48.4035 6.44562 49.0526 6.66L51.8826 7.66C52.4626 7.87 53.0526 8.14 53.0526 8.83C53.0526 9.52 52.4426 9.83 51.8626 9.98C50.9226 10.32 49.9726 10.65 49.0326 10.98C48.4458 11.181 47.9113 11.5108 47.4684 11.9451C47.0254 12.3794 46.6852 12.9072 46.4726 13.49C46.1226 14.42 45.7926 15.37 45.4726 16.3C45.2526 16.9 45.0426 17.56 44.2726 17.57C43.5026 17.58 43.2726 16.92 43.0526 16.32C42.6726 15.32 42.3026 14.32 41.9026 13.32C41.7144 12.8135 41.4197 12.3533 41.0384 11.9703C40.6572 11.5873 40.1983 11.2906 39.6926 11.1C38.6926 10.73 37.7726 10.4 36.8226 10.05C36.5642 9.97264 36.3132 9.87223 36.0726 9.75C35.2426 9.29 35.2026 8.44 36.0726 7.99C36.7058 7.65608 37.3775 7.40086 38.0726 7.23C39.2162 7.01714 40.2688 6.46423 41.0931 5.64354C41.9174 4.82285 42.4748 3.77258 42.6926 2.63C42.818 2.02477 42.9885 1.42977 43.2026 0.85C43.2845 0.622959 43.428 0.42319 43.617 0.273066C43.8059 0.122943 44.033 0.028391 44.2726 0V0Z" fill="white"/>
</g>
<defs>
<clipPath id="clip0_435_2563">
<rect width="58" height="58" fill="white"/>
</clipPath>
</defs>
</svg>
