<svg width="58" height="58" viewBox="0 0 58 58" fill="none" xmlns="http://www.w3.org/2000/svg">
<g clip-path="url(#clip0_435_2564)">
<path d="M58 10.0001C57.7774 10.7547 57.5035 11.493 57.18 12.2101C54.1724 17.8817 50.4779 23.1614 46.18 27.9301C45.2459 28.9749 44.0624 29.7662 42.74 30.2301C37.11 32.2301 31.47 34.1701 25.88 36.2301C17.8349 39.1638 10.0311 42.7213 2.53996 46.8701C2.05397 47.1542 1.53734 47.3824 0.999965 47.5501C0.179965 47.7901 -0.240035 47.3701 0.119965 46.6001C0.636028 45.447 1.26581 44.3482 1.99996 43.3201C3.99996 40.6501 6.07996 38.0001 8.15996 35.4301C13.37 28.9301 18.72 22.5601 24.49 16.5601C26.23 14.7401 28.11 13.0601 29.91 11.3201C31.6152 9.72465 33.7754 8.70047 36.09 8.39012C41.1302 7.42346 46.2593 6.99771 51.39 7.12012C53.0339 7.24048 54.6657 7.49127 56.27 7.87012C56.7756 7.93759 57.2363 8.1957 57.5579 8.59164C57.8795 8.98758 58.0376 9.49143 58 10.0001ZM51.32 11.8701C43.61 14.0001 36.56 17.2501 30.91 23.2301C31.28 23.3301 31.5 23.4001 31.73 23.4501C34.55 23.9901 37.38 24.4501 40.19 25.0701C40.4952 25.1508 40.8168 25.1448 41.1188 25.053C41.4208 24.9611 41.6913 24.787 41.9 24.5501C45.5462 20.9794 48.6341 16.8801 51.06 12.3901C51.16 12.2101 51.23 12.0001 51.32 11.8201V11.8701Z" fill="white"/>
<path d="M39.3899 54L29.6899 53.32C27.0599 53.14 24.4299 52.93 21.7899 52.76C19.4399 52.61 17.0799 52.5 14.7199 52.37C14.2299 52.37 13.8199 52.1 13.7899 51.65C13.7852 51.4592 13.8242 51.2699 13.9039 51.0966C13.9837 50.9233 14.102 50.7705 14.2499 50.65C15.5675 49.7615 16.9292 48.9405 18.3299 48.19C24.9421 44.8402 31.8146 42.031 38.8799 39.79C39.9468 39.4499 41.093 39.4499 42.1599 39.79C45.978 40.9372 49.5656 42.7445 52.7599 45.13C53.0925 45.3608 53.3592 45.6742 53.5337 46.0394C53.7083 46.4046 53.7847 46.8089 53.7554 47.2127C53.7261 47.6164 53.5922 48.0055 53.3668 48.3417C53.1414 48.6779 52.8323 48.9496 52.4699 49.13C49.286 50.7812 45.9875 52.2015 42.5999 53.38C41.585 53.8088 40.4915 54.02 39.3899 54Z" fill="white"/>
<path d="M20.25 4C21.67 4 22.34 4.83 21.85 5.87C20.5167 8.75667 19.13 11.62 17.69 14.46C17.3854 14.9276 16.9828 15.3234 16.51 15.62C13.22 18.11 9.92001 20.62 6.62001 23.06C6.09001 23.46 5.62001 23.9 5.05001 24.29C4.90001 24.4 4.59001 24.51 4.50001 24.44C4.41735 24.3636 4.35154 24.2707 4.30677 24.1674C4.262 24.0641 4.23927 23.9526 4.24001 23.84C4.25583 23.5513 4.32006 23.2674 4.43001 23C6.0984 18.1473 8.14467 13.4328 10.55 8.9C10.884 8.22512 11.4427 7.68767 12.13 7.38C14.31 6.38 16.46 5.38 18.64 4.44C19.162 4.24411 19.7009 4.09682 20.25 4Z" fill="white"/>
</g>
<defs>
<clipPath id="clip0_435_2564">
<rect width="58" height="58" fill="white"/>
</clipPath>
</defs>
</svg>
