<svg width="58" height="58" viewBox="0 0 58 58" fill="none" xmlns="http://www.w3.org/2000/svg">
<g clip-path="url(#clip0_435_2565)">
<path d="M33.8201 5.08871C37.2801 5.36871 40.7401 5.59871 44.2001 5.92871C48.4415 6.36245 52.6526 7.05372 56.8101 7.99871C57.1092 8.06377 57.3917 8.18972 57.6401 8.36871C58.2201 8.83871 58.0801 9.44871 57.3601 9.64871C56.0201 10.0187 54.6801 10.3687 53.3601 10.7187L49.0001 11.8287C47.8901 12.1187 47.6701 12.8287 48.5301 13.5487C50.4101 15.1887 52.3501 16.7687 54.2701 18.3787C54.6301 18.6787 55.0001 18.9687 55.3501 19.2787C56.0201 19.8687 55.9701 20.2787 55.1701 20.6987C52.3101 22.0587 49.4801 23.4687 46.5901 24.6987C39.3101 27.9987 32.0001 31.0987 24.6601 34.2787H24.6101C23.8601 34.5787 23.5401 34.9687 23.6101 35.4587C23.7007 35.7656 23.8998 36.029 24.1702 36.2001C24.4406 36.3712 24.7639 36.4382 25.0801 36.3887L29.6301 36.1987L35.0501 35.9087C37.5901 35.7787 40.1401 35.6687 42.6901 35.5587C43.1001 35.5587 43.5801 35.4387 43.8001 35.8987C43.8919 36.1165 43.9162 36.3569 43.8699 36.5887C43.8235 36.8205 43.7086 37.033 43.5401 37.1987C41.5655 39.636 39.3768 41.8917 37.0001 43.9387C31.6829 48.5042 26.0853 52.7324 20.2401 56.5987C19.9862 56.7896 19.6905 56.9173 19.3775 56.9712C19.0645 57.0251 18.7431 57.0037 18.4401 56.9087C18.2549 56.8861 18.0785 56.8168 17.9275 56.7073C17.7764 56.5978 17.6557 56.4516 17.5767 56.2826C17.4977 56.1136 17.463 55.9273 17.4758 55.7412C17.4887 55.5551 17.5486 55.3753 17.6501 55.2187C18.8901 52.4187 20.1334 49.6154 21.3801 46.8087C21.5701 46.3687 21.7601 45.9287 21.9401 45.4787C22.0372 45.3065 22.087 45.1116 22.0845 44.9139C22.0819 44.7162 22.027 44.5227 21.9254 44.3531C21.8239 44.1834 21.6792 44.0437 21.5061 43.9481C21.333 43.8525 21.1377 43.8044 20.9401 43.8087C20.2401 43.7287 19.5301 43.7387 18.8301 43.6987C15.8301 43.5287 12.8301 43.3587 9.90005 43.1587C8.90005 43.0887 8.52005 42.5287 8.83005 41.5587C11.4601 33.1287 13.8301 24.6287 15.6401 15.9887C15.7901 15.2487 15.9301 14.5187 16.0801 13.7787C16.2301 13.0387 16.0801 12.7787 15.5801 12.5187C15.3279 12.4097 15.0446 12.3962 14.7833 12.4809C14.5219 12.5655 14.3004 12.7425 14.1601 12.9787C13.5601 13.9787 13.0101 14.9287 12.4401 15.9087C11.2301 17.9987 10.0001 20.1187 8.75005 22.2087C8.52652 22.5611 8.27575 22.8954 8.00005 23.2087C7.8584 23.3882 7.67093 23.5261 7.45742 23.6079C7.24391 23.6897 7.01228 23.7123 6.78697 23.6734C6.56167 23.6345 6.35105 23.5354 6.17735 23.3868C6.00364 23.2381 5.87329 23.0453 5.80005 22.8287C4.20886 18.7933 2.8729 14.6618 1.80005 10.4587C1.20005 7.99871 0.650052 5.46871 0.0500522 2.99871C-0.037108 2.77614 -0.0416592 2.5297 0.0372233 2.30406C0.116106 2.07842 0.273203 1.8885 0.480052 1.76871C0.970052 1.47871 1.34005 1.76871 1.68005 2.08871C3.57005 3.87871 5.47005 5.67871 7.35005 7.48871C8.29005 8.37871 8.92005 8.33871 9.59005 7.21871C10.6501 5.42871 11.6901 3.61871 12.7201 1.81871C13.2301 0.918711 13.6601 0.758711 14.5001 1.34871C17.6301 3.56871 20.7601 5.79871 23.8501 8.07871C27.5295 10.9595 31.4131 13.5696 35.4701 15.8887C36.8601 16.6287 38.3401 17.2287 39.7901 17.8887C39.936 17.9613 40.0906 18.015 40.2501 18.0487C40.4814 18.1324 40.7335 18.1396 40.9693 18.0694C41.2051 17.9993 41.4121 17.8553 41.5601 17.6587C41.8701 17.1987 41.5601 16.8087 41.2901 16.4587C39.0634 14.092 36.8367 11.7154 34.6101 9.32871C33.8701 8.53871 33.1701 7.71871 32.4601 6.90871C32.1701 6.56871 31.8401 6.20871 32.1101 5.70871C32.2283 5.5155 32.4028 5.36308 32.6101 5.27192C32.8175 5.18076 33.0478 5.15521 33.2701 5.19871H33.8101L33.8201 5.08871ZM19.6801 27.9987C19.6801 29.6587 20.6201 30.3287 21.7901 29.7587C24.1901 28.6187 26.5801 27.4787 28.9501 26.2787C30.6101 25.4387 32.2201 24.5187 33.8501 23.6087C34.0492 23.5333 34.2219 23.4012 34.3468 23.2288C34.4718 23.0563 34.5434 22.8511 34.553 22.6383C34.5626 22.4256 34.5096 22.2147 34.4007 22.0317C34.2918 21.8488 34.1316 21.7017 33.9401 21.6087L33.4801 21.3287L27.5601 17.9487C26.1901 17.1787 24.8201 16.4087 23.4301 15.6787C23.2292 15.5453 22.9969 15.4668 22.7562 15.4511C22.5156 15.4354 22.2751 15.4831 22.0586 15.5893C21.8421 15.6955 21.6572 15.8566 21.5224 16.0565C21.3875 16.2564 21.3074 16.4882 21.2901 16.7287C20.9601 18.7887 20.6301 20.8587 20.3401 22.9287C20.0801 24.6887 19.8601 26.4987 19.6801 27.9987Z" fill="white"/>
</g>
<defs>
<clipPath id="clip0_435_2565">
<rect width="58" height="58" fill="white"/>
</clipPath>
</defs>
</svg>
