<svg width="58" height="58" viewBox="0 0 58 58" fill="none" xmlns="http://www.w3.org/2000/svg">
<g clip-path="url(#clip0_476_2483)">
<path d="M49.0941 34.7622C48.8167 34.3316 48.9034 33.7803 49.3021 33.453C54.8328 29.0259 56.4972 20.344 57 15.8653C57.156 14.47 55.925 13.333 54.5207 13.5225C40.9801 15.4002 33.2823 6.13257 29.9708 0.671923C29.8495 0.310176 29.5548 0.0862381 29.208 0.017334H29.1907C29.1907 0.017334 29.1213 0.017334 29.0866 0.017334H28.9479C28.9479 0.017334 28.8786 0.017334 28.8439 0.017334H28.8266C28.4798 0.0862381 28.1851 0.310176 28.0637 0.671923C24.7523 6.1498 17.0544 15.4002 3.51389 13.5225C2.10955 13.333 0.878593 14.4527 1.03463 15.8653C1.53742 20.3613 3.18448 29.0432 8.73246 33.453C9.13123 33.7631 9.21791 34.3316 8.94051 34.7622C8.195 35.8991 6.72132 38.0352 5.47302 39.5338C4.64082 40.5329 4.88355 42.0488 6.01048 42.7379C11.2811 45.9763 23.504 53.5903 28.3065 57.6728C28.4625 57.8451 28.6879 57.9657 28.9306 58.0001C28.9653 58.0001 29.0173 58.0001 29.052 58.0001C29.0866 58.0001 29.1387 58.0001 29.1733 58.0001C29.4161 57.9657 29.6241 57.8623 29.7975 57.6728C34.6 53.5903 46.8055 45.9763 52.0935 42.7379C53.2204 42.0488 53.4631 40.5502 52.6309 39.5338C51.3826 38.0352 49.9089 35.8819 49.1634 34.7622H49.0941ZM30.0575 10.284C30.0575 9.73281 30.6297 9.47442 30.9591 9.88784L37.582 18.1563L31.6699 25.5463C31.0978 26.2698 30.0575 25.8047 30.0575 24.8228V10.284ZM29.6068 40.1712C29.2427 40.2745 28.9306 40.4296 28.8092 40.6707C28.7399 40.8258 28.7399 41.0153 28.7399 41.1875C28.8266 44.3399 28.7919 47.4922 28.7746 50.6618C28.7746 52.3672 27.1795 50.5757 26.7287 50.1795C25.5498 49.0943 24.3188 48.0607 23.0705 47.0444C20.6086 45.0634 18.0253 43.2374 15.3554 41.5665C15.8061 40.5502 17.0198 40.1195 18.1294 39.93C19.4297 39.7061 20.782 39.6889 22.0823 39.8439C23.4693 40.0161 24.6656 40.5674 26.0006 40.9119C26.1219 40.7224 26.0699 40.5502 26.0699 40.309C26.0699 40.3951 23.8161 39.4305 23.6774 39.3443C22.8625 38.8792 22.065 38.328 21.3888 37.6562C19.4297 35.6924 18.6322 33.0568 18.8055 30.3179C18.8749 29.2671 19.0656 28.2163 19.395 27.2172C19.7764 26.0631 20.1058 25.598 21.1634 24.9778C21.6315 24.7022 22.221 24.8228 22.5851 25.219C24.3015 27.0622 26.0352 28.8709 27.6996 30.7486C28.0117 31.1103 28.4625 31.4204 28.9306 31.3687C29.2947 31.3342 29.6068 31.0758 29.8842 30.8347C31.3405 29.5255 32.5888 28.0268 33.9238 26.6143C34.652 25.8391 36.1083 23.7892 37.3739 24.7539C38.4662 25.5807 38.7956 27.5101 38.917 28.7848C39.125 31.1103 38.4315 33.5047 37.1139 35.4168C36.143 36.8121 34.7733 37.9146 33.317 38.7586C32.5715 39.1893 31.774 39.551 30.9591 39.8439C30.647 39.9472 30.0922 40.0161 29.6068 40.1712ZM42.2978 27.6995L38.3795 21.5843C38.1541 21.2398 39.3504 20.2924 39.6625 20.034L41.4309 18.6387C41.6216 18.5009 41.847 18.4147 42.0897 18.4492L48.73 19.0176C49.2328 19.0693 49.5102 19.6205 49.2328 20.034C48.0885 21.7738 45.4185 24.8745 44.1529 26.3042C43.8061 26.7004 42.5925 28.1302 42.3151 27.6995H42.2978Z" fill="white"/>
</g>
<defs>
<clipPath id="clip0_476_2483">
<rect width="56" height="58" fill="white" transform="translate(1)"/>
</clipPath>
</defs>
</svg>
