<svg width="58" height="58" viewBox="0 0 58 58" fill="none" xmlns="http://www.w3.org/2000/svg">
<g clip-path="url(#clip0_435_2570)">
<path d="M53.2099 33.1499H38.36C37.5299 33.1499 37.6 33.1499 37.45 33.9599C37.299 34.9872 37.0306 35.9938 36.65 36.9599C35.1017 40.109 32.5418 42.6478 29.38 44.1699C29.2461 44.2171 29.1038 44.2352 28.9624 44.2232C28.821 44.2111 28.6838 44.1691 28.56 44.0999C26.3623 42.951 24.4305 41.3532 22.8899 39.4099C21.5953 37.844 20.804 35.9234 20.62 33.8999C20.62 33.3399 20.39 33.1699 19.86 33.1699C15.08 33.1699 10.3 33.1699 5.51995 33.1699C5.32901 33.1796 5.13873 33.1996 4.94995 33.2299L5.31995 33.6799C12.81 41.9999 20.67 49.8799 28.58 57.7499C28.95 58.1099 29.19 58.0599 29.52 57.7499C36.6466 50.4166 43.7799 43.0832 50.9199 35.7499C51.6699 34.9099 52.3699 34.0899 53.2099 33.1499Z" fill="white"/>
<path d="M0 1.65999C0.05 1.54999 0.12 1.44999 0.16 1.33999C0.241298 1.06822 0.383046 0.818361 0.574624 0.609147C0.766201 0.399933 1.00264 0.236786 1.26623 0.131929C1.52981 0.0270717 1.81371 -0.0167761 2.09665 0.00367071C2.37959 0.0241175 2.65423 0.108329 2.9 0.249995C4.19 0.909995 5.45 1.60999 6.67 2.37999C11.7761 5.56905 16.1955 9.74368 19.67 14.66C19.7878 14.8846 19.9867 15.0561 20.2262 15.1396C20.4657 15.2232 20.728 15.2126 20.96 15.11C22.83 14.59 24.7 14.11 26.58 13.62C29.1318 13.1682 31.7571 13.3853 34.2 14.25C35.2 14.55 36.28 14.83 37.32 15.15C37.5209 15.2325 37.7459 15.235 37.9486 15.1569C38.1513 15.0788 38.3164 14.926 38.41 14.73C41.7861 9.92164 46.0615 5.81265 51 2.62999C52.37 1.75999 53.78 0.999995 55.2 0.239995C55.4702 0.0857164 55.7746 0.000932736 56.0856 -0.00675093C56.3967 -0.0144346 56.7049 0.055222 56.9824 0.195971C57.2599 0.336719 57.4982 0.544158 57.6758 0.799678C57.8534 1.0552 57.9648 1.35081 58 1.65999C58.0366 1.93242 58.0096 2.20962 57.9211 2.46986C57.8326 2.73011 57.6851 2.96632 57.49 3.15999C54.7527 6.44911 52.5737 10.1652 51.04 14.16C50.33 15.96 49.78 17.82 49.14 19.65C49.0713 19.8244 49.0615 20.0165 49.112 20.197C49.1626 20.3775 49.2707 20.5366 49.42 20.65C50.3916 21.5799 51.3161 22.5577 52.19 23.58C52.6002 24.1286 52.9115 24.7444 53.11 25.4C53.4 26.2 53.28 26.32 52.44 26.32H39.88C39.24 26.32 38.6 26.32 37.97 26.32C37.7603 26.3364 37.5509 26.2862 37.3713 26.1767C37.1918 26.0672 37.0514 25.9039 36.97 25.71C36.1951 24.3113 35.0615 23.1444 33.6859 22.3292C32.3103 21.514 30.7424 21.08 29.1434 21.0719C27.5445 21.0637 25.9722 21.4817 24.5884 22.2828C23.2045 23.084 22.0591 24.2393 21.27 25.63C21.1559 25.858 20.9753 26.0459 20.7522 26.1691C20.529 26.2923 20.2737 26.3449 20.02 26.32C15.26 26.32 10.5 26.32 5.74 26.32C4.87 26.32 4.74 26.21 5.03 25.32C5.41497 24.1756 6.07815 23.1447 6.96 22.32C7.54 21.71 8.16 21.13 8.78 20.56C8.90974 20.4613 9.00215 20.3215 9.04212 20.1635C9.08208 20.0054 9.06723 19.8385 9 19.69C7.42141 13.7178 4.61126 8.14178 0.75 3.31999C0.463983 2.90146 0.213125 2.45995 0 1.99999L0 1.65999Z" fill="white"/>
<path d="M53.21 33.1499C52.37 34.0899 51.67 34.9099 50.92 35.6899C43.7867 43.0232 36.6533 50.3565 29.52 57.6899C29.19 58.0299 28.95 58.0799 28.58 57.6899C20.67 49.8799 12.81 41.9999 5.32 33.6599L5 33.2099C5.18878 33.1796 5.37906 33.1596 5.57 33.1499C10.35 33.1499 15.13 33.1499 19.91 33.1499C20.44 33.1499 20.63 33.3199 20.67 33.8799C20.854 35.9034 21.6453 37.824 22.94 39.3899C24.4806 41.3332 26.4123 42.931 28.61 44.0799C28.7339 44.1491 28.8711 44.1911 29.0125 44.2031C29.1538 44.2152 29.2962 44.1971 29.43 44.1499C32.5919 42.6278 35.1517 40.089 36.7 36.9399C37.0807 35.9738 37.3491 34.9672 37.5 33.9399C37.65 33.1499 37.58 33.1299 38.41 33.1299H53.21V33.1499Z" fill="white"/>
</g>
<defs>
<clipPath id="clip0_435_2570">
<rect width="58" height="58" fill="white"/>
</clipPath>
</defs>
</svg>
